<svg viewBox="0 0 72 72" xmlns="http://www.w3.org/2000/svg" xmlns:serif="http://www.serif.com/" fill-rule="evenodd" clip-rule="evenodd" stroke-miterlimit="10"><path serif:id="Plan de travail1" fill="none" d="M-216 0h382.774v392.88H-216z"/><path serif:id="Pain sans gluten" d="M30.832 49.585c-2.012-5.935-6.523-8.187-12.07-9.024-.874-.132-1.541.056-1.772 1.066-.387 1.704-1.067 3.377-1.192 5.095-.272 3.711 1.201 7.02 5.426 8.405 3.202 1.05 6.386.604 9.526-.316 7.992-2.343 14.446-7.027 19.804-13.28 3.128-3.65 5.575-7.691 6.35-12.561.738-4.63-1.254-8.246-5.304-9.506-2.462-.766-4.981-.702-7.453-.16-2.067.454-4.078 1.163-6.114 1.759 7.691.882 12.591 6.045 10.459 11.2-2.671-5.241-4.722-7.023-9.405-8.367-3.032-.871-5.816-.9-8.35 1.409-1.958 1.784-4.113 3.352-6.18 5.016l.203.298c.503-.106 1.003-.224 1.508-.315 3.582-.647 7.022-.358 10.127 1.721 2.981 1.996 4.431 5.945 3.331 8.753-.633-1.139-1.157-2.407-1.957-3.466-2.543-3.367-6.107-4.996-10.209-5.287-5.21-.369-3.992-.54-6.917 3.135-.822 1.031-1.452 2.214-2.316 3.556 3.635-.289 6.801.074 9.554 2.125 2.762 2.057 3.982 5.514 2.951 8.744" fill="#fff" fill-rule="nonzero"/><clipPath id="a"><path d="M30.832 49.585c-2.012-5.935-6.523-8.187-12.07-9.024-.874-.132-1.541.056-1.772 1.066-.387 1.704-1.067 3.377-1.192 5.095-.272 3.711 1.201 7.02 5.426 8.405 3.202 1.05 6.386.604 9.526-.316 7.992-2.343 14.446-7.027 19.804-13.28 3.128-3.65 5.575-7.691 6.35-12.561.738-4.63-1.254-8.246-5.304-9.506-2.462-.766-4.981-.702-7.453-.16-2.067.454-4.078 1.163-6.114 1.759 7.691.882 12.591 6.045 10.459 11.2-2.671-5.241-4.722-7.023-9.405-8.367-3.032-.871-5.816-.9-8.35 1.409-1.958 1.784-4.113 3.352-6.18 5.016l.203.298c.503-.106 1.003-.224 1.508-.315 3.582-.647 7.022-.358 10.127 1.721 2.981 1.996 4.431 5.945 3.331 8.753-.633-1.139-1.157-2.407-1.957-3.466-2.543-3.367-6.107-4.996-10.209-5.287-5.21-.369-3.992-.54-6.917 3.135-.822 1.031-1.452 2.214-2.316 3.556 3.635-.289 6.801.074 9.554 2.125 2.762 2.057 3.982 5.514 2.951 8.744" clip-rule="nonzero"/></clipPath><g clip-path="url(#a)"><path d="M30.832 49.585c1.031-3.23-.189-6.687-2.951-8.744-2.753-2.051-5.919-2.414-9.554-2.125.864-1.342 1.494-2.525 2.316-3.556 2.925-3.675 1.707-3.504 6.917-3.135 4.102.291 7.666 1.92 10.209 5.287.8 1.059 1.324 2.327 1.957 3.466 1.1-2.808-.35-6.757-3.331-8.753-3.105-2.079-6.545-2.368-10.127-1.721-.505.091-1.005.209-1.508.315a52.438 52.438 0 0 1-.203-.298c2.067-1.664 4.222-3.232 6.18-5.016 2.534-2.309 5.318-2.28 8.35-1.409 4.683 1.344 6.734 3.126 9.405 8.367 2.132-5.155-2.768-10.318-10.459-11.2 2.036-.596 4.047-1.305 6.114-1.759 2.472-.542 4.991-.606 7.453.16 4.05 1.26 6.042 4.876 5.304 9.506-.775 4.87-3.222 8.911-6.35 12.561-5.358 6.253-11.812 10.937-19.804 13.28-3.14.92-6.324 1.366-9.526.316-4.225-1.385-5.698-4.694-5.426-8.405.125-1.718.805-3.391 1.192-5.095.231-1.01.898-1.198 1.772-1.066 5.547.837 10.058 3.089 12.07 9.024z" fill="none" stroke="#231f20"/></g></svg>