<svg viewBox="0 0 72 72" xmlns="http://www.w3.org/2000/svg" xmlns:serif="http://www.serif.com/" fill-rule="evenodd" clip-rule="evenodd" stroke-linejoin="round" stroke-miterlimit="1.414"><path serif:id="Plan de travail1" fill="none" d="M-216-216h382.774v392.88H-216z"/><path d="M61.734 19.333c-2.023 1.029-2.929 2.938-3.74 4.879-.394.941-.595 1.966-.842 2.963-.383 1.541.806 2.453 1.471 3.576a119.552 119.552 0 0 1 2.318 4.058c.097.179-.084.518-.158.777-.815 2.818-2.384 5.209-4.133 7.525-1.753 2.32-3.498 4.66-6.031 6.158-2.034 1.202-4.178 2.248-6.351 3.18-2.638 1.133-5.355 2.087-8.05 3.086a4.546 4.546 0 0 1-1.504.263c-2.919.025-5.852.181-8.755-.034-2.899-.214-5.779-.758-8.647-1.265-1.432-.254-2.85-.666-4.221-1.16-1.338-.482-1.764-1.342-1.753-2.716.009-.968.64-1.323 1.292-.947 3.985 2.296 7.825.505 11.707-.273 3.434-.687 6.051-2.779 8.604-4.987 1.589-1.374 3.202-2.721 4.769-4.121.465-.416.906-.917 1.195-1.465 1.216-2.308 2.356-4.654 3.551-6.972.636-1.234 1.174-2.569 2.049-3.612.533-.636 1.605-.859 2.473-1.154.419-.143.928-.025 1.591-.025-.087.374-.058.903-.26 1.016-2.236 1.242-2.593 3.667-3.576 5.668-.807 1.643-1.367 3.406-1.823 5.247.448-.653.892-1.308 1.345-1.957 2.213-3.172 4.416-6.351 6.66-9.501.239-.335.76-.755 1.075-.7 1.101.192 1.86-.365 2.308-1.129a31.712 31.712 0 0 0 2.261-4.653c.488-1.267.663-2.653 1.025-3.973.087-.317.362-.583.55-.872h3.6v3.12z" fill="#231f20" fill-rule="nonzero"/></svg>