<svg viewBox="0 0 72 72" xmlns="http://www.w3.org/2000/svg" xmlns:serif="http://www.serif.com/" fill-rule="evenodd" clip-rule="evenodd" stroke-linejoin="round" stroke-miterlimit="1.414"><path serif:id="Plan de travail1" fill="none" d="M-216-72h382.774v392.88H-216z"/><g fill-rule="nonzero"><path d="M29.622 40.006c-.02-.105-.016-.145-.033-.166-.083-.098-.165-.201-.262-.285-.608-.524-1.214-.969-2.117-.663-.408.138-.892.048-1.339.084-.123.01-.241.099-.361.152.065.112.102.278.2.33.385.203.787.376 1.187.548.082.034.203.048.279.014.794-.354 1.592-.309 2.446-.014m7.704.907c-.5-.984-.95-1.886-1.424-2.776-.049-.091-.282-.176-.364-.134-.107.055-.207.236-.211.366-.019.614.002 1.228-.004 1.843-.004.498.147.68.642.698.419.014.839.003 1.361.003m7.447 1.673l.237.159c.039-.106.059-.223.119-.316.4-.624.824-1.235 1.205-1.871.097-.16.138-.42.081-.593-.163-.497-.376-.98-.599-1.456-.068-.145-.221-.336-.351-.348-.281-.026-.288.212-.291.442-.01.645-.008 1.293-.074 1.933-.071.687-.214 1.367-.327 2.05m22.002 1.592c-.24.019-.542.14-.709.039-.677-.409-1.318-.88-1.964-1.34-.277-.198-.536-.423-.802-.636-.935-.748-1.959-.988-3.107-.564-1.626.601-3.256.454-4.89.03a2.02 2.02 0 0 0-.767-.036c-1.319.181-2.643.345-3.95.594a8.694 8.694 0 0 0-2.064.669c-.995.473-1.949 1.037-2.903 1.593-.685.4-1.192.91-1.154 1.821.025.587-.275.681-.793.392-.264-.146-.63-.352-.854-.269-.393.145-.222.571-.176.906.084.619-.12.833-.771.769-.793-.078-1.583-.187-2.374-.288-.365-.047-.621.032-.848.383-.436.677-.95 1.305-1.419 1.935 3.182.141 6.153 1.376 9.273 1.858.931.144 1.853.351 2.773.555.817.182 1.587.481 2.2 1.082.109.106.188.242.371.481-1.866-.543-3.461.167-5.097.49-.86.17-1.706.414-2.565.594-1.614.339-3.027 1.167-4.511 1.82-.055.024-.099.073-.204.154.154.099.264.182.383.245 2.248 1.183 4.604 1.258 7.02.669 1.216-.296 2.427-.611 3.643-.904.208-.05.432-.034.752-.056-1.012 1.039-2.118 1.722-3.327 2.258-2.855 1.264-5.814 1.446-8.84.825-1.768-.364-3.526-.778-5.286-1.176-.857-.194-1.588-.628-2.291-1.15-.606-.451-1.239-.915-1.932-1.193a3.514 3.514 0 0 1-1.602-5.37c.036-.048.041-.118.095-.282-1.609-.295-3.185-.59-4.764-.869-.589-.104-1.111.122-1.638.36-.351.158-.744.227-1.181.354.036.18.16.478.14.766-.045.627-.066 1.284-.273 1.866-.563 1.59-1.128 3.192-1.873 4.7-.413.834-1.133 1.548-1.824 2.2-.397.374-1.013.514-1.53.76l-.14-.129c.182-.278.309-.629.558-.822.93-.72 1.366-1.696 1.654-2.794a297.573 297.573 0 0 1 1.655-6.021c.146-.511.396-.991.576-1.493.131-.363.227-.738.373-1.228-1.135.176-2.113.244-2.983.715-.151.082-.251.42-.234.629.101 1.291-.402 2.429-.91 3.55-.346.763-.802 1.483-1.261 2.188-.43.659-1.081 1.011-1.867 1.111-.363.046-.724.11-1.086.167l-.075-.153c.473-.29.925-.62 1.422-.857.388-.185.572-.439.608-.846.149-1.733.605-3.394 1.223-5.009.278-.724.662-1.406.99-2.111.094-.203.158-.418.245-.655-.103-.027-.164-.06-.218-.054-.759.088-1.516.188-2.274.272-.407.045-.645.244-.747.647-.176.71-.342 1.425-.577 2.117-.573 1.692-1.42 3.205-2.952 4.236-.457.308-.948.395-1.584.248 1.513-.712 1.861-2.137 2.381-3.442.612-1.54 1.217-3.083 1.797-4.636.338-.903.983-1.425 1.877-1.694a.658.658 0 0 0 .349-.237c-.109-.018-.218-.044-.329-.054-.418-.037-.84-.049-1.255-.109-.274-.04-.363.069-.447.308-.191.543-.427 1.071-.633 1.609-.05.131-.054.278-.087.417-.232 1.001-.583 1.919-1.545 2.477-.445.258-.852.247-1.336-.016 1.524-1.168 1.589-2.979 2.101-4.591.231-.726.399-1.474.97-2.042.405-.402.907-.464 1.435-.5.149-.01.289-.126.434-.193-.089-.157-.142-.361-.273-.463-.535-.416-1.209-.709-1.615-1.22-.555-.7-.984-1.526-1.338-2.353-.373-.875-.612-1.809-.872-2.728-.197-.702-.018-1.382.224-2.051a.537.537 0 0 0-.066-.44c-.209-.273-.537-.473-.69-.768-.327-.628-.634-1.28-.833-1.957-.16-.541-.053-.661.372-1.202-.06-.048-.114-.115-.183-.14-.896-.335-1.188-1.093-1.244-1.931-.098-1.471-.42-2.891-.791-4.309-.147-.563-.207-1.148-.305-1.723v-2.636c.157-.995.239-2.009.496-2.977.218-.817.511-1.672.998-2.347.951-1.318 3.191-1.409 4.555-.446 1.131.8 1.292 1.956 1.467 3.147.033.225.018.456.026.683.048 1.329.44 1.768 1.735 1.95l-.009.127c-.344-.034-.712-.002-1.028-.114a12.946 12.946 0 0 1-3.999-2.283c-.186-.155-.384-.294-.659-.505-.059.469-.121.858-.154 1.249a28.669 28.669 0 0 0 .302 7.004c.028.17.108.343.201.49.681 1.058 1.022 2.207.941 3.466-.022.339.078.54.368.763.947.728 1.461 1.731 1.564 2.92.028.303.129.478.405.586 1.614.636 2.846 1.761 4 3.027.917 1.005 1.941 1.915 2.948 2.834.266.244.637.385.975.541.661.306 1.333.583 1.997.885.445.201.74.081.878-.383.42-1.408 1.038-1.864 2.521-1.863 2.413.003 4.295 1.101 5.865 2.842.186.205.338.469.567.598.272.153.642.316.911.246.35-.091.246-.493.211-.805-.103-.902-.271-1.807-.249-2.707.022-.994.72-1.329 1.676-.99 1.369.487 2.136 1.54 2.71 2.78.308.662.566 1.348.85 2.021.057.135.106.285.204.384.102.103.256.152.388.225.064-.122.183-.243.182-.364a20.391 20.391 0 0 0-.078-1.461c-.061-.762-.151-1.522-.196-2.285-.02-.337-.008-.69.074-1.014.168-.665.814-.844 1.305-.359.212.21.379.489.499.766.706 1.639.689 3.392.781 5.129.014.256.077.51.117.765l.223.027c.086-.254.211-.501.25-.762.211-1.399.361-2.809.618-4.199a3.765 3.765 0 0 1 .665-1.531c.601-.8 1.689-.728 2.215.117.241.387.356.859.493 1.303.106.34.174.694.231 1.046.115.717.645.967 1.249 1.121.118.03.312-.012.39-.096.839-.892 1.984-.981 3.066-1.032.871-.041 1.754.243 2.636.352.163.021.426-.048.502-.166.67-1.038 1.591-1.716 2.804-1.914 1.328-.216 2.659-.203 3.951.255 1.289.458 2.044 1.5 2.795 2.552.584.817 1.195 1.615 1.782 2.43.321.446.617.91.924 1.365v.488z" fill="#231f20"/><path d="M44.774 42.586c.112-.683.256-1.362.326-2.049.067-.64.065-1.288.074-1.933.003-.231.01-.469.291-.442.13.011.284.203.352.348.223.475.436.958.599 1.456a.81.81 0 0 1-.081.592c-.381.636-.805 1.247-1.206 1.872-.059.093-.08.21-.119.315l-.236-.159M37.326 40.913c-.522 0-.942.012-1.361-.003-.495-.018-.646-.2-.642-.698.006-.614-.016-1.229.004-1.842.004-.13.103-.312.211-.367.082-.042.315.043.364.134.474.89.924 1.793 1.424 2.776M29.622 40.006c-.854-.295-1.652-.34-2.446.014-.076.034-.197.02-.279-.014-.4-.172-.802-.345-1.187-.548-.098-.052-.135-.218-.2-.33.12-.053.238-.142.361-.152.447-.036.931.054 1.339-.084.903-.306 1.509.139 2.117.663.097.084.179.187.262.285.017.021.013.061.033.166" fill="#fff"/></g></svg>