<?xml version="1.0" encoding="UTF-8" standalone="no"?><!DOCTYPE svg PUBLIC "-//W3C//DTD SVG 1.1//EN" "http://www.w3.org/Graphics/SVG/1.1/DTD/svg11.dtd"><svg width="100%" height="100%" viewBox="0 0 72 72" version="1.1" xmlns="http://www.w3.org/2000/svg" xmlns:xlink="http://www.w3.org/1999/xlink" xml:space="preserve" xmlns:serif="http://www.serif.com/" style="fill-rule:evenodd;clip-rule:evenodd;stroke-linejoin:round;stroke-miterlimit:1.41421;"><g><path d="M17.651,43.934l-0.118,0.336c0.35,0.17 0.717,0.514 1.049,0.484c2.59,-0.233 4.55,-1.602 6.22,-3.52c-0.493,-0.503 -0.843,-0.723 -1.429,-0.151c-1.586,1.551 -3.46,2.6 -5.722,2.851m36.672,-16.526l0.169,-0.411c-0.346,-0.196 -0.749,-0.618 -1.028,-0.548c-1.574,0.397 -3.251,0.672 -4.636,1.447c-1.793,1.004 -3.344,2.44 -5.025,3.709c1.105,1.285 1.789,0.179 2.355,-0.404c1.699,-1.756 3.717,-2.818 6.102,-3.253c0.698,-0.127 1.376,-0.357 2.063,-0.54m-39.333,11.578c0.641,1.315 1.146,2.43 1.736,3.498c0.136,0.244 0.59,0.497 0.853,0.456c2,-0.31 3.801,-1.049 5.186,-2.793c-2.599,0.082 -4.843,-1.901 -7.775,-1.161m32.663,-4.543c1.627,0.349 2.982,0.773 4.332,-0.212c0.46,-0.335 1.118,-0.402 1.689,-0.583c0.761,-0.242 1.541,-0.432 2.283,-0.725c0.758,-0.299 0.761,-0.915 0.531,-1.598c-0.216,-0.637 -0.556,-0.884 -1.256,-0.668c-0.99,0.306 -2.025,0.471 -3.011,0.789c-1.72,0.557 -3.291,1.376 -4.568,2.997m-27.942,13.492c0.322,1.702 0.887,2.425 1.787,2.139c1.313,-0.416 2.678,-0.843 3.822,-1.577c1.801,-1.155 3.436,-2.569 5.11,-3.849c-0.235,-0.089 -0.723,-0.175 -1.091,-0.433c-1.424,-0.999 -2.489,-0.406 -3.514,0.662c-1.651,1.72 -3.633,2.815 -6.114,3.058m-1.39,-19.39l-0.419,0.137c0.136,0.428 0.145,0.986 0.428,1.264c1.472,1.442 3.278,2.217 5.334,2.418c2.301,0.226 4.293,1.138 5.979,2.73c1.562,1.471 3.416,2.321 5.559,2.516c2.276,0.207 4.215,1.129 5.865,2.699c1.496,1.422 3.284,2.259 5.332,2.464c2.046,0.205 3.856,0.937 5.483,2.177c0.812,0.618 1.65,1.201 2.575,1.872l0.44,-1.209c-0.975,-0.725 -1.798,-1.54 -2.783,-2.02c-1.447,-0.705 -2.971,-1.393 -4.536,-1.684c-2.309,-0.43 -4.361,-1.192 -6.073,-2.826c-1.587,-1.511 -3.495,-2.343 -5.68,-2.546c-2.267,-0.212 -4.229,-1.103 -5.861,-2.695c-1.452,-1.416 -3.2,-2.305 -5.19,-2.504c-2.476,-0.246 -4.615,-1.129 -6.453,-2.793m35.171,-3.208c-0.594,-1.246 -1.072,-2.337 -1.642,-3.379c-0.114,-0.21 -0.602,-0.373 -0.868,-0.317c-2.866,0.599 -5.66,1.336 -7.77,3.618c-1.131,1.223 -2.591,1.941 -4.251,2.261c-1.246,0.24 -2.473,0.577 -3.708,0.871l0.014,0.48c0.907,0.236 1.812,0.481 2.722,0.707c1.081,0.268 2.269,0.321 3.224,0.824c1.299,0.684 2.274,0.344 3.28,-0.418c0.38,-0.288 0.7,-0.658 1.089,-0.931c1.101,-0.773 2.152,-1.671 3.357,-2.228c1.392,-0.642 2.927,-0.974 4.553,-1.488m-0.558,24.577c-1.011,-0.743 -1.898,-1.61 -2.958,-2.126c-1.554,-0.755 -3.185,-1.476 -4.864,-1.816c-2.1,-0.426 -3.987,-1.097 -5.541,-2.591c-1.615,-1.552 -3.553,-2.428 -5.768,-2.647c-2.189,-0.216 -3.953,-1.214 -5.688,-2.531c-1.395,-1.06 -3.026,-2.104 -4.695,-2.437c-2.632,-0.526 -5.113,-1.112 -7.106,-3.174c-0.196,0.417 -0.316,0.706 -0.463,0.981c-0.509,0.95 -0.358,1.617 0.576,2.314c1.429,1.065 2.97,1.714 4.714,1.891c2.354,0.24 4.379,1.171 6.094,2.783c1.51,1.419 3.297,2.239 5.347,2.445c2.356,0.237 4.366,1.173 6.086,2.792c1.342,1.264 2.918,2.131 4.769,2.305c2.512,0.237 4.679,1.173 6.632,2.764c1.518,1.236 2.172,0.985 2.865,-0.953m4.235,-9.082c-2.415,-1.751 -4.561,-3.767 -7.617,-4.018c-2.283,-0.188 -4.212,-1.089 -5.878,-2.648c-1.626,-1.521 -3.577,-2.382 -5.793,-2.601c-2.149,-0.212 -3.98,-1.069 -5.551,-2.548c-1.621,-1.524 -3.559,-2.411 -5.778,-2.635c-2.006,-0.203 -3.785,-0.917 -5.31,-2.247c-0.229,-0.2 -0.492,-0.36 -0.815,-0.593l-1.778,3.918c1.589,1.667 3.458,2.638 5.694,2.854c2.437,0.235 4.542,1.181 6.314,2.857c1.506,1.425 3.287,2.231 5.336,2.439c2.434,0.246 4.515,1.217 6.291,2.9c1.467,1.392 3.225,2.186 5.246,2.364c2.046,0.181 3.861,0.921 5.487,2.166c0.744,0.57 1.52,1.099 2.35,1.695l1.802,-3.903m1.561,-9.289c-0.138,3.271 -2.641,3.687 -5.29,4.163c1.399,0.999 2.643,1.873 3.87,2.77c0.448,0.328 0.906,0.666 1.271,1.078c0.554,0.63 0.761,1.342 0.368,2.189c-1.484,3.188 -2.926,6.395 -4.401,9.587c-1.12,2.423 -3.11,3.023 -5.24,1.402c-1.996,-1.518 -4.106,-2.506 -6.632,-2.759c-2.175,-0.218 -3.965,-1.407 -5.528,-2.897c-0.854,-0.815 -1.701,-1.129 -2.978,-0.9c-2.582,0.462 -4.884,1.257 -6.761,3.212c-1.413,1.472 -3.275,2.239 -5.289,2.609c-1.925,0.354 -2.893,-0.062 -3.8,-1.834c-1.523,-2.979 -3,-5.98 -4.482,-8.979c-0.325,-0.66 -0.892,-1.394 -0.803,-2.016c0.112,-0.795 0.776,-1.512 1.276,-2.393c-1.234,-1.015 -0.963,-2.507 -0.287,-4.007c1.442,-3.207 2.907,-6.403 4.394,-9.589c0.896,-1.92 2.201,-2.234 3.787,-0.841c1.409,1.238 2.983,1.925 4.843,2.106c2.119,0.205 3.982,1.098 5.716,2.308c0.294,0.205 0.792,0.314 1.132,0.224c1.418,-0.375 2.791,-0.936 4.219,-1.254c1.574,-0.351 2.934,-0.997 4.054,-2.158c2.532,-2.628 5.893,-3.388 9.28,-4.017c1.16,-0.215 1.789,0.692 2.252,1.625c1.447,2.922 2.884,5.85 4.331,8.772c0.048,0.095 0.174,0.152 0.264,0.226l0.434,1.373" style="fill:#231f20;fill-rule:nonzero;"/><path d="M57.169,40.832l-1.802,3.903c-0.83,-0.596 -1.605,-1.125 -2.349,-1.695c-1.626,-1.245 -3.442,-1.985 -5.488,-2.166c-2.02,-0.178 -3.779,-0.972 -5.246,-2.364c-1.775,-1.683 -3.856,-2.654 -6.291,-2.9c-2.049,-0.208 -3.83,-1.014 -5.336,-2.439c-1.771,-1.676 -3.877,-2.622 -6.313,-2.857c-2.237,-0.216 -4.106,-1.187 -5.695,-2.854l1.779,-3.918c0.322,0.233 0.586,0.393 0.814,0.593c1.526,1.33 3.304,2.044 5.311,2.247c2.219,0.224 4.156,1.111 5.777,2.636c1.571,1.478 3.402,2.335 5.552,2.547c2.216,0.219 4.167,1.08 5.793,2.601c1.666,1.559 3.595,2.46 5.878,2.648c3.055,0.251 5.201,2.267 7.616,4.018m-4.235,9.082c-0.693,1.938 -1.348,2.189 -2.865,0.953c-1.953,-1.591 -4.12,-2.527 -6.632,-2.764c-1.852,-0.174 -3.427,-1.041 -4.77,-2.305c-1.719,-1.619 -3.729,-2.555 -6.086,-2.792c-2.049,-0.206 -3.836,-1.026 -5.346,-2.445c-1.715,-1.612 -3.74,-2.543 -6.094,-2.783c-1.744,-0.177 -3.285,-0.826 -4.714,-1.891c-0.934,-0.697 -1.085,-1.364 -0.576,-2.314c0.146,-0.275 0.267,-0.564 0.463,-0.981c1.993,2.062 4.474,2.648 7.105,3.174c1.67,0.333 3.301,1.377 4.696,2.437c1.735,1.317 3.499,2.315 5.688,2.531c2.215,0.219 4.152,1.095 5.768,2.647c1.553,1.494 3.441,2.165 5.541,2.591c1.678,0.34 3.31,1.061 4.864,1.817c1.06,0.515 1.947,1.382 2.958,2.125m0.558,-24.577c-1.626,0.515 -3.161,0.846 -4.553,1.488c-1.205,0.557 -2.256,1.455 -3.357,2.228c-0.389,0.273 -0.709,0.643 -1.089,0.931c-1.006,0.763 -1.98,1.102 -3.279,0.418c-0.955,-0.503 -2.144,-0.556 -3.225,-0.824c-0.91,-0.225 -1.814,-0.471 -2.722,-0.707l-0.014,-0.48c1.235,-0.294 2.463,-0.631 3.708,-0.871c1.66,-0.32 3.12,-1.038 4.251,-2.261c2.11,-2.281 4.904,-3.019 7.77,-3.618c0.266,-0.056 0.754,0.108 0.868,0.317c0.57,1.042 1.048,2.133 1.642,3.379" style="fill:#fff;fill-rule:nonzero;"/><path d="M18.321,28.546c1.838,1.664 3.978,2.546 6.453,2.793c1.99,0.198 3.738,1.087 5.191,2.504c1.631,1.592 3.593,2.483 5.86,2.694c2.185,0.204 4.093,1.035 5.68,2.547c1.712,1.633 3.764,2.396 6.073,2.825c1.565,0.291 3.089,0.98 4.536,1.685c0.985,0.48 1.808,1.295 2.783,2.02l-0.44,1.209c-0.925,-0.671 -1.763,-1.255 -2.574,-1.873c-1.627,-1.239 -3.438,-1.971 -5.484,-2.176c-2.048,-0.206 -3.836,-1.042 -5.332,-2.464c-1.65,-1.57 -3.589,-2.493 -5.865,-2.699c-2.143,-0.195 -3.997,-1.045 -5.559,-2.517c-1.686,-1.591 -3.677,-2.504 -5.979,-2.729c-2.056,-0.201 -3.862,-0.976 -5.334,-2.419c-0.283,-0.277 -0.292,-0.836 -0.428,-1.264l0.419,-0.136Zm1.39,19.39c2.481,-0.243 4.464,-1.339 6.114,-3.058c1.026,-1.068 2.09,-1.662 3.514,-0.663c0.368,0.259 0.856,0.344 1.092,0.434c-1.674,1.28 -3.31,2.694 -5.111,3.849c-1.143,0.733 -2.508,1.16 -3.822,1.577c-0.899,0.285 -1.465,-0.437 -1.787,-2.139m27.942,-13.492c1.277,-1.621 2.848,-2.44 4.568,-2.997c0.986,-0.318 2.021,-0.483 3.011,-0.789c0.7,-0.216 1.04,0.031 1.256,0.667c0.23,0.683 0.228,1.3 -0.531,1.599c-0.742,0.292 -1.522,0.483 -2.283,0.725c-0.571,0.181 -1.229,0.248 -1.689,0.583c-1.35,0.984 -2.705,0.561 -4.332,0.212m-32.663,4.543c2.932,-0.741 5.176,1.243 7.775,1.161c-1.384,1.743 -3.186,2.483 -5.186,2.793c-0.263,0.041 -0.717,-0.212 -0.853,-0.456c-0.59,-1.068 -1.094,-2.183 -1.736,-3.498m39.333,-11.578c-0.687,0.183 -1.365,0.413 -2.063,0.54c-2.385,0.435 -4.403,1.497 -6.102,3.252c-0.565,0.584 -1.25,1.69 -2.355,0.405c1.681,-1.269 3.232,-2.705 5.025,-3.709c1.385,-0.776 3.062,-1.05 4.636,-1.447c0.279,-0.07 0.682,0.352 1.028,0.547l-0.169,0.412m-36.672,16.525c2.262,-0.251 4.136,-1.3 5.722,-2.851c0.586,-0.572 0.936,-0.352 1.429,0.151c-1.67,1.918 -3.63,3.287 -6.22,3.52c-0.332,0.03 -0.699,-0.314 -1.049,-0.484l0.118,-0.336" style="fill:#fff;fill-rule:nonzero;"/></g></svg>