<?xml version="1.0" encoding="UTF-8" standalone="no"?><!DOCTYPE svg PUBLIC "-//W3C//DTD SVG 1.1//EN" "http://www.w3.org/Graphics/SVG/1.1/DTD/svg11.dtd"><svg width="100%" height="100%" viewBox="0 0 72 72" version="1.1" xmlns="http://www.w3.org/2000/svg" xmlns:xlink="http://www.w3.org/1999/xlink" xml:space="preserve" xmlns:serif="http://www.serif.com/" style="fill-rule:evenodd;clip-rule:evenodd;stroke-linejoin:round;stroke-miterlimit:1.41421;"><path d="M33.696,18.727l4.32,0c0.142,0.063 0.281,0.173 0.427,0.184c9.231,0.692 15.832,8.258 15.32,16.718c-0.205,3.395 -2.469,6.765 -5.65,7.702c-3.139,0.926 -5.697,-0.768 -5.618,-3.718c0.04,-1.517 0.972,-2.606 2.156,-2.519c1.436,0.107 2.483,1.496 2.247,2.996c-0.059,0.378 -0.153,0.75 -0.26,1.261c1.383,-0.459 1.808,-1.426 1.935,-2.597c0.437,-4.05 -3.612,-6.654 -7.955,-6.32c0.212,2.406 0.39,4.817 0.643,7.221c0.355,3.364 0.935,6.717 1.076,10.088c0.059,1.418 -0.578,2.959 -1.226,4.283c-0.575,1.174 -1.738,1.537 -3.171,1.302c-1.338,-0.221 -2.765,-0.205 -4.108,0.001c-1.314,0.201 -2.45,-0.048 -3.035,-1.114c-0.669,-1.219 -1.186,-2.623 -1.352,-3.997c-0.409,-3.373 0.395,-6.669 1.013,-9.966c0.484,-2.585 0.736,-5.187 0.483,-7.889c-1.851,-0.032 -3.499,0.305 -5,1.216c-1.854,1.125 -2.844,2.777 -2.777,4.965c0.046,1.503 0.8,2.44 2.041,2.667c-0.107,-0.358 -0.23,-0.685 -0.301,-1.024c-0.304,-1.432 0.679,-2.856 2.129,-3.105c1.033,-0.177 2.041,0.744 2.287,2.143c0.068,0.384 0.064,0.803 -0.009,1.187c-0.435,2.306 -2.712,3.57 -5.273,2.951c-3.165,-0.764 -5.603,-3.772 -5.945,-7.33c-0.657,-6.839 3.607,-13.623 10.097,-15.891c1.782,-0.623 3.668,-0.951 5.506,-1.415" style="fill:#231f20;fill-rule:nonzero;"/></svg>