<?xml version="1.0" encoding="UTF-8" standalone="no"?><!DOCTYPE svg PUBLIC "-//W3C//DTD SVG 1.1//EN" "http://www.w3.org/Graphics/SVG/1.1/DTD/svg11.dtd"><svg width="100%" height="100%" viewBox="0 0 72 72" version="1.1" xmlns="http://www.w3.org/2000/svg" xmlns:xlink="http://www.w3.org/1999/xlink" xml:space="preserve" xmlns:serif="http://www.serif.com/" style="fill-rule:evenodd;clip-rule:evenodd;stroke-linejoin:round;stroke-miterlimit:1.41421;"><g><path d="M60.765,47.735c-0.399,0.349 -0.651,0.367 -1.165,0.015c-1.086,-0.74 -2.251,-1.356 -3.473,-1.837c-1.43,-0.578 -2.933,-0.959 -4.466,-1.131c-0.207,-0.023 -0.32,-0.102 -0.344,-0.298c-0.074,-0.577 -0.153,-1.153 -0.209,-1.732c-0.07,-0.716 -0.064,-1.443 -0.188,-2.148c-0.221,-1.258 -0.412,-1.296 -1.481,-0.662c-0.831,0.493 -1.716,0.896 -2.589,1.311c-0.435,0.207 -0.895,0.209 -1.368,0.062c-0.5,-0.156 -1.026,-0.227 -1.528,-0.377c-0.952,-0.285 -1.341,-0.904 -1.227,-1.887c0.092,-0.787 0.086,-0.875 -0.097,-1.277c-0.597,0.486 -0.978,1.238 -1.785,1.437c-0.791,0.195 -1.526,-0.118 -2.387,-0.303c0.16,0.259 0.237,0.467 0.381,0.605c0.697,0.664 1.308,1.418 2.174,1.907c0.479,0.269 0.896,0.666 1.295,1.052c0.38,0.368 0.785,0.621 1.323,0.618c1.073,-0.005 2.147,-0.017 3.22,-0.013c0.272,0 0.556,0.01 0.812,0.086c0.206,0.06 0.378,0.228 0.625,0.387c-0.595,0.344 -0.913,-0.239 -1.468,-0.168c0.182,0.201 0.296,0.401 0.466,0.501c0.857,0.497 1.729,0.966 2.594,1.447c0.14,0.078 0.283,0.153 0.409,0.249c0.504,0.385 1.002,0.78 1.523,1.186l-0.138,0.175c0.106,0.014 0.18,0.028 0.255,0.033c0.341,0.019 0.416,0.146 0.265,0.459c-0.035,0.071 -0.079,0.139 -0.121,0.207l-0.247,0.392c-0.889,-1.169 -2.101,-1.876 -3.322,-2.576c-0.304,-0.176 -0.629,-0.355 -0.865,-0.607c-0.713,-0.76 -1.616,-0.975 -2.602,-1.03c-0.683,-0.038 -1.37,-0.074 -2.046,-0.172c-1.206,-0.175 -2.157,-0.874 -3.006,-1.676c-0.695,-0.655 -1.282,-1.424 -1.918,-2.14c-0.312,-0.35 -0.617,-0.705 -0.95,-1.033c-0.107,-0.105 -0.299,-0.195 -0.441,-0.18c-0.689,0.075 -1.375,0.185 -2.061,0.288c-0.252,0.038 -0.396,0.214 -0.384,0.449c0.023,0.449 0.047,0.906 0.147,1.342c0.117,0.509 0.45,0.997 0.454,1.497c0.01,1.056 0.61,1.978 0.586,3.024c-0.008,0.365 -0.013,0.731 -0.052,1.093c-0.049,0.444 -0.264,0.745 -0.696,0.967c-1.963,1.005 -4.008,1.759 -6.175,2.179c-0.173,0.04 -0.328,0.137 -0.439,0.275c-0.487,0.633 -0.934,1.298 -1.432,1.923c-0.172,0.217 -0.456,0.344 -0.682,0.521c-0.067,0.055 -0.121,0.125 -0.157,0.205c-0.639,1.43 -1.803,2.288 -3.2,2.95l0,-0.916c0.251,-0.05 0.56,-0.099 0.861,-0.179c0.11,-0.036 0.203,-0.109 0.264,-0.207c0.39,-0.668 0.835,-1.282 1.51,-1.698c0.077,-0.047 0.117,-0.159 0.166,-0.245c0.241,-0.425 0.424,-0.896 0.731,-1.266c0.537,-0.646 1.149,-1.23 1.746,-1.857c-0.226,-0.307 -0.064,-0.432 0.254,-0.518c1.595,-0.434 3.191,-0.867 4.78,-1.326c0.599,-0.173 1.18,-0.413 1.681,-0.591c-0.081,-0.368 -0.138,-0.674 -0.218,-0.975c-0.115,-0.424 -0.173,-0.887 -0.387,-1.257c-0.406,-0.704 -0.532,-1.415 -0.385,-2.204c0.115,-0.544 0.001,-1.112 -0.315,-1.569c-0.163,-0.241 -0.265,-0.524 -0.412,-0.823c-0.072,0.004 -0.183,0.011 -0.294,0.016c-0.342,0.017 -0.447,-0.109 -0.263,-0.399c0.16,-0.252 0.398,-0.462 0.623,-0.665c0.247,-0.224 0.497,-0.434 0.527,-0.818c-0.318,-0.042 -0.538,0.099 -0.722,0.315c-0.232,0.271 -0.454,0.535 -0.852,0.585c-0.08,0.01 -0.149,0.219 -0.199,0.346c-0.081,0.207 -0.123,0.429 -0.214,0.632c-0.541,1.206 -1.102,2.404 -1.637,3.615c-0.506,1.151 -1.012,2.299 -1.821,3.282c-0.272,0.33 -0.553,0.566 -1.028,0.629c-1.186,0.156 -2.347,0.498 -3.563,0.415c-0.729,-0.049 -1.459,-0.086 -2.19,-0.111c-0.813,-0.028 -1.596,0.108 -2.308,0.523c-0.579,0.338 -1.138,0.71 -1.724,1.035c-0.305,0.169 -0.648,0.271 -0.974,0.402c-0.211,0.084 -0.45,0.125 -0.631,0.252c-0.735,0.518 -1.578,0.75 -2.424,0.995c-0.361,0.104 -0.593,0.013 -0.778,-0.279c-0.103,-0.164 -0.191,-0.338 -0.286,-0.508l0.074,-0.081c0.114,0.022 0.248,0.014 0.34,0.072c0.307,0.195 0.615,0.167 0.915,0.023c0.608,-0.287 1.209,-0.59 1.802,-0.907c1.233,-0.669 2.442,-1.385 3.79,-1.819c0.151,-0.052 0.288,-0.141 0.397,-0.258c0.544,-0.589 1.232,-0.676 1.956,-0.532c1.099,0.219 2.2,0.206 3.31,0.15c0.499,-0.026 1.005,0.024 1.504,0.079c0.493,0.053 0.882,-0.096 1.068,-0.55c0.316,-0.769 0.582,-1.557 0.869,-2.337c0.248,-0.673 0.475,-1.356 0.748,-2.02c0.293,-0.71 0.748,-1.306 1.323,-1.662l0.119,-1.693c-0.222,0.063 -0.427,0.095 -0.609,0.178c-0.225,0.104 -0.449,0.23 -0.641,0.386c-0.099,0.08 -0.157,0.239 -0.185,0.372c-0.401,1.896 -1.535,3.092 -3.413,3.571c-0.386,0.102 -0.778,0.181 -1.173,0.236c-1.628,0.209 -3.26,0.186 -4.802,-0.398c-0.918,-0.348 -1.767,-0.895 -2.611,-1.412c-1.33,-0.816 -2.544,-1.78 -3.53,-3.009c-0.188,-0.232 -0.249,-0.462 -0.132,-0.722c0.192,-0.424 0.374,-0.859 0.617,-1.254c0.938,-1.526 2.29,-2.599 3.846,-3.435c0.371,-0.2 0.775,-0.337 1.15,-0.529c1.495,-0.767 3.1,-0.896 4.737,-0.811c1.231,0.064 2.418,0.323 3.512,0.923c0.488,0.267 0.902,0.574 1.084,1.157c0.2,0.637 0.492,1.243 0.753,1.889l1.447,0.327c0.105,-0.45 -0.019,-0.814 -0.236,-1.143c-0.223,-0.345 -0.469,-0.674 -0.735,-0.987c-0.903,-1.046 -1.624,-2.203 -2.237,-3.436c-0.253,-0.51 -0.559,-0.995 -0.861,-1.479c-0.075,-0.105 -0.19,-0.174 -0.318,-0.191c-1.767,-0.074 -3.515,0.046 -5.228,0.521c-0.252,0.071 -0.507,0.134 -0.762,0.19c-0.747,0.165 -1.39,-0.037 -1.974,-0.522c-0.551,-0.461 -1.117,-0.902 -1.699,-1.323c-0.864,-0.622 -1.814,-1.04 -2.88,-1.195c-0.378,-0.055 -0.753,-0.187 -1.11,-0.332c-0.434,-0.177 -0.752,-0.493 -0.942,-1.012c0.141,0.017 0.237,0.013 0.323,0.041c0.635,0.208 1.269,0.421 1.901,0.638c0.592,0.202 1.202,0.368 1.765,0.632c0.359,0.167 0.648,0.485 0.978,0.743c0.429,-0.263 0.434,-0.269 0.899,0.107c0.292,0.237 0.563,0.502 0.846,0.751c0.495,0.435 1.059,0.596 1.715,0.46c0.926,-0.191 1.85,-0.412 2.787,-0.527c1.122,-0.137 2.262,-0.203 3.37,0.105c0.36,0.099 0.727,0.295 1.009,0.54c1.313,1.139 2.259,2.567 3.055,4.095c0.379,0.732 0.748,1.463 1.307,2.081c0.135,0.149 0.268,0.336 0.31,0.526c0.08,0.36 0.28,0.535 0.628,0.593c0.316,0.053 0.573,0.193 0.691,0.525c0.03,0.084 0.127,0.144 0.223,0.247c0.146,-0.339 -0.006,-0.553 -0.182,-0.741c-0.194,-0.208 -0.428,-0.38 -0.619,-0.59c-0.148,-0.163 -0.258,-0.359 -0.385,-0.54c0.023,-0.043 0.045,-0.087 0.069,-0.13l0.918,0.17l-0.102,-0.399c0.511,-0.329 0.439,-0.859 0.354,-1.368c-0.128,-0.711 -0.061,-1.444 0.193,-2.121c0.135,-0.363 0.29,-0.732 0.337,-1.11c0.031,-0.334 -0.01,-0.67 -0.121,-0.987c-0.081,-0.245 -0.317,-0.378 -0.62,-0.405c-0.324,-0.029 -0.676,-0.089 -0.95,-0.25c-1.032,-0.608 -2.141,-0.875 -3.327,-0.904c-0.579,-0.015 -1.012,-0.288 -1.387,-0.756c-0.856,-1.07 -1.778,-2.086 -2.655,-3.14c-0.317,-0.381 -0.556,-0.811 -1.013,-1.082c-0.39,-0.233 -0.538,-0.656 -0.493,-1.201c0.202,0.181 0.364,0.317 0.516,0.462c0.703,0.669 1.38,1.368 2.114,2c0.318,0.273 0.545,0.559 0.754,0.921c0.321,0.55 0.712,1.057 1.163,1.506c0.225,0.223 0.62,0.31 0.955,0.375c0.308,0.06 0.639,0.031 0.956,0.002c1.642,-0.153 3.098,0.431 4.515,1.144c0.778,0.391 0.87,1.173 0.829,1.896c-0.054,0.94 -0.273,1.869 -0.41,2.804c-0.132,0.902 -0.253,1.804 -0.37,2.708c-0.039,0.3 0.079,0.456 0.415,0.467c0.569,0.019 1.137,0.098 1.705,0.117c0.222,0.008 0.45,-0.065 0.667,-0.129c0.312,-0.091 0.5,-0.28 0.597,-0.625c0.386,-1.381 1.26,-2.41 2.502,-3.082c1.088,-0.59 2.131,-1.326 3.354,-1.592c1.042,-0.227 2.122,-0.3 3.189,-0.378c0.475,-0.035 0.844,-0.192 1.128,-0.541c0.302,-0.371 0.545,-0.791 0.856,-1.154c0.36,-0.422 0.765,-0.805 1.151,-1.204c0.387,-0.398 0.793,-0.779 1.156,-1.197c0.283,-0.323 0.537,-0.666 0.996,-0.724c0.114,-0.014 0.324,0.026 0.342,0.086c0.045,0.146 0.049,0.342 -0.018,0.473c-0.066,0.127 -0.235,0.207 -0.367,0.293c-0.908,0.588 -1.553,1.416 -2.18,2.279c-0.423,0.582 -0.948,1.091 -1.433,1.629c-0.174,0.193 -0.362,0.376 -0.582,0.603c0.57,0.268 0.878,-0.375 1.334,-0.2c-0.143,0.402 -0.799,0.838 -1.161,0.688c-1.097,-0.453 -2.157,-0.108 -3.232,0.063c-0.686,0.11 -1.379,0.175 -2.068,0.267c-0.09,0.012 -0.207,0.048 -0.257,0.114c-0.635,0.828 -1.469,1.432 -2.279,2.066c-0.572,0.448 -1.127,0.919 -1.69,1.379l0.042,0.114c0.199,0 0.398,-0.007 0.596,0.002c0.617,0.026 1.232,0.051 1.847,0.089c0.502,0.031 0.837,0.302 1.061,0.75c0.142,0.285 0.334,0.546 0.506,0.822c0.069,-0.71 0.068,-1.374 0.21,-2.006c0.178,-0.786 0.69,-1.326 1.513,-1.511c0.044,-0.01 0.092,-0.037 0.132,-0.029c0.998,0.214 2.021,-0.255 3.019,0.135c0.942,0.369 1.844,0.793 2.596,1.488c0.016,0.014 0.042,0.018 0.086,0.036c0.427,-0.41 0.546,-0.955 0.583,-1.512c0.051,-0.774 0.033,-1.553 0.082,-2.328c0.03,-0.452 0.085,-0.913 0.212,-1.346c0.167,-0.571 0.569,-0.891 1.196,-0.96c1.921,-0.213 3.631,-1.014 5.302,-1.933c0.584,-0.321 1.216,-0.558 1.833,-0.819c0.117,-0.05 0.264,-0.03 0.407,-0.044c0.114,0.385 -0.038,0.671 -0.3,0.863c-0.357,0.261 -0.732,0.525 -1.14,0.682c-1.343,0.51 -2.696,0.995 -4.057,1.455c-0.803,0.274 -1.626,0.494 -2.442,0.74c-0.066,0.903 -0.105,1.895 -0.223,2.877c-0.117,0.977 -0.373,1.926 -0.865,2.855c0.278,0.108 0.532,0.235 0.8,0.304c0.719,0.183 1.093,0.721 1.376,1.332c0.238,0.51 -0.013,1.117 -0.57,1.462c-0.183,0.113 -0.386,0.225 -0.592,0.257c-0.306,0.048 -0.375,0.23 -0.351,0.476c0.041,0.407 0.092,0.815 0.166,1.217c0.262,1.41 0.534,2.819 0.814,4.292c0.492,0.091 1.097,0.194 1.7,0.315c0.965,0.194 1.904,0.458 2.779,0.934c0.21,0.114 0.484,0.114 0.728,0.165c0.555,0.116 1.074,0.308 1.496,0.706c0.041,0.039 0.089,0.093 0.137,0.097c0.727,0.062 1.188,0.59 1.729,0.979l0,0.274Z" style="fill:#231f20;fill-rule:nonzero;"/></g></svg>