<?xml version="1.0" encoding="UTF-8" standalone="no"?><!DOCTYPE svg PUBLIC "-//W3C//DTD SVG 1.1//EN" "http://www.w3.org/Graphics/SVG/1.1/DTD/svg11.dtd"><svg width="100%" height="100%" viewBox="0 0 72 72" version="1.1" xmlns="http://www.w3.org/2000/svg" xmlns:xlink="http://www.w3.org/1999/xlink" xml:space="preserve" xmlns:serif="http://www.serif.com/" style="fill-rule:evenodd;clip-rule:evenodd;stroke-linejoin:round;stroke-miterlimit:1.41421;"><g><path d="M41.352,44.231c0.009,-2.01 -1.53,-3.547 -3.545,-3.542c-1.913,0.011 -3.481,1.586 -3.483,3.499c-0.007,1.945 1.514,3.516 3.436,3.546c2.01,0.032 3.583,-1.502 3.592,-3.503m-15.058,-2.966c1.927,0.08 3.586,-1.395 3.711,-3.3c0.127,-1.927 -1.455,-3.657 -3.406,-3.724c-0.049,-0.002 -0.099,-0.003 -0.148,-0.003c-1.905,0 -3.491,1.525 -3.567,3.428c-0.079,1.857 1.495,3.519 3.41,3.599m18.432,15.95c-4.977,-2.934 -9.694,-5.686 -14.382,-8.488c-4.18,-2.498 -8.316,-5.071 -12.501,-7.563c-0.729,-0.434 -0.971,-0.961 -0.95,-1.745c0.029,-1.059 0.007,-2.119 0.007,-3.127c2.973,-1.734 4.089,-4.274 3.017,-7.042c-0.318,-0.823 -0.84,-1.844 -1.551,-2.182c-1.716,-0.816 -1.445,-2.178 -1.428,-3.556c0.016,-1.261 0.004,-2.523 0.004,-4.01c2.394,1.087 4.626,2.095 6.852,3.113c2.21,1.011 4.416,2.032 6.684,3.076c-0.397,1.462 -0.186,2.779 0.929,3.848c1.466,1.407 3.645,1.375 4.996,-0.201c0.548,-0.64 0.942,-0.623 1.596,-0.311c1.98,0.946 3.963,1.89 5.985,2.741c0.738,0.31 0.753,0.797 0.752,1.418c-0.009,7.155 -0.008,14.31 -0.01,21.465l0,2.564Zm11.237,-35.598c0,4.66 0.002,9.32 -0.001,13.98c-0.001,3.193 -0.045,6.387 0.002,9.58c0.026,1.787 -0.417,3.395 -1.444,4.839c-2.111,2.967 -5.051,4.892 -8.32,6.715c-0.026,-0.546 -0.056,-0.887 -0.056,-1.228c-0.003,-7.514 0.011,-15.029 -0.023,-22.543c-0.004,-0.846 0.263,-1.372 0.916,-1.902c3.362,-2.733 6.432,-5.747 8.926,-9.441m-37.659,-3.409l37.281,0c-0.579,1.259 -0.962,2.402 -1.587,3.392c-2.162,3.426 -5.124,6.112 -8.28,8.591c-0.224,0.176 -0.693,0.244 -0.955,0.136c-2.287,-0.943 -4.556,-1.929 -6.805,-2.96c-0.309,-0.143 -0.552,-0.633 -0.648,-1.008c-0.661,-2.578 -3.05,-3.612 -5.407,-2.329c-0.275,0.149 -0.703,0.288 -0.948,0.179c-4.249,-1.9 -8.479,-3.84 -12.714,-5.772l0.063,-0.229" style="fill:#231f20;fill-rule:nonzero;"/></g></svg>