<?xml version="1.0" encoding="UTF-8" standalone="no"?><!DOCTYPE svg PUBLIC "-//W3C//DTD SVG 1.1//EN" "http://www.w3.org/Graphics/SVG/1.1/DTD/svg11.dtd"><svg width="100%" height="100%" viewBox="0 0 72 72" version="1.1" xmlns="http://www.w3.org/2000/svg" xmlns:xlink="http://www.w3.org/1999/xlink" xml:space="preserve" xmlns:serif="http://www.serif.com/" style="fill-rule:evenodd;clip-rule:evenodd;stroke-linejoin:round;stroke-miterlimit:1.41421;"><g><path d="M44.415,61.148l-18.24,0l-1.92,-2.159l0,-28.801c0.997,-2.469 2.829,-3.411 5.47,-3.332c4.029,0.12 8.065,0.077 12.096,0.016c2.587,-0.04 4.591,2.263 4.56,4.505c-0.117,8.624 -0.089,17.25 -0.013,25.874c0.016,1.742 -0.466,3.015 -1.953,3.897" style="fill:#231f20;fill-rule:nonzero;"/><path d="M38.489,19.743c1.54,0.492 3.091,0.594 4.013,1.408c0.71,0.627 0.629,2.151 0.938,3.439l-15.855,0c0,-0.855 -0.075,-1.689 0.018,-2.504c0.13,-1.156 1.096,-1.824 2.538,-1.889c1.994,-0.09 1.983,-0.092 2.299,-2.13c0.324,-2.092 0.699,-4.175 1.004,-6.269c0.172,-1.188 0.796,-1.563 1.969,-1.552c1.176,0.011 1.644,0.525 1.808,1.601c0.419,2.756 0.881,5.506 1.268,7.896" style="fill:#231f20;fill-rule:nonzero;"/></g></svg>