<?xml version="1.0" encoding="UTF-8" standalone="no"?><!DOCTYPE svg PUBLIC "-//W3C//DTD SVG 1.1//EN" "http://www.w3.org/Graphics/SVG/1.1/DTD/svg11.dtd"><svg width="100%" height="100%" viewBox="0 0 72 72" version="1.1" xmlns="http://www.w3.org/2000/svg" xmlns:xlink="http://www.w3.org/1999/xlink" xml:space="preserve" xmlns:serif="http://www.serif.com/" style="fill-rule:evenodd;clip-rule:evenodd;stroke-linejoin:round;stroke-miterlimit:1.41421;"><path d="M35.547,19.942c3.52,0 7.039,0.012 10.558,-0.02c0.327,-0.002 0.651,-0.278 0.976,-0.426c-0.325,-0.207 -0.65,-0.592 -0.976,-0.594c-6.999,-0.035 -13.998,-0.035 -20.997,-0.004c-0.34,0.002 -0.679,0.352 -1.019,0.539c0.34,0.169 0.679,0.48 1.02,0.484c3.479,0.036 6.959,0.022 10.438,0.021m-0.013,1.104c-3.239,0 -6.478,-0.031 -9.716,0.034c-0.499,0.009 -1.195,0.329 -1.447,0.728c-1.47,2.323 -2.54,4.884 -2.603,7.624c-0.146,6.275 -0.135,12.556 -0.029,18.83c0.048,2.839 1.152,5.448 2.611,7.875c0.777,1.293 1.851,1.913 3.462,1.888c5.237,-0.083 10.477,-0.065 15.715,-0.008c1.404,0.015 2.395,-0.502 3.104,-1.637c1.568,-2.512 2.718,-5.224 2.789,-8.192c0.137,-5.635 0.057,-11.275 0.091,-16.913c0.02,-3.332 -1.003,-6.357 -2.549,-9.256c-0.385,-0.721 -0.872,-1.004 -1.71,-0.991c-3.238,0.048 -6.477,0.019 -9.718,0.018m-12.697,-3.635c0,-1.006 -0.117,-2.033 0.061,-3.007c0.068,-0.375 0.795,-0.865 1.246,-0.892c1.753,-0.103 3.514,-0.043 5.273,-0.043c5.716,0 11.432,0 17.147,0.002c1.611,0 1.781,0.157 1.759,1.791c-0.009,0.695 -0.121,1.388 -0.209,2.327c0.702,0.691 1.06,1.732 0.525,3.011c-0.11,0.262 0.04,0.697 0.189,0.991c1.695,3.334 2.548,6.833 2.476,10.602c-0.095,4.994 -0.001,9.991 -0.031,14.987c-0.023,3.555 -1.075,6.831 -2.899,9.862c-1.185,1.969 -2.88,2.938 -5.257,2.901c-5.074,-0.078 -10.151,-0.062 -15.227,-0.006c-2.118,0.024 -3.725,-0.794 -4.861,-2.52c-1.997,-3.038 -3.133,-6.403 -3.195,-10.03c-0.096,-5.593 -0.066,-11.191 -0.009,-16.786c0.032,-3.133 1.049,-6.034 2.383,-8.842c0.21,-0.476 0.263,-1.008 0.15,-1.516c-0.283,-1.143 0.043,-2.036 0.919,-2.802l-0.44,-0.03" style="fill:#231f20;fill-rule:nonzero;"/><rect x="23.401" y="31.686" width="24.367" height="14.835" style="fill:#231f20;"/></svg>