<?xml version="1.0" encoding="UTF-8" standalone="no"?><!DOCTYPE svg PUBLIC "-//W3C//DTD SVG 1.1//EN" "http://www.w3.org/Graphics/SVG/1.1/DTD/svg11.dtd"><svg width="100%" height="100%" viewBox="0 0 72 72" version="1.1" xmlns="http://www.w3.org/2000/svg" xmlns:xlink="http://www.w3.org/1999/xlink" xml:space="preserve" xmlns:serif="http://www.serif.com/" style="fill-rule:evenodd;clip-rule:evenodd;stroke-linejoin:round;stroke-miterlimit:1.41421;"><path id="Pain-Classique" serif:id="Pain Classique" d="M30.211,49.585c1.031,-3.23 -0.189,-6.687 -2.951,-8.744c-2.753,-2.051 -5.919,-2.414 -9.553,-2.125c0.864,-1.342 1.494,-2.525 2.315,-3.556c2.925,-3.675 1.708,-3.504 6.917,-3.135c4.103,0.291 7.667,1.92 10.209,5.287c0.8,1.059 1.325,2.327 1.957,3.466c1.101,-2.808 -0.35,-6.757 -3.33,-8.753c-3.106,-2.079 -6.545,-2.368 -10.128,-1.721c-0.505,0.091 -1.005,0.209 -1.507,0.315l-0.204,-0.298c2.067,-1.664 4.222,-3.232 6.181,-5.016c2.534,-2.309 5.317,-2.28 8.349,-1.409c4.683,1.344 6.735,3.126 9.406,8.367c2.132,-5.155 -2.769,-10.318 -10.459,-11.2c2.035,-0.596 4.047,-1.305 6.114,-1.759c2.472,-0.542 4.99,-0.606 7.453,0.16c4.05,1.26 6.041,4.876 5.304,9.506c-0.776,4.87 -3.223,8.911 -6.35,12.561c-5.358,6.253 -11.812,10.937 -19.805,13.28c-3.139,0.92 -6.324,1.366 -9.526,0.316c-4.225,-1.385 -5.697,-4.694 -5.426,-8.405c0.126,-1.718 0.805,-3.391 1.193,-5.095c0.23,-1.01 0.897,-1.198 1.772,-1.066c5.546,0.837 10.058,3.089 12.069,9.024" style="fill:#231f20;fill-rule:nonzero;"/></svg>