<?xml version="1.0" encoding="UTF-8" standalone="no"?><!DOCTYPE svg PUBLIC "-//W3C//DTD SVG 1.1//EN" "http://www.w3.org/Graphics/SVG/1.1/DTD/svg11.dtd"><svg width="100%" height="100%" viewBox="0 0 72 72" version="1.1" xmlns="http://www.w3.org/2000/svg" xmlns:xlink="http://www.w3.org/1999/xlink" xml:space="preserve" xmlns:serif="http://www.serif.com/" style="fill-rule:evenodd;clip-rule:evenodd;stroke-miterlimit:10;"><path id="Pain-sans-gluten" serif:id="Pain sans gluten" d="M30.832,49.585c-2.012,-5.935 -6.523,-8.187 -12.07,-9.024c-0.874,-0.132 -1.541,0.056 -1.772,1.066c-0.387,1.704 -1.067,3.377 -1.192,5.095c-0.272,3.711 1.201,7.02 5.426,8.405c3.202,1.05 6.386,0.604 9.526,-0.316c7.992,-2.343 14.446,-7.027 19.804,-13.28c3.128,-3.65 5.575,-7.691 6.35,-12.561c0.738,-4.63 -1.254,-8.246 -5.304,-9.506c-2.462,-0.766 -4.981,-0.702 -7.453,-0.16c-2.067,0.454 -4.078,1.163 -6.114,1.759c7.691,0.882 12.591,6.045 10.459,11.2c-2.671,-5.241 -4.722,-7.023 -9.405,-8.367c-3.032,-0.871 -5.816,-0.9 -8.35,1.409c-1.958,1.784 -4.113,3.352 -6.18,5.016l0.203,0.298c0.503,-0.106 1.003,-0.224 1.508,-0.315c3.582,-0.647 7.022,-0.358 10.127,1.721c2.981,1.996 4.431,5.945 3.331,8.753c-0.633,-1.139 -1.157,-2.407 -1.957,-3.466c-2.543,-3.367 -6.107,-4.996 -10.209,-5.287c-5.21,-0.369 -3.992,-0.54 -6.917,3.135c-0.822,1.031 -1.452,2.214 -2.316,3.556c3.635,-0.289 6.801,0.074 9.554,2.125c2.762,2.057 3.982,5.514 2.951,8.744" style="fill:#fff;fill-rule:nonzero;"/><clipPath id="_clip1"><path d="M30.832,49.585c-2.012,-5.935 -6.523,-8.187 -12.07,-9.024c-0.874,-0.132 -1.541,0.056 -1.772,1.066c-0.387,1.704 -1.067,3.377 -1.192,5.095c-0.272,3.711 1.201,7.02 5.426,8.405c3.202,1.05 6.386,0.604 9.526,-0.316c7.992,-2.343 14.446,-7.027 19.804,-13.28c3.128,-3.65 5.575,-7.691 6.35,-12.561c0.738,-4.63 -1.254,-8.246 -5.304,-9.506c-2.462,-0.766 -4.981,-0.702 -7.453,-0.16c-2.067,0.454 -4.078,1.163 -6.114,1.759c7.691,0.882 12.591,6.045 10.459,11.2c-2.671,-5.241 -4.722,-7.023 -9.405,-8.367c-3.032,-0.871 -5.816,-0.9 -8.35,1.409c-1.958,1.784 -4.113,3.352 -6.18,5.016l0.203,0.298c0.503,-0.106 1.003,-0.224 1.508,-0.315c3.582,-0.647 7.022,-0.358 10.127,1.721c2.981,1.996 4.431,5.945 3.331,8.753c-0.633,-1.139 -1.157,-2.407 -1.957,-3.466c-2.543,-3.367 -6.107,-4.996 -10.209,-5.287c-5.21,-0.369 -3.992,-0.54 -6.917,3.135c-0.822,1.031 -1.452,2.214 -2.316,3.556c3.635,-0.289 6.801,0.074 9.554,2.125c2.762,2.057 3.982,5.514 2.951,8.744"/></clipPath><g clip-path="url(#_clip1)"><path d="M30.832,49.585c1.031,-3.23 -0.189,-6.687 -2.951,-8.744c-2.753,-2.051 -5.919,-2.414 -9.554,-2.125c0.864,-1.342 1.494,-2.525 2.316,-3.556c2.925,-3.675 1.707,-3.504 6.917,-3.135c4.102,0.291 7.666,1.92 10.209,5.287c0.8,1.059 1.324,2.327 1.957,3.466c1.1,-2.808 -0.35,-6.757 -3.331,-8.753c-3.105,-2.079 -6.545,-2.368 -10.127,-1.721c-0.505,0.091 -1.005,0.209 -1.508,0.315c-0.068,-0.099 -0.136,-0.198 -0.203,-0.298c2.067,-1.664 4.222,-3.232 6.18,-5.016c2.534,-2.309 5.318,-2.28 8.35,-1.409c4.683,1.344 6.734,3.126 9.405,8.367c2.132,-5.155 -2.768,-10.318 -10.459,-11.2c2.036,-0.596 4.047,-1.305 6.114,-1.759c2.472,-0.542 4.991,-0.606 7.453,0.16c4.05,1.26 6.042,4.876 5.304,9.506c-0.775,4.87 -3.222,8.911 -6.35,12.561c-5.358,6.253 -11.812,10.937 -19.804,13.28c-3.14,0.92 -6.324,1.366 -9.526,0.316c-4.225,-1.385 -5.698,-4.694 -5.426,-8.405c0.125,-1.718 0.805,-3.391 1.192,-5.095c0.231,-1.01 0.898,-1.198 1.772,-1.066c5.547,0.837 10.058,3.089 12.07,9.024Z" style="fill:none;stroke:#231f20;stroke-width:1px;"/></g></svg>