<?xml version="1.0" encoding="UTF-8" standalone="no"?><!DOCTYPE svg PUBLIC "-//W3C//DTD SVG 1.1//EN" "http://www.w3.org/Graphics/SVG/1.1/DTD/svg11.dtd"><svg width="100%" height="100%" viewBox="0 0 72 72" version="1.1" xmlns="http://www.w3.org/2000/svg" xmlns:xlink="http://www.w3.org/1999/xlink" xml:space="preserve" xmlns:serif="http://www.serif.com/" style="fill-rule:evenodd;clip-rule:evenodd;stroke-miterlimit:10;"><path id="Pain-Pavot" serif:id="Pain Pavot" d="M56.609,25.422l0,3.6c-0.605,1.806 -0.998,3.719 -1.851,5.399c-4.648,9.157 -12.006,15.401 -21.389,19.325c-3.595,1.504 -7.335,2.394 -11.299,1.681c-3.595,-0.647 -5.877,-2.921 -6.564,-6.503c-0.374,-1.957 -0.035,-3.831 0.559,-5.65c1.089,-3.335 0.554,-3.089 3.853,-2.454c4.912,0.945 8.74,3.414 10.409,8.45c0.013,0.04 0.13,0.045 0.491,0.157c-0.095,-1.463 0.029,-2.879 -0.313,-4.171c-0.99,-3.742 -3.814,-5.584 -7.377,-6.352c-1.595,-0.344 -3.277,-0.286 -5.089,-0.423c0.707,-1.092 1.32,-2.111 2.003,-3.082c2.595,-3.692 3.407,-4.032 7.857,-3.376c0.355,0.052 0.71,0.118 1.06,0.199c4.754,1.103 8.451,3.495 10.127,8.337c0.052,0.151 0.047,0.321 0.069,0.483l0.512,-0.294c-0.093,-1.331 0.028,-2.721 -0.316,-3.984c-1.096,-4.032 -4.108,-6.017 -8.015,-6.533c-2.288,-0.302 -4.654,-0.014 -7.132,0.009c2.12,-1.697 4.319,-3.393 6.444,-5.177c1.905,-1.6 3.968,-2.108 6.424,-1.581c4.963,1.065 8.948,3.297 10.781,8.358c0.052,0.144 0.165,0.267 0.287,0.457c1.309,-4.341 -1.446,-10.66 -10.64,-11.006c0.524,-0.238 0.856,-0.445 1.217,-0.544c2.183,-0.598 4.342,-1.418 6.568,-1.701c4.561,-0.579 9.854,0.26 11.324,6.376" style="fill:#231f20;fill-rule:nonzero;"/><g><clipPath id="_clip1"><path d="M56.609,25.422l0,3.6c-0.605,1.806 -0.998,3.719 -1.851,5.399c-4.648,9.157 -12.006,15.401 -21.389,19.325c-3.595,1.504 -7.335,2.394 -11.299,1.681c-3.595,-0.647 -5.877,-2.921 -6.564,-6.503c-0.374,-1.957 -0.035,-3.831 0.559,-5.65c1.089,-3.335 0.554,-3.089 3.853,-2.454c4.912,0.945 8.74,3.414 10.409,8.45c0.013,0.04 0.13,0.045 0.491,0.157c-0.095,-1.463 0.029,-2.879 -0.313,-4.171c-0.99,-3.742 -3.814,-5.584 -7.377,-6.352c-1.595,-0.344 -3.277,-0.286 -5.089,-0.423c0.707,-1.092 1.32,-2.111 2.003,-3.082c2.595,-3.692 3.407,-4.032 7.857,-3.376c0.355,0.052 0.71,0.118 1.06,0.199c4.754,1.103 8.451,3.495 10.127,8.337c0.052,0.151 0.047,0.321 0.069,0.483l0.512,-0.294c-0.093,-1.331 0.028,-2.721 -0.316,-3.984c-1.096,-4.032 -4.108,-6.017 -8.015,-6.533c-2.288,-0.302 -4.654,-0.014 -7.132,0.009c2.12,-1.697 4.319,-3.393 6.444,-5.177c1.905,-1.6 3.968,-2.108 6.424,-1.581c4.963,1.065 8.948,3.297 10.781,8.358c0.052,0.144 0.165,0.267 0.287,0.457c1.309,-4.341 -1.446,-10.66 -10.64,-11.006c0.524,-0.238 0.856,-0.445 1.217,-0.544c2.183,-0.598 4.342,-1.418 6.568,-1.701c4.561,-0.579 9.854,0.26 11.324,6.376"/></clipPath><g clip-path="url(#_clip1)"><path d="M32.932,37.007c0,0.641 -0.498,1.161 -1.112,1.161c-0.615,0 -1.112,-0.52 -1.112,-1.161c0,-0.641 0.497,-1.161 1.112,-1.161c0.614,0 1.112,0.52 1.112,1.161" style="fill:#fff;fill-rule:nonzero;"/><path d="M32.932,37.007c0,-0.64 -0.499,-1.161 -1.112,-1.161c-0.614,0 -1.112,0.521 -1.112,1.161c0,0.641 0.498,1.161 1.112,1.161c0.613,0 1.112,-0.52 1.112,-1.161Z" style="fill:none;stroke:#231f20;stroke-width:0.5px;"/><path d="M25.375,36.16c0,0.641 -0.498,1.161 -1.112,1.161c-0.614,0 -1.112,-0.52 -1.112,-1.161c0,-0.641 0.498,-1.161 1.112,-1.161c0.614,0 1.112,0.52 1.112,1.161" style="fill:#fff;fill-rule:nonzero;"/><path d="M25.375,36.16c0,-0.641 -0.498,-1.161 -1.112,-1.161c-0.613,0 -1.112,0.52 -1.112,1.161c0,0.641 0.499,1.161 1.112,1.161c0.614,0 1.112,-0.52 1.112,-1.161Z" style="fill:none;stroke:#231f20;stroke-width:0.5px;"/><path d="M43.946,35.194c0,0.641 -0.498,1.161 -1.112,1.161c-0.615,0 -1.112,-0.52 -1.112,-1.161c0,-0.641 0.497,-1.161 1.112,-1.161c0.614,0 1.112,0.52 1.112,1.161" style="fill:#fff;fill-rule:nonzero;"/><path d="M43.946,35.194c0,-0.641 -0.499,-1.161 -1.112,-1.161c-0.614,0 -1.112,0.52 -1.112,1.161c0,0.64 0.498,1.161 1.112,1.161c0.613,0 1.112,-0.521 1.112,-1.161Z" style="fill:none;stroke:#231f20;stroke-width:0.5px;"/><path d="M42.392,28.731c0,0.641 -0.498,1.161 -1.112,1.161c-0.615,0 -1.113,-0.52 -1.113,-1.161c0,-0.641 0.498,-1.161 1.113,-1.161c0.614,0 1.112,0.52 1.112,1.161" style="fill:#fff;fill-rule:nonzero;"/><path d="M42.392,28.731c0,-0.641 -0.499,-1.161 -1.113,-1.161c-0.614,0 -1.112,0.52 -1.112,1.161c0,0.64 0.498,1.161 1.112,1.161c0.614,0 1.113,-0.521 1.113,-1.161Z" style="fill:none;stroke:#231f20;stroke-width:0.5px;"/><path d="M36.174,27.325c0,0.641 -0.498,1.161 -1.112,1.161c-0.615,0 -1.113,-0.52 -1.113,-1.161c0,-0.641 0.498,-1.161 1.113,-1.161c0.614,0 1.112,0.52 1.112,1.161" style="fill:#fff;fill-rule:nonzero;"/><path d="M36.174,27.325c0,-0.641 -0.498,-1.161 -1.112,-1.161c-0.614,0 -1.113,0.52 -1.113,1.161c0,0.641 0.499,1.161 1.113,1.161c0.614,0 1.112,-0.52 1.112,-1.161Z" style="fill:none;stroke:#231f20;stroke-width:0.5px;"/><path d="M34.783,46.565c0,0.641 -0.498,1.161 -1.112,1.161c-0.614,0 -1.112,-0.52 -1.112,-1.161c0,-0.641 0.498,-1.161 1.112,-1.161c0.614,0 1.112,0.52 1.112,1.161" style="fill:#fff;fill-rule:nonzero;"/><path d="M34.783,46.565c0,-0.641 -0.498,-1.161 -1.112,-1.161c-0.614,0 -1.112,0.52 -1.112,1.161c0,0.64 0.498,1.161 1.112,1.161c0.614,0 1.112,-0.521 1.112,-1.161Z" style="fill:none;stroke:#231f20;stroke-width:0.5px;"/><path d="M51.963,24.477c0,0.641 -0.498,1.161 -1.112,1.161c-0.615,0 -1.112,-0.52 -1.112,-1.161c0,-0.641 0.497,-1.161 1.112,-1.161c0.614,0 1.112,0.52 1.112,1.161" style="fill:#fff;fill-rule:nonzero;"/><path d="M51.963,24.477c0,-0.641 -0.498,-1.161 -1.112,-1.161c-0.614,0 -1.112,0.52 -1.112,1.161c0,0.641 0.498,1.161 1.112,1.161c0.614,0 1.112,-0.52 1.112,-1.161Z" style="fill:none;stroke:#231f20;stroke-width:0.5px;"/><path d="M22.594,47.628c0,0.641 -0.498,1.161 -1.112,1.161c-0.615,0 -1.112,-0.52 -1.112,-1.161c0,-0.641 0.497,-1.161 1.112,-1.161c0.614,0 1.112,0.52 1.112,1.161" style="fill:#fff;fill-rule:nonzero;"/><path d="M22.594,47.628c0,-0.641 -0.498,-1.161 -1.112,-1.161c-0.614,0 -1.112,0.52 -1.112,1.161c0,0.641 0.498,1.161 1.112,1.161c0.614,0 1.112,-0.52 1.112,-1.161Z" style="fill:none;stroke:#231f20;stroke-width:0.5px;"/><path d="M19.322,44.111c0,0.641 -0.498,1.16 -1.112,1.16c-0.614,0 -1.112,-0.519 -1.112,-1.16c0,-0.641 0.498,-1.161 1.112,-1.161c0.614,0 1.112,0.52 1.112,1.161" style="fill:#fff;fill-rule:nonzero;"/><path d="M19.322,44.11c0,-0.64 -0.499,-1.16 -1.112,-1.16c-0.614,0 -1.112,0.52 -1.112,1.16c0,0.641 0.498,1.161 1.112,1.161c0.613,0 1.112,-0.52 1.112,-1.161Z" style="fill:none;stroke:#231f20;stroke-width:0.5px;"/><path d="M47.218,21.532c0,0.641 -0.498,1.16 -1.112,1.16c-0.615,0 -1.113,-0.519 -1.113,-1.16c0,-0.641 0.498,-1.161 1.113,-1.161c0.614,0 1.112,0.52 1.112,1.161" style="fill:#fff;fill-rule:nonzero;"/><path d="M47.218,21.531c0,-0.64 -0.498,-1.16 -1.112,-1.16c-0.614,0 -1.113,0.52 -1.113,1.16c0,0.641 0.499,1.161 1.113,1.161c0.614,0 1.112,-0.52 1.112,-1.161Z" style="fill:none;stroke:#231f20;stroke-width:0.5px;"/><path d="M37.646,40.838c0,0.641 -0.498,1.161 -1.112,1.161c-0.614,0 -1.112,-0.52 -1.112,-1.161c0,-0.641 0.498,-1.161 1.112,-1.161c0.614,0 1.112,0.52 1.112,1.161" style="fill:#fff;fill-rule:nonzero;"/><path d="M37.646,40.838c0,-0.641 -0.498,-1.161 -1.112,-1.161c-0.613,0 -1.112,0.52 -1.112,1.161c0,0.641 0.499,1.161 1.112,1.161c0.614,0 1.112,-0.52 1.112,-1.161Z" style="fill:none;stroke:#231f20;stroke-width:0.5px;"/><path d="M27.502,46.401c0,0.641 -0.498,1.161 -1.112,1.161c-0.614,0 -1.112,-0.52 -1.112,-1.161c0,-0.641 0.498,-1.161 1.112,-1.161c0.614,0 1.112,0.52 1.112,1.161" style="fill:#fff;fill-rule:nonzero;"/><path d="M27.502,46.401c0,-0.641 -0.498,-1.161 -1.112,-1.161c-0.613,0 -1.112,0.52 -1.112,1.161c0,0.641 0.499,1.161 1.112,1.161c0.614,0 1.112,-0.52 1.112,-1.161Z" style="fill:none;stroke:#231f20;stroke-width:0.5px;"/><path d="M52.372,31.348c0,0.641 -0.498,1.161 -1.112,1.161c-0.615,0 -1.113,-0.52 -1.113,-1.161c0,-0.641 0.498,-1.16 1.113,-1.16c0.614,0 1.112,0.519 1.112,1.16" style="fill:#fff;fill-rule:nonzero;"/><path d="M52.372,31.349c0,-0.641 -0.499,-1.161 -1.113,-1.161c-0.614,0 -1.112,0.52 -1.112,1.161c0,0.64 0.498,1.16 1.112,1.16c0.614,0 1.113,-0.52 1.113,-1.16Z" style="fill:none;stroke:#231f20;stroke-width:0.5px;"/></g></g></svg>