<?xml version="1.0" encoding="UTF-8" standalone="no"?><!DOCTYPE svg PUBLIC "-//W3C//DTD SVG 1.1//EN" "http://www.w3.org/Graphics/SVG/1.1/DTD/svg11.dtd"><svg width="100%" height="100%" viewBox="0 0 72 72" version="1.1" xmlns="http://www.w3.org/2000/svg" xmlns:xlink="http://www.w3.org/1999/xlink" xml:space="preserve" xmlns:serif="http://www.serif.com/" style="fill-rule:evenodd;clip-rule:evenodd;stroke-miterlimit:10;"><path id="Pain-Céréales" serif:id="Pain Céréales" d="M57.165,25.422l0,3.6c-0.605,1.806 -0.998,3.719 -1.851,5.399c-4.648,9.157 -12.005,15.401 -21.388,19.325c-3.596,1.504 -7.336,2.394 -11.299,1.681c-3.596,-0.647 -5.878,-2.921 -6.565,-6.503c-0.374,-1.957 -0.035,-3.831 0.559,-5.65c1.09,-3.335 0.554,-3.089 3.853,-2.454c4.912,0.945 8.741,3.414 10.409,8.45c0.013,0.04 0.13,0.045 0.492,0.157c-0.096,-1.463 0.028,-2.879 -0.314,-4.171c-0.99,-3.742 -3.814,-5.584 -7.376,-6.352c-1.596,-0.344 -3.278,-0.286 -5.09,-0.423c0.707,-1.092 1.32,-2.111 2.003,-3.082c2.595,-3.692 3.407,-4.032 7.857,-3.376c0.356,0.052 0.71,0.118 1.06,0.199c4.754,1.103 8.451,3.495 10.127,8.337c0.052,0.151 0.047,0.321 0.069,0.483l0.512,-0.294c-0.092,-1.331 0.028,-2.721 -0.316,-3.984c-1.096,-4.032 -4.107,-6.017 -8.014,-6.533c-2.289,-0.302 -4.655,-0.014 -7.133,0.009c2.121,-1.697 4.319,-3.393 6.444,-5.177c1.905,-1.6 3.968,-2.108 6.424,-1.581c4.964,1.065 8.948,3.297 10.781,8.358c0.053,0.144 0.165,0.267 0.287,0.457c1.309,-4.341 -1.445,-10.66 -10.639,-11.006c0.523,-0.238 0.855,-0.445 1.216,-0.544c2.183,-0.598 4.342,-1.418 6.568,-1.701c4.561,-0.579 9.854,0.26 11.324,6.376" style="fill:#231f20;fill-rule:nonzero;"/><g><clipPath id="_clip1"><path d="M57.165,25.422l0,3.6c-0.605,1.806 -0.998,3.719 -1.851,5.399c-4.648,9.157 -12.005,15.401 -21.388,19.325c-3.596,1.504 -7.336,2.394 -11.299,1.681c-3.596,-0.647 -5.878,-2.921 -6.565,-6.503c-0.374,-1.957 -0.035,-3.831 0.559,-5.65c1.09,-3.335 0.554,-3.089 3.853,-2.454c4.912,0.945 8.741,3.414 10.409,8.45c0.013,0.04 0.13,0.045 0.492,0.157c-0.096,-1.463 0.028,-2.879 -0.314,-4.171c-0.99,-3.742 -3.814,-5.584 -7.376,-6.352c-1.596,-0.344 -3.278,-0.286 -5.09,-0.423c0.707,-1.092 1.32,-2.111 2.003,-3.082c2.595,-3.692 3.407,-4.032 7.857,-3.376c0.356,0.052 0.71,0.118 1.06,0.199c4.754,1.103 8.451,3.495 10.127,8.337c0.052,0.151 0.047,0.321 0.069,0.483l0.512,-0.294c-0.092,-1.331 0.028,-2.721 -0.316,-3.984c-1.096,-4.032 -4.107,-6.017 -8.014,-6.533c-2.289,-0.302 -4.655,-0.014 -7.133,0.009c2.121,-1.697 4.319,-3.393 6.444,-5.177c1.905,-1.6 3.968,-2.108 6.424,-1.581c4.964,1.065 8.948,3.297 10.781,8.358c0.053,0.144 0.165,0.267 0.287,0.457c1.309,-4.341 -1.445,-10.66 -10.639,-11.006c0.523,-0.238 0.855,-0.445 1.216,-0.544c2.183,-0.598 4.342,-1.418 6.568,-1.701c4.561,-0.579 9.854,0.26 11.324,6.376"/></clipPath><g clip-path="url(#_clip1)"><path d="M22.974,35.137l3.857,0.084" style="fill:#231f20;fill-rule:nonzero;stroke:#fff;stroke-width:1px;"/><path d="M32.367,37.15l0,4.612m1.844,2.097l5.703,0m3.774,-14.844l0,4.025m-10.064,-7.295l2.517,1.509m14.508,-3.354l0,4.948m-4.445,-7.632l4.612,0m-3.27,14.341l-4.361,0.419m-19.792,11.321l1.594,2.097m-4.361,-6.122l-1.091,5.535m16.27,-19.456l4.193,0" style="fill:none;stroke:#fff;stroke-width:1px;"/></g></g></svg>