<?xml version="1.0" encoding="UTF-8" standalone="no"?><!DOCTYPE svg PUBLIC "-//W3C//DTD SVG 1.1//EN" "http://www.w3.org/Graphics/SVG/1.1/DTD/svg11.dtd"><svg width="100%" height="100%" viewBox="0 0 72 72" version="1.1" xmlns="http://www.w3.org/2000/svg" xmlns:xlink="http://www.w3.org/1999/xlink" xml:space="preserve" xmlns:serif="http://www.serif.com/" style="fill-rule:evenodd;clip-rule:evenodd;stroke-linejoin:round;stroke-miterlimit:1.41421;"><path d="M61.734,19.333c-2.023,1.029 -2.929,2.938 -3.74,4.879c-0.394,0.941 -0.595,1.966 -0.842,2.963c-0.383,1.541 0.806,2.453 1.471,3.576c0.799,1.337 1.572,2.69 2.318,4.058c0.097,0.179 -0.084,0.518 -0.158,0.777c-0.815,2.818 -2.384,5.209 -4.133,7.525c-1.753,2.32 -3.498,4.66 -6.031,6.158c-2.034,1.202 -4.178,2.248 -6.351,3.18c-2.638,1.133 -5.355,2.087 -8.05,3.086c-0.483,0.172 -0.991,0.261 -1.504,0.263c-2.919,0.025 -5.852,0.181 -8.755,-0.034c-2.899,-0.214 -5.779,-0.758 -8.647,-1.265c-1.432,-0.254 -2.85,-0.666 -4.221,-1.16c-1.338,-0.482 -1.764,-1.342 -1.753,-2.716c0.009,-0.968 0.64,-1.323 1.292,-0.947c3.985,2.296 7.825,0.505 11.707,-0.273c3.434,-0.687 6.051,-2.779 8.604,-4.987c1.589,-1.374 3.202,-2.721 4.769,-4.121c0.465,-0.416 0.906,-0.917 1.195,-1.465c1.216,-2.308 2.356,-4.654 3.551,-6.972c0.636,-1.234 1.174,-2.569 2.049,-3.612c0.533,-0.636 1.605,-0.859 2.473,-1.154c0.419,-0.143 0.928,-0.025 1.591,-0.025c-0.087,0.374 -0.058,0.903 -0.26,1.016c-2.236,1.242 -2.593,3.667 -3.576,5.668c-0.807,1.643 -1.367,3.406 -1.823,5.247c0.448,-0.653 0.892,-1.308 1.345,-1.957c2.213,-3.172 4.416,-6.351 6.66,-9.501c0.239,-0.335 0.76,-0.755 1.075,-0.7c1.101,0.192 1.86,-0.365 2.308,-1.129c0.879,-1.487 1.635,-3.043 2.261,-4.653c0.488,-1.267 0.663,-2.653 1.025,-3.973c0.087,-0.317 0.362,-0.583 0.55,-0.872l3.6,0l0,3.12Z" style="fill:#231f20;fill-rule:nonzero;"/></svg>