<?xml version="1.0" encoding="UTF-8" standalone="no"?><!DOCTYPE svg PUBLIC "-//W3C//DTD SVG 1.1//EN" "http://www.w3.org/Graphics/SVG/1.1/DTD/svg11.dtd"><svg width="100%" height="100%" viewBox="0 0 72 72" version="1.1" xmlns="http://www.w3.org/2000/svg" xmlns:xlink="http://www.w3.org/1999/xlink" xml:space="preserve" xmlns:serif="http://www.serif.com/" style="fill-rule:evenodd;clip-rule:evenodd;stroke-miterlimit:10;"><g><path d="M32.985,44.495c0.486,-0.277 0.903,-0.506 1.31,-0.75c6.259,-3.765 12.461,-7.63 18.804,-11.246c2.279,-1.3 3.809,-2.829 4.25,-5.444c0.118,-0.706 0.11,-1.152 -0.451,-1.658c-3.56,-3.211 -7.232,-6.318 -10.567,-9.751c-1.867,-1.921 -3.507,-2.39 -5.682,-0.903c-0.533,0.363 -1.242,0.68 -1.5,1.201c-3.769,7.614 -7.468,15.263 -11.209,22.89c-0.283,0.576 -0.207,0.91 0.256,1.32c1.585,1.401 3.137,2.838 4.789,4.341m-0.363,2.708c-2.389,-2.18 -4.855,-4.393 -7.254,-6.676c-0.234,-0.222 -0.215,-0.956 -0.041,-1.323c2.059,-4.326 4.171,-8.626 6.266,-12.935c1.921,-3.95 3.814,-7.913 5.784,-11.837c0.271,-0.541 0.841,-1.041 1.395,-1.307c1.508,-0.723 3.094,-1.281 4.622,-1.965c0.587,-0.263 0.979,-0.246 1.478,0.213c4.911,4.521 9.854,9.011 14.759,13.54c0.246,0.227 0.389,0.787 0.299,1.115c-0.506,1.804 -1.058,3.595 -1.657,5.371c-0.115,0.345 -0.38,0.726 -0.685,0.91c-8.239,4.979 -16.492,9.935 -24.745,14.892c-0.028,0.017 -0.076,0.002 -0.221,0.002m0.507,1.875l-3.375,3.689l-10.072,-9.211l3.375,-3.697l10.072,9.219" style="fill:#231f20;fill-rule:nonzero;"/><path d="M22.473,58.704c-0.803,0.605 -1.323,1.301 -1.775,1.259c-0.487,-0.046 -0.909,-0.782 -1.358,-1.217c0.438,-0.448 0.839,-1.193 1.327,-1.256c0.446,-0.057 0.986,0.626 1.806,1.214Zm-7.009,-2.882c-0.552,-0.824 -1.083,-1.276 -1.136,-1.778c-0.076,-0.731 0.503,-1.391 1.25,-1.208c0.502,0.123 1.173,0.792 1.204,1.255c0.03,0.441 -0.671,0.932 -1.318,1.731Zm5.193,-7.477c-0.457,0.346 -0.874,0.89 -1.378,0.99c-0.782,0.156 -1.391,-0.45 -1.273,-1.191c0.078,-0.486 0.703,-1.191 1.133,-1.229c0.474,-0.042 1.005,0.569 1.511,0.895l0.007,0.535Zm3.855,1.962c-0.834,0.636 -1.358,1.336 -1.796,1.286c-0.463,-0.053 -1.079,-0.775 -1.177,-1.29c-0.061,-0.317 0.708,-1.101 1.131,-1.122c0.481,-0.023 0.992,0.571 1.842,1.126Zm-10.416,7.719c0.359,0.484 1.055,1.021 0.99,1.439c-0.076,0.494 -0.763,1.13 -1.279,1.231c-0.323,0.062 -1.113,-0.718 -1.153,-1.168c-0.041,-0.468 0.568,-0.993 0.893,-1.494l0.549,-0.008Zm13.12,-4.631c-0.455,0.342 -0.875,0.895 -1.373,0.977c-0.738,0.12 -1.395,-0.423 -1.258,-1.195c0.084,-0.469 0.697,-1.141 1.118,-1.177c0.474,-0.039 1,0.535 1.503,0.841l0.01,0.554Zm-5.256,1.543c-0.454,0.321 -0.875,0.832 -1.37,0.922c-0.785,0.14 -1.285,-0.448 -1.279,-1.208c0.006,-0.753 0.485,-1.351 1.291,-1.18c0.497,0.106 0.911,0.6 1.362,0.919l-0.004,0.547Z" style="fill-rule:nonzero;stroke:#231f20;stroke-width:1px;"/><path d="M33.213,41.489l-2.672,-2.458c0.799,-1.654 1.589,-3.299 2.385,-4.939c1.133,-2.332 2.212,-4.695 3.444,-6.974c0.333,-0.616 1.064,-1.18 1.736,-1.418c1.688,-0.6 3.407,-0.315 5.017,0.39c3.649,1.596 7.412,2.071 11.619,1.481c-0.361,0.576 -0.584,1.376 -1.102,1.693c-6.676,4.086 -13.392,8.103 -20.1,12.135c-0.065,0.039 -0.151,0.043 -0.327,0.09" style="fill:#231f20;fill-rule:nonzero;"/></g></svg>