<?xml version="1.0" encoding="UTF-8" standalone="no"?><!DOCTYPE svg PUBLIC "-//W3C//DTD SVG 1.1//EN" "http://www.w3.org/Graphics/SVG/1.1/DTD/svg11.dtd"><svg width="100%" height="100%" viewBox="0 0 72 72" version="1.1" xmlns="http://www.w3.org/2000/svg" xmlns:xlink="http://www.w3.org/1999/xlink" xml:space="preserve" xmlns:serif="http://www.serif.com/" style="fill-rule:evenodd;clip-rule:evenodd;stroke-linejoin:round;stroke-miterlimit:1.41421;"><g><path d="M13.974,35.713c0.1,-0.717 0.239,-1.399 0.264,-2.085c0.008,-0.218 -0.258,-0.591 -0.456,-0.635c-0.252,-0.056 -0.746,0.078 -0.815,0.255c-0.255,0.671 -0.434,1.369 -0.534,2.08c-0.027,0.18 0.28,0.536 0.491,0.591c0.257,0.066 0.574,-0.1 1.05,-0.206m6.92,-2.989c0.846,-0.764 1.516,-1.61 1.685,-2.753c0.219,-1.475 -0.582,-2.373 -2.084,-2.349c-2.302,0.037 -5.12,2.271 -5.662,4.488c-0.389,1.59 0.633,2.743 2.264,2.548c1.512,-0.18 2.797,-0.809 3.797,-1.934m36.282,1.406c0.172,-0.172 0.417,-0.364 0.595,-0.606c0.482,-0.654 0.6,-1.387 0.188,-2.097c-0.433,-0.747 -1.181,-1.017 -2,-0.901c-0.778,0.11 -1.402,0.463 -1.505,1.393c-0.022,0.207 -0.302,0.47 -0.522,0.556c-0.559,0.219 -1.146,0.369 -1.729,0.517c-1.965,0.5 -3.933,0.987 -5.944,1.491l0.171,2.06c0.256,-0.023 0.453,-0.045 0.649,-0.057l6.091,-0.347c1.172,-0.066 2.14,0.208 2.533,1.484c0.039,0.126 0.173,0.225 0.271,0.33c0.852,0.91 2.012,1.069 2.747,0.378c0.81,-0.762 0.838,-2.177 -0.003,-3.004c-0.454,-0.447 -1.01,-0.79 -1.542,-1.197m-42.343,-5.082c1.13,-0.602 2.216,-1.312 3.398,-1.784c2.386,-0.954 4.856,-0.77 7.289,-0.162c3.324,0.822 6.466,2.255 9.266,4.226c1.653,1.161 3.45,2.107 5.561,2.056c1.03,-0.025 2.054,-0.22 3.084,-0.285c0.884,-0.056 1.781,-0.103 2.51,0.587c0.114,0.107 0.375,0.133 0.542,0.093c2.341,-0.573 4.678,-1.157 7.013,-1.754c0.145,-0.037 0.322,-0.147 0.385,-0.273c0.94,-1.87 1.874,-2.234 3.831,-1.475c0.024,0.01 0.057,-0.005 0.085,-0.008l0.733,0.732c0.392,1.359 0.371,1.568 -0.249,2.925c0.466,0.549 0.992,1.015 1.325,1.592c0.689,1.192 0.328,2.624 -0.768,3.458c-0.891,0.679 -2.19,0.467 -3.171,-0.523c-0.202,-0.204 -0.472,-0.394 -0.564,-0.645c-0.376,-1.022 -1.198,-1.125 -2.09,-1.071c-2.118,0.127 -4.235,0.277 -6.351,0.425c-0.165,0.012 -0.399,0.036 -0.475,0.143c-0.703,0.998 -1.837,1.038 -2.846,1.174c-3.077,0.411 -5.773,1.604 -7.858,3.889c-3.996,4.38 -9.225,5.482 -14.757,5.512c-3.944,0.021 -7.968,-3.467 -9.232,-7.434c-1.123,-3.525 -0.275,-6.665 1.779,-9.592c0.129,-0.184 0.227,-0.39 0.34,-0.585l1.22,-1.221" style="fill:#231f20;fill-rule:nonzero;"/><path d="M57.176,34.129c0.532,0.407 1.088,0.751 1.542,1.198c0.841,0.826 0.812,2.241 0.002,3.003c-0.734,0.692 -1.895,0.533 -2.747,-0.378c-0.097,-0.104 -0.232,-0.203 -0.27,-0.33c-0.393,-1.275 -1.361,-1.55 -2.533,-1.483c-2.031,0.115 -4.06,0.23 -6.091,0.347c-0.196,0.011 -0.393,0.034 -0.65,0.056l-0.17,-2.06c2.011,-0.503 3.979,-0.991 5.944,-1.49c0.583,-0.149 1.17,-0.299 1.728,-0.517c0.221,-0.087 0.5,-0.349 0.523,-0.557c0.103,-0.929 0.727,-1.283 1.505,-1.393c0.819,-0.115 1.567,0.155 2,0.901c0.412,0.711 0.294,1.444 -0.188,2.098c-0.178,0.241 -0.424,0.434 -0.595,0.605m-36.282,-1.405c-1,1.125 -2.285,1.753 -3.797,1.934c-1.631,0.194 -2.653,-0.958 -2.264,-2.548c0.542,-2.217 3.36,-4.451 5.663,-4.489c1.502,-0.023 2.302,0.874 2.084,2.35c-0.17,1.143 -0.84,1.989 -1.686,2.753m-6.92,2.989c-0.476,0.106 -0.793,0.272 -1.05,0.206c-0.211,-0.055 -0.518,-0.411 -0.491,-0.591c0.1,-0.711 0.279,-1.409 0.534,-2.08c0.069,-0.177 0.563,-0.311 0.815,-0.255c0.198,0.044 0.464,0.417 0.456,0.635c-0.025,0.686 -0.164,1.368 -0.264,2.085" style="fill:#fff;fill-rule:nonzero;"/></g></svg>