<?xml version="1.0" encoding="UTF-8" standalone="no"?><!DOCTYPE svg PUBLIC "-//W3C//DTD SVG 1.1//EN" "http://www.w3.org/Graphics/SVG/1.1/DTD/svg11.dtd"><svg width="100%" height="100%" viewBox="0 0 72 72" version="1.1" xmlns="http://www.w3.org/2000/svg" xmlns:xlink="http://www.w3.org/1999/xlink" xml:space="preserve" xmlns:serif="http://www.serif.com/" style="fill-rule:evenodd;clip-rule:evenodd;stroke-linejoin:round;stroke-miterlimit:1.41421;"><g><path d="M51.502,49.908l0.003,0.26l3.537,0l-0.003,-0.26l-3.537,0Zm-34.764,-8.869l-0.167,0.09c0.082,0.176 0.214,0.513 0.239,0.506c0.364,-0.113 0.965,-0.211 1.019,-0.432c0.143,-0.586 0.048,-1.231 0.048,-1.852l-0.234,-0.002l-0.455,2.091l-0.45,-0.401m32.339,-12.765c-0.955,0.687 -1.805,1.169 -2.488,1.827c-0.638,0.615 -1.12,1.4 -1.631,2.138c-0.462,0.667 -0.87,1.371 -1.373,2.171c-0.56,-0.009 -1.296,1.208 -1.016,2.087c-1.228,-0.633 -0.731,1.005 -1.445,1.185l7.953,1.847l0,-11.255Zm-39.613,-0.836l0,-0.487l3.574,4.638c1.412,-1.064 2.868,-1.296 4.422,-0.399c0.184,0.106 0.486,0.047 0.724,0.007c2.033,-0.343 3.857,0.07 5.606,1.213c0.849,0.555 1.945,0.73 2.927,1.083c0.762,0.274 1.521,0.556 2.343,0.856l-0.309,0.37c2.212,0.545 4.445,1.119 6.693,1.626c0.343,0.078 0.889,-0.018 1.115,-0.252c2.545,-2.623 5.076,-5.261 7.535,-7.963c0.668,-0.734 1.086,-1.697 1.615,-2.557c0.441,-0.717 1.01,-0.879 1.724,-0.401c0.759,0.508 1.744,0.872 2.208,1.577c0.47,0.717 0.477,1.766 0.583,2.682c0.058,0.505 -0.15,1.036 -0.141,1.553c0.007,0.419 0.16,0.835 0.268,1.341c-0.479,0.401 -0.448,1.009 0.221,1.687c-0.81,0.486 -0.717,1.301 0.315,2.114l-0.729,0.14c-0.479,1.07 0.406,1.392 1.288,1.98l-1.331,-0.194l0.165,1.692c2.388,0.467 4.785,0.918 7.175,1.407c2.491,0.51 4.984,1.015 7.457,1.603c1.153,0.274 2.226,2.2 1.966,3.36c-0.192,0.856 -0.82,1.374 -1.641,1.49c-1.158,0.164 -2.356,0.356 -3.5,0.222c-1.09,-0.127 -1.781,0.386 -2.266,1.076c-0.391,0.558 -0.677,0.747 -1.311,0.61c-0.233,-0.05 -0.519,0.145 -0.897,0.265l1.178,0.471l-0.085,0.359c-0.458,-0.037 -0.915,-0.091 -1.374,-0.108c-0.444,-0.017 -0.896,-0.034 -1.333,0.028c-0.129,0.018 -0.221,0.305 -0.33,0.47l0.132,0.364c-1.379,0.046 -2.76,0.142 -4.138,0.118c-0.878,-0.016 -1.557,-0.829 -1.684,-1.663c-1.879,0 -3.738,0.1 -5.583,-0.024c-2.381,-0.16 -4.754,-0.468 -7.123,-0.772c-1.299,-0.167 -2.582,-0.456 -3.899,-0.695c-0.508,1.254 0.999,2.118 0.987,3.429l-1.261,0.185c-0.245,-0.616 -0.517,-1.118 -0.637,-1.653c-0.118,-0.54 -0.153,-1.094 -0.103,-1.644c0.063,-0.702 -0.207,-0.999 -0.858,-1.253c-3.155,-1.234 -6.285,-2.532 -9.42,-3.819c-0.266,-0.109 -0.539,-0.26 -0.741,-0.459c-0.678,-0.671 -1.298,-0.631 -1.714,0.259c-0.548,1.175 -0.969,2.41 -1.483,3.602c-0.216,0.5 -0.579,0.976 -1.197,0.623c-0.269,-0.153 -0.379,-0.582 -0.601,-0.951l-1.033,0.293c0.885,-1.047 1.036,-1.05 1.899,-0.219l2.22,-4.51c-0.525,0.197 -0.809,0.291 -1.083,0.407c-1.102,0.467 -2.214,0.915 -3.291,1.433c-0.256,0.123 -0.433,0.47 -0.579,0.75c-0.681,1.298 -1.266,2.655 -2.038,3.896c-0.36,0.578 -1.022,1.022 -1.638,1.361c-0.28,0.154 -0.782,-0.094 -1.137,-0.364l-2.022,0.689c0.539,-1.052 1.473,-1.561 2.381,-1.297c0.875,0.254 1.31,-0.249 1.647,-0.838c0.971,-1.697 1.781,-3.495 2.863,-5.115c0.434,-0.651 1.41,-0.939 2.193,-1.426c-0.484,-0.355 -1.084,-0.655 -1.49,-1.124c-0.755,-0.872 -1.705,-1.752 -2.015,-2.795c-0.489,-1.65 -0.732,-3.425 -0.247,-5.188c0.067,-0.247 -0.072,-0.621 -0.235,-0.852c-0.902,-1.274 -1.842,-2.522 -2.769,-3.779l-0.158,-0.528" style="fill:#231f20;fill-rule:nonzero;"/><path d="M9.464,27.438l0.158,0.528c-1.658,-1.638 -2.965,-3.529 -4.036,-5.592l3.878,5.064" style="fill:#231f20;fill-rule:nonzero;"/><path d="M16.737,41.04l0.45,0.401l0.455,-2.091l0.235,0.002c0,0.621 0.094,1.266 -0.049,1.852c-0.054,0.221 -0.655,0.318 -1.019,0.431c-0.025,0.008 -0.157,-0.329 -0.239,-0.505l0.167,-0.09m34.765,8.868l3.537,0l0.003,0.26l-3.537,0l-0.003,-0.26" style="fill:#fff;fill-rule:nonzero;"/></g></svg>