<?xml version="1.0" encoding="UTF-8" standalone="no"?><!DOCTYPE svg PUBLIC "-//W3C//DTD SVG 1.1//EN" "http://www.w3.org/Graphics/SVG/1.1/DTD/svg11.dtd"><svg width="100%" height="100%" viewBox="0 0 72 72" version="1.1" xmlns="http://www.w3.org/2000/svg" xmlns:xlink="http://www.w3.org/1999/xlink" xml:space="preserve" xmlns:serif="http://www.serif.com/" style="fill-rule:evenodd;clip-rule:evenodd;stroke-linejoin:round;stroke-miterlimit:1.41421;"><g><path d="M29.622,40.006c-0.02,-0.105 -0.016,-0.145 -0.033,-0.166c-0.083,-0.098 -0.165,-0.201 -0.262,-0.285c-0.608,-0.524 -1.214,-0.969 -2.117,-0.663c-0.408,0.138 -0.892,0.048 -1.339,0.084c-0.123,0.01 -0.241,0.099 -0.361,0.152c0.065,0.112 0.102,0.278 0.2,0.33c0.385,0.203 0.787,0.376 1.187,0.548c0.082,0.034 0.203,0.048 0.279,0.014c0.794,-0.354 1.592,-0.309 2.446,-0.014m7.704,0.907c-0.5,-0.984 -0.95,-1.886 -1.424,-2.776c-0.049,-0.091 -0.282,-0.176 -0.364,-0.134c-0.107,0.055 -0.207,0.236 -0.211,0.366c-0.019,0.614 0.002,1.228 -0.004,1.843c-0.004,0.498 0.147,0.68 0.642,0.698c0.419,0.014 0.839,0.003 1.361,0.003m7.447,1.673l0.237,0.159c0.039,-0.106 0.059,-0.223 0.119,-0.316c0.4,-0.624 0.824,-1.235 1.205,-1.871c0.097,-0.16 0.138,-0.42 0.081,-0.593c-0.163,-0.497 -0.376,-0.98 -0.599,-1.456c-0.068,-0.145 -0.221,-0.336 -0.351,-0.348c-0.281,-0.026 -0.288,0.212 -0.291,0.442c-0.01,0.645 -0.008,1.293 -0.074,1.933c-0.071,0.687 -0.214,1.367 -0.327,2.05m22.002,1.592c-0.24,0.019 -0.542,0.14 -0.709,0.039c-0.677,-0.409 -1.318,-0.88 -1.964,-1.34c-0.277,-0.198 -0.536,-0.423 -0.802,-0.636c-0.935,-0.748 -1.959,-0.988 -3.107,-0.564c-1.626,0.601 -3.256,0.454 -4.89,0.03c-0.251,-0.061 -0.511,-0.073 -0.767,-0.036c-1.319,0.181 -2.643,0.345 -3.95,0.594c-0.713,0.136 -1.407,0.361 -2.064,0.669c-0.995,0.473 -1.949,1.037 -2.903,1.593c-0.685,0.4 -1.192,0.91 -1.154,1.821c0.025,0.587 -0.275,0.681 -0.793,0.392c-0.264,-0.146 -0.63,-0.352 -0.854,-0.269c-0.393,0.145 -0.222,0.571 -0.176,0.906c0.084,0.619 -0.12,0.833 -0.771,0.769c-0.793,-0.078 -1.583,-0.187 -2.374,-0.288c-0.365,-0.047 -0.621,0.032 -0.848,0.383c-0.436,0.677 -0.95,1.305 -1.419,1.935c3.182,0.141 6.153,1.376 9.273,1.858c0.931,0.144 1.853,0.351 2.773,0.555c0.817,0.182 1.587,0.481 2.2,1.082c0.109,0.106 0.188,0.242 0.371,0.481c-1.866,-0.543 -3.461,0.167 -5.097,0.49c-0.86,0.17 -1.706,0.414 -2.565,0.594c-1.614,0.339 -3.027,1.167 -4.511,1.82c-0.055,0.024 -0.099,0.073 -0.204,0.154c0.154,0.099 0.264,0.182 0.383,0.245c2.248,1.183 4.604,1.258 7.02,0.669c1.216,-0.296 2.427,-0.611 3.643,-0.904c0.208,-0.05 0.432,-0.034 0.752,-0.056c-1.012,1.039 -2.118,1.722 -3.327,2.258c-2.855,1.264 -5.814,1.446 -8.84,0.825c-1.768,-0.364 -3.526,-0.778 -5.286,-1.176c-0.857,-0.194 -1.588,-0.628 -2.291,-1.15c-0.606,-0.451 -1.239,-0.915 -1.932,-1.193c-1.37,-0.512 -2.283,-1.829 -2.283,-3.291c0,-0.748 0.239,-1.476 0.681,-2.079c0.036,-0.048 0.041,-0.118 0.095,-0.282c-1.609,-0.295 -3.185,-0.59 -4.764,-0.869c-0.589,-0.104 -1.111,0.122 -1.638,0.36c-0.351,0.158 -0.744,0.227 -1.181,0.354c0.036,0.18 0.16,0.478 0.14,0.766c-0.045,0.627 -0.066,1.284 -0.273,1.866c-0.563,1.59 -1.128,3.192 -1.873,4.7c-0.413,0.834 -1.133,1.548 -1.824,2.2c-0.397,0.374 -1.013,0.514 -1.53,0.76l-0.14,-0.129c0.182,-0.278 0.309,-0.629 0.558,-0.822c0.93,-0.72 1.366,-1.696 1.654,-2.794c0.531,-2.013 1.082,-4.02 1.655,-6.021c0.146,-0.511 0.396,-0.991 0.576,-1.493c0.131,-0.363 0.227,-0.738 0.373,-1.228c-1.135,0.176 -2.113,0.244 -2.983,0.715c-0.151,0.082 -0.251,0.42 -0.234,0.629c0.101,1.291 -0.402,2.429 -0.91,3.55c-0.346,0.763 -0.802,1.483 -1.261,2.188c-0.43,0.659 -1.081,1.011 -1.867,1.111c-0.363,0.046 -0.724,0.11 -1.086,0.167l-0.075,-0.153c0.473,-0.29 0.925,-0.62 1.422,-0.857c0.388,-0.185 0.572,-0.439 0.608,-0.846c0.149,-1.733 0.605,-3.394 1.223,-5.009c0.278,-0.724 0.662,-1.406 0.99,-2.111c0.094,-0.203 0.158,-0.418 0.245,-0.655c-0.103,-0.027 -0.164,-0.06 -0.218,-0.054c-0.759,0.088 -1.516,0.188 -2.274,0.272c-0.407,0.045 -0.645,0.244 -0.747,0.647c-0.176,0.71 -0.342,1.425 -0.577,2.117c-0.573,1.692 -1.42,3.205 -2.952,4.236c-0.457,0.308 -0.948,0.395 -1.584,0.248c1.513,-0.712 1.861,-2.137 2.381,-3.442c0.612,-1.54 1.217,-3.083 1.797,-4.636c0.338,-0.903 0.983,-1.425 1.877,-1.694c0.139,-0.039 0.262,-0.122 0.349,-0.237c-0.109,-0.018 -0.218,-0.044 -0.329,-0.054c-0.418,-0.037 -0.84,-0.049 -1.255,-0.109c-0.274,-0.04 -0.363,0.069 -0.447,0.308c-0.191,0.543 -0.427,1.071 -0.633,1.609c-0.05,0.131 -0.054,0.278 -0.087,0.417c-0.232,1.001 -0.583,1.919 -1.545,2.477c-0.445,0.258 -0.852,0.247 -1.336,-0.016c1.524,-1.168 1.589,-2.979 2.101,-4.591c0.231,-0.726 0.399,-1.474 0.97,-2.042c0.405,-0.402 0.907,-0.464 1.435,-0.5c0.149,-0.01 0.289,-0.126 0.434,-0.193c-0.089,-0.157 -0.142,-0.361 -0.273,-0.463c-0.535,-0.416 -1.209,-0.709 -1.615,-1.22c-0.555,-0.7 -0.984,-1.526 -1.338,-2.353c-0.373,-0.875 -0.612,-1.809 -0.872,-2.728c-0.197,-0.702 -0.018,-1.382 0.224,-2.051c0.043,-0.149 0.019,-0.31 -0.066,-0.44c-0.209,-0.273 -0.537,-0.473 -0.69,-0.768c-0.327,-0.628 -0.634,-1.28 -0.833,-1.957c-0.16,-0.541 -0.053,-0.661 0.372,-1.202c-0.06,-0.048 -0.114,-0.115 -0.183,-0.14c-0.896,-0.335 -1.188,-1.093 -1.244,-1.931c-0.098,-1.471 -0.42,-2.891 -0.791,-4.309c-0.147,-0.563 -0.207,-1.148 -0.305,-1.723l0,-2.636c0.157,-0.995 0.239,-2.009 0.496,-2.977c0.218,-0.817 0.511,-1.672 0.998,-2.347c0.951,-1.318 3.191,-1.409 4.555,-0.446c1.131,0.8 1.292,1.956 1.467,3.147c0.033,0.225 0.018,0.456 0.026,0.683c0.048,1.329 0.44,1.768 1.735,1.95l-0.009,0.127c-0.344,-0.034 -0.712,-0.002 -1.028,-0.114c-1.459,-0.516 -2.813,-1.289 -3.999,-2.283c-0.186,-0.155 -0.384,-0.294 -0.659,-0.505c-0.059,0.469 -0.121,0.858 -0.154,1.249c-0.186,2.338 -0.085,4.69 0.302,7.004c0.028,0.17 0.108,0.343 0.201,0.49c0.681,1.058 1.022,2.207 0.941,3.466c-0.022,0.339 0.078,0.54 0.368,0.763c0.947,0.728 1.461,1.731 1.564,2.92c0.028,0.303 0.129,0.478 0.405,0.586c1.614,0.636 2.846,1.761 4,3.027c0.917,1.005 1.941,1.915 2.948,2.834c0.266,0.244 0.637,0.385 0.975,0.541c0.661,0.306 1.333,0.583 1.997,0.885c0.445,0.201 0.74,0.081 0.878,-0.383c0.42,-1.408 1.038,-1.864 2.521,-1.863c2.413,0.003 4.295,1.101 5.865,2.842c0.186,0.205 0.338,0.469 0.567,0.598c0.272,0.153 0.642,0.316 0.911,0.246c0.35,-0.091 0.246,-0.493 0.211,-0.805c-0.103,-0.902 -0.271,-1.807 -0.249,-2.707c0.022,-0.994 0.72,-1.329 1.676,-0.99c1.369,0.487 2.136,1.54 2.71,2.78c0.308,0.662 0.566,1.348 0.85,2.021c0.057,0.135 0.106,0.285 0.204,0.384c0.102,0.103 0.256,0.152 0.388,0.225c0.064,-0.122 0.183,-0.243 0.182,-0.364c-0.009,-0.488 -0.035,-0.975 -0.078,-1.461c-0.061,-0.762 -0.151,-1.522 -0.196,-2.285c-0.02,-0.337 -0.008,-0.69 0.074,-1.014c0.168,-0.665 0.814,-0.844 1.305,-0.359c0.212,0.21 0.379,0.489 0.499,0.766c0.706,1.639 0.689,3.392 0.781,5.129c0.014,0.256 0.077,0.51 0.117,0.765l0.223,0.027c0.086,-0.254 0.211,-0.501 0.25,-0.762c0.211,-1.399 0.361,-2.809 0.618,-4.199c0.104,-0.554 0.332,-1.077 0.665,-1.531c0.601,-0.8 1.689,-0.728 2.215,0.117c0.241,0.387 0.356,0.859 0.493,1.303c0.106,0.34 0.174,0.694 0.231,1.046c0.115,0.717 0.645,0.967 1.249,1.121c0.118,0.03 0.312,-0.012 0.39,-0.096c0.839,-0.892 1.984,-0.981 3.066,-1.032c0.871,-0.041 1.754,0.243 2.636,0.352c0.163,0.021 0.426,-0.048 0.502,-0.166c0.67,-1.038 1.591,-1.716 2.804,-1.914c1.328,-0.216 2.659,-0.203 3.951,0.255c1.289,0.458 2.044,1.5 2.795,2.552c0.584,0.817 1.195,1.615 1.782,2.43c0.321,0.446 0.617,0.91 0.924,1.365l0,0.488Z" style="fill:#231f20;fill-rule:nonzero;"/><path d="M44.774,42.586c0.112,-0.683 0.256,-1.362 0.326,-2.049c0.067,-0.64 0.065,-1.288 0.074,-1.933c0.003,-0.231 0.01,-0.469 0.291,-0.442c0.13,0.011 0.284,0.203 0.352,0.348c0.223,0.475 0.436,0.958 0.599,1.456c0.049,0.2 0.02,0.412 -0.081,0.592c-0.381,0.636 -0.805,1.247 -1.206,1.872c-0.059,0.093 -0.08,0.21 -0.119,0.315l-0.236,-0.159m-7.448,-1.673c-0.522,0 -0.942,0.012 -1.361,-0.003c-0.495,-0.018 -0.646,-0.2 -0.642,-0.698c0.006,-0.614 -0.016,-1.229 0.004,-1.842c0.004,-0.13 0.103,-0.312 0.211,-0.367c0.082,-0.042 0.315,0.043 0.364,0.134c0.474,0.89 0.924,1.793 1.424,2.776m-7.704,-0.907c-0.854,-0.295 -1.652,-0.34 -2.446,0.014c-0.076,0.034 -0.197,0.02 -0.279,-0.014c-0.4,-0.172 -0.802,-0.345 -1.187,-0.548c-0.098,-0.052 -0.135,-0.218 -0.2,-0.33c0.12,-0.053 0.238,-0.142 0.361,-0.152c0.447,-0.036 0.931,0.054 1.339,-0.084c0.903,-0.306 1.509,0.139 2.117,0.663c0.097,0.084 0.179,0.187 0.262,0.285c0.017,0.021 0.013,0.061 0.033,0.166" style="fill:#fff;fill-rule:nonzero;"/></g></svg>