<?xml version="1.0" encoding="UTF-8" standalone="no"?><!DOCTYPE svg PUBLIC "-//W3C//DTD SVG 1.1//EN" "http://www.w3.org/Graphics/SVG/1.1/DTD/svg11.dtd"><svg width="100%" height="100%" viewBox="0 0 72 72" version="1.1" xmlns="http://www.w3.org/2000/svg" xmlns:xlink="http://www.w3.org/1999/xlink" xml:space="preserve" xmlns:serif="http://www.serif.com/" style="fill-rule:evenodd;clip-rule:evenodd;stroke-miterlimit:10;"><g><path d="M21.292,54.937l0.004,-0.546c-0.451,-0.319 -0.865,-0.813 -1.362,-0.919c-0.806,-0.171 -1.285,0.426 -1.291,1.18c-0.006,0.76 0.494,1.348 1.279,1.207c0.473,-0.085 0.878,-0.555 1.37,-0.922Z" style="fill:#fff;"/><path d="M26.548,53.395l-0.01,-0.554c-0.503,-0.306 -1.029,-0.881 -1.503,-0.841c-0.421,0.036 -1.035,0.708 -1.118,1.177c-0.137,0.772 0.52,1.315 1.258,1.194c0.497,-0.081 0.918,-0.634 1.373,-0.976Z" style="fill:#fff;"/><path d="M13.428,58.026l-0.549,0.008c-0.325,0.5 -0.935,1.026 -0.893,1.494c0.04,0.449 0.829,1.23 1.153,1.167c0.515,-0.101 1.202,-0.737 1.279,-1.231c0.065,-0.418 -0.631,-0.954 -0.99,-1.438Z" style="fill:#fff;"/><path d="M23.844,50.307c-0.85,-0.556 -1.361,-1.149 -1.842,-1.126c-0.423,0.021 -1.192,0.804 -1.131,1.121c0.098,0.516 0.713,1.238 1.177,1.29c0.427,0.049 0.935,-0.614 1.796,-1.285Z" style="fill:#fff;"/><path d="M19.989,48.344l-0.008,-0.535c-0.505,-0.326 -1.036,-0.935 -1.51,-0.894c-0.43,0.038 -1.055,0.744 -1.133,1.229c-0.118,0.741 0.491,1.347 1.272,1.191c0.483,-0.096 0.885,-0.597 1.379,-0.991Z" style="fill:#fff;"/><path d="M14.795,55.822c0.647,-0.799 1.349,-1.289 1.319,-1.731c-0.031,-0.463 -0.702,-1.133 -1.205,-1.255c-0.746,-0.182 -1.325,0.478 -1.249,1.208c0.05,0.485 0.549,0.924 1.135,1.778Z" style="fill:#fff;"/><path d="M21.805,58.704c-0.82,-0.587 -1.36,-1.271 -1.805,-1.214c-0.488,0.062 -0.89,0.808 -1.328,1.257c0.45,0.434 0.871,1.17 1.358,1.215c0.452,0.043 0.972,-0.652 1.775,-1.258Z" style="fill:#fff;"/></g><path d="M32.317,44.496c0.486,-0.278 0.903,-0.506 1.31,-0.75c6.259,-3.766 12.461,-7.63 18.804,-11.247c2.279,-1.299 3.809,-2.828 4.25,-5.443c0.118,-0.706 0.11,-1.152 -0.451,-1.659c-3.56,-3.21 -7.232,-6.317 -10.567,-9.75c-1.867,-1.921 -3.507,-2.39 -5.682,-0.903c-0.533,0.363 -1.242,0.68 -1.5,1.201c-3.769,7.614 -7.468,15.262 -11.209,22.89c-0.283,0.576 -0.207,0.91 0.256,1.32c1.585,1.401 3.137,2.838 4.789,4.341m-0.363,2.708c-2.389,-2.18 -4.855,-4.393 -7.254,-6.676c-0.234,-0.222 -0.215,-0.957 -0.041,-1.323c2.059,-4.326 4.171,-8.627 6.266,-12.936c1.921,-3.949 3.814,-7.912 5.784,-11.836c0.271,-0.541 0.841,-1.042 1.395,-1.307c1.508,-0.724 3.094,-1.282 4.622,-1.966c0.587,-0.262 0.979,-0.246 1.478,0.213c4.911,4.522 9.854,9.011 14.759,13.54c0.246,0.227 0.389,0.788 0.299,1.115c-0.506,1.804 -1.058,3.595 -1.657,5.371c-0.115,0.346 -0.38,0.727 -0.685,0.91c-8.239,4.98 -16.492,9.935 -24.745,14.893c-0.028,0.017 -0.076,0.002 -0.221,0.002m0.507,1.875l-3.375,3.689l-10.072,-9.211l3.375,-3.697l10.072,9.219" style="fill:#231f20;fill-rule:nonzero;"/><path d="M21.806,58.704c-0.803,0.606 -1.323,1.302 -1.775,1.259c-0.487,-0.045 -0.909,-0.781 -1.358,-1.216c0.438,-0.448 0.84,-1.194 1.327,-1.257c0.446,-0.057 0.986,0.627 1.806,1.214Zm-7.01,-2.882c-0.552,-0.824 -1.083,-1.275 -1.136,-1.777c-0.076,-0.731 0.503,-1.391 1.25,-1.208c0.502,0.122 1.173,0.792 1.204,1.255c0.03,0.441 -0.671,0.931 -1.318,1.73Zm5.193,-7.477c-0.457,0.346 -0.874,0.891 -1.378,0.991c-0.782,0.155 -1.391,-0.45 -1.273,-1.191c0.078,-0.486 0.703,-1.192 1.133,-1.23c0.474,-0.041 1.005,0.569 1.511,0.895l0.007,0.535Zm3.855,1.962c-0.834,0.636 -1.358,1.335 -1.796,1.285c-0.463,-0.053 -1.079,-0.774 -1.177,-1.29c-0.061,-0.317 0.708,-1.1 1.131,-1.121c0.481,-0.023 0.992,0.57 1.842,1.126Zm-10.416,7.719c0.359,0.484 1.055,1.021 0.99,1.438c-0.076,0.495 -0.763,1.13 -1.279,1.231c-0.323,0.063 -1.113,-0.718 -1.153,-1.167c-0.041,-0.468 0.568,-0.994 0.893,-1.494l0.549,-0.008Zm13.12,-4.631c-0.455,0.342 -0.875,0.895 -1.373,0.976c-0.738,0.121 -1.395,-0.422 -1.258,-1.194c0.084,-0.469 0.697,-1.141 1.118,-1.177c0.474,-0.04 1,0.535 1.503,0.841l0.01,0.554Zm-5.256,1.542c-0.454,0.322 -0.875,0.833 -1.37,0.922c-0.785,0.141 -1.285,-0.447 -1.279,-1.207c0.006,-0.754 0.485,-1.351 1.291,-1.18c0.497,0.106 0.911,0.6 1.362,0.919l-0.004,0.546Z" style="fill:none;stroke:#231f20;stroke-width:1px;"/><path d="M32.545,41.49l-2.672,-2.458c0.799,-1.655 1.589,-3.299 2.385,-4.939c1.133,-2.333 2.212,-4.695 3.444,-6.974c0.333,-0.616 1.064,-1.18 1.736,-1.419c1.688,-0.6 3.408,-0.314 5.017,0.391c3.649,1.596 7.412,2.07 11.619,1.481c-0.361,0.575 -0.584,1.375 -1.102,1.692c-6.676,4.086 -13.392,8.104 -20.1,12.136c-0.065,0.039 -0.151,0.043 -0.327,0.09" style="fill:#fff;fill-rule:nonzero;"/><path d="M32.545,41.49l-2.672,-2.458c0.799,-1.655 1.589,-3.299 2.385,-4.939c1.133,-2.333 2.212,-4.695 3.444,-6.974c0.333,-0.616 1.064,-1.18 1.736,-1.419c1.688,-0.6 3.408,-0.314 5.017,0.391c3.649,1.596 7.412,2.07 11.619,1.481c-0.361,0.575 -0.584,1.375 -1.102,1.692c-6.676,4.086 -13.392,8.104 -20.1,12.136c-0.065,0.039 -0.151,0.043 -0.327,0.09Z" style="fill:none;stroke:#231f20;stroke-width:1px;"/></svg>