<?xml version="1.0" encoding="UTF-8" standalone="no"?><!DOCTYPE svg PUBLIC "-//W3C//DTD SVG 1.1//EN" "http://www.w3.org/Graphics/SVG/1.1/DTD/svg11.dtd"><svg width="100%" height="100%" viewBox="0 0 72 72" version="1.1" xmlns="http://www.w3.org/2000/svg" xmlns:xlink="http://www.w3.org/1999/xlink" xml:space="preserve" xmlns:serif="http://www.serif.com/" style="fill-rule:evenodd;clip-rule:evenodd;stroke-linejoin:round;stroke-miterlimit:1.41421;"><g><path d="M36.62,21.558c-2.957,0.403 -5.953,0.627 -8.861,1.254c-3.906,0.843 -7.334,2.711 -9.946,5.832c-1.319,1.577 -2.064,3.367 -1.227,5.429c0.84,2.069 2.621,2.638 4.659,2.721c0.438,0.018 0.875,0.111 1.311,0.107c2.64,-0.022 4.917,0.901 6.882,2.631c1.38,1.214 2.723,2.471 4.122,3.662c5.213,4.437 11.283,5.111 16.974,1.912c4.382,-2.464 6.717,-6.961 5.826,-11.361c-0.596,-2.948 -2.342,-5.207 -4.554,-7.141c-4.351,-3.802 -9.587,-4.825 -15.186,-5.046m-21.756,9.869c2.344,-5.997 7.336,-8.656 13.13,-9.988c5.966,-1.371 12.047,-1.571 17.931,0.422c5.542,1.877 9.978,5.253 11.505,11.201c0.872,3.398 0.823,7.017 -0.047,10.445c-1.148,4.523 -4.506,7.166 -8.663,8.758c-6.026,2.307 -11.248,0.458 -15.956,-3.489c-0.704,-0.59 -1.402,-1.197 -2.035,-1.86c-2.623,-2.749 -5.705,-4.454 -9.614,-4.337c-3.201,0.095 -5.329,-1.317 -6.251,-4.433l0,-6.719Z" style="fill:#231f20;fill-rule:nonzero;"/><path d="M44.322,33.795l-0.1,0.239c-0.357,0.022 -0.73,-0.013 -1.068,0.078c-1.165,0.314 -2.178,0.9 -2.514,2.134c-0.275,1.01 0.309,1.76 1.096,2.33c1.437,1.039 4.038,0.949 5.383,-0.166c1.189,-0.986 1.256,-2.594 -0.017,-3.465c-0.81,-0.553 -1.845,-0.778 -2.78,-1.15m-0.515,11.286c-4.052,-0.063 -7.173,-1.845 -9.955,-4.405c-1.231,-1.138 -2.487,-2.248 -3.769,-3.328c-2.373,-1.987 -5.194,-2.681 -8.219,-2.772c-1.381,-0.041 -2.893,0.125 -3.635,-1.457c-0.757,-1.616 0.254,-2.784 1.21,-3.841c2.616,-2.892 6.001,-4.462 9.757,-5.2c4.246,-0.835 8.536,-0.955 12.825,-0.269c3.954,0.633 7.347,2.366 10.053,5.34c4.09,4.494 3.571,9.808 -1.304,13.43c-2.105,1.563 -4.485,2.4 -6.963,2.502" style="fill:#231f20;fill-rule:nonzero;"/></g></svg>