<?xml version="1.0" encoding="UTF-8" standalone="no"?><!DOCTYPE svg PUBLIC "-//W3C//DTD SVG 1.1//EN" "http://www.w3.org/Graphics/SVG/1.1/DTD/svg11.dtd"><svg width="100%" height="100%" viewBox="0 0 72 72" version="1.1" xmlns="http://www.w3.org/2000/svg" xmlns:xlink="http://www.w3.org/1999/xlink" xml:space="preserve" xmlns:serif="http://www.serif.com/" style="fill-rule:evenodd;clip-rule:evenodd;stroke-miterlimit:10;"><rect id="Plan-de-travail1" serif:id="Plan de travail1" x="-216" y="-144" width="382.774" height="392.88" style="fill:none;"/><path d="M32.117,36.245l0.079,-0.229c-0.592,-0.391 -1.141,-0.894 -1.926,-0.779l-0.093,0.239l1.94,0.769m-2.306,-1.72c-0.72,-0.231 -1.234,-0.919 -2.131,-0.859c0.423,0.859 1.619,1.326 2.131,0.859m-1.792,5.133c-0.622,-1.003 -1.87,-1.449 -2.69,-0.96c0.826,0.834 1.857,1.202 2.69,0.96m-0.115,-2.687c1.438,1.121 2.219,1.318 2.898,0.628c-0.696,-0.386 -1.331,-0.8 -2.022,-1.082c-0.181,-0.073 -0.53,0.265 -0.876,0.454m0.979,-3.358c1.089,0.578 2.182,1.115 3.228,1.732c0.439,0.259 0.808,0.659 1.147,1.049c0.125,0.144 0.071,0.443 0.098,0.671c-0.21,0.022 -0.455,0.124 -0.625,0.051c-0.755,-0.326 -1.5,-0.678 -2.225,-1.064c-0.926,-0.492 -1.829,-1.024 -2.743,-1.54c-0.166,0.241 -0.274,0.4 -0.409,0.599c1.475,1.05 3.397,1.406 4.425,3.027c-0.518,0.774 -0.683,0.872 -1.518,0.638c-0.585,-0.166 -1.153,-0.39 -1.694,-0.669c-0.866,-0.442 -1.698,-0.949 -2.55,-1.421c-0.193,-0.107 -0.402,-0.239 -0.61,-0.254c-0.188,-0.013 -0.386,0.121 -0.579,0.19c0.078,0.177 0.107,0.428 0.243,0.518c0.573,0.379 1.207,0.67 1.765,1.068c0.685,0.49 1.329,1.039 1.965,1.593c0.302,0.263 0.175,0.517 -0.164,0.643c-0.594,0.218 -1.196,0.398 -1.818,0.07c-1.111,-0.585 -2.247,-1.127 -3.334,-1.753c-1.294,-0.747 -1.637,-0.724 -2.677,0.463c1.72,0.86 3.436,1.682 5.118,2.571c1.282,0.678 2.421,0.608 3.54,-0.342c0.519,-0.441 1.156,-0.613 1.87,-0.591c1.602,0.048 2.979,0.801 4.374,1.418c1.645,0.728 3.165,1.735 4.791,2.512c6.641,3.179 13.302,6.321 19.96,9.465c1.39,0.657 2.898,0.854 4.404,0.81c0.825,-0.024 1.678,-0.268 2.451,-0.578c1.137,-0.455 1.309,-1.368 0.579,-2.355c-0.803,-1.088 -1.924,-1.726 -3.134,-2.231c-1.461,-0.61 -2.986,-1.09 -4.394,-1.801c-6.571,-3.316 -13.634,-5.362 -20.472,-7.985c-1.265,-0.485 -2.606,-0.77 -3.881,-1.234c-0.999,-0.365 -1.094,-0.993 -0.369,-1.746c0.784,-0.814 0.773,-0.908 -0.089,-1.638c-1.795,-1.521 -4.06,-1.956 -6.16,-2.746l-0.513,0.86m-20.489,4.021c1.231,-0.061 1.197,-0.049 1.593,1.105c0.115,0.336 0.455,0.626 0.752,0.861c0.36,0.285 0.811,0.457 1.178,0.736c0.747,0.57 1.363,1.377 2.473,1.215c0.101,-0.014 0.221,0.091 0.331,0.145c0.911,0.451 0.92,0.458 1.449,-0.401c0.25,-0.394 0.469,-0.807 0.655,-1.235c0.682,-1.628 1.375,-3.255 2.001,-4.906c0.853,-2.252 0.835,-2.274 -1.353,-3.401c-2.849,-1.467 -5.711,-2.91 -8.567,-4.366c-0.22,-0.113 -0.429,-0.246 -0.643,-0.371l0.086,-0.245c0.322,0.075 0.675,0.087 0.958,0.235c2.717,1.408 5.42,2.841 8.11,4.3c0.775,0.423 1.47,0.997 2.198,1.507c0.405,0.284 0.46,0.609 0.26,1.092c-1.16,2.797 -2.281,5.611 -3.416,8.423c1.823,-0.143 3.274,-1.281 4.98,-2.286l-1.564,-0.604c0.597,-0.96 1.394,-1.613 2.557,-1.699c0.216,-0.016 0.628,0.109 0.636,0.197c0.066,0.714 0.699,0.591 1.086,0.886c0.092,-0.796 0.911,-0.494 1.276,-1.039l-2.045,-0.692c0.311,-0.241 0.649,-0.262 0.858,-0.436c0.236,-0.197 0.33,-0.555 0.538,-0.799c0.142,-0.168 0.373,-0.259 0.57,-0.389c0.544,1.009 1.916,1.703 2.799,0.49l-2.366,-0.899c1.295,-0.181 1.285,-0.183 1.453,-1.51c0.018,-0.142 0.238,-0.373 0.355,-0.367c0.722,0.036 1.151,-0.225 1.286,-0.977c0.032,-0.176 0.319,-0.306 0.509,-0.476c0.135,0.311 0.171,0.593 0.292,0.635c0.895,0.319 1.791,0.687 2.72,0.849c0.995,0.175 1.313,-0.231 1.154,-1.205c-0.112,-0.681 -0.268,-1.356 -0.354,-2.04c-0.154,-1.226 -0.312,-2.454 -0.389,-3.686c-0.06,-0.975 -0.17,-1.139 -1.091,-1.494c-0.674,-0.26 -1.319,-0.588 -1.926,-0.979c-1.461,-0.946 -2.884,-1.951 -4.332,-2.916c-0.167,-0.111 -0.43,-0.209 -0.602,-0.158c-0.5,0.15 -0.913,-0.025 -1.103,-0.413c-0.363,-0.736 -1.48,-0.711 -1.589,-1.658c-0.002,-0.022 -0.067,-0.039 -0.103,-0.056c-0.877,-0.418 -1.762,-0.818 -2.628,-1.258c-0.772,-0.394 -1.538,-0.398 -2.269,0.03c-0.964,0.563 -1.928,1.135 -2.833,1.784c-2.575,1.847 -5.023,3.868 -7.864,5.334c-1.283,0.663 -2.118,1.742 -2.187,3.296c-0.025,0.584 -0.213,1.159 -0.306,1.741c-0.184,1.165 -0.384,2.328 -0.519,3.499c-0.085,0.731 0.057,1.438 0.744,1.879c0.698,0.45 1.398,0.903 2.133,1.285c0.326,0.169 0.763,0.289 1.109,0.22c0.705,-0.14 0.851,0.219 0.9,0.767c0.012,0.141 0.032,0.281 0.05,0.45m-2.726,-13.646c1.094,-0.607 2.246,-1.128 3.267,-1.838c2.004,-1.39 3.905,-2.93 5.91,-4.317c0.874,-0.605 1.87,-1.075 2.874,-1.43c0.473,-0.169 1.133,-0.03 1.64,0.156c1.024,0.376 2.054,0.793 2.977,1.363c0.622,0.384 1.114,1.019 1.565,1.617c0.231,0.306 0.441,0.394 0.783,0.441c0.427,0.059 0.902,0.122 1.247,0.348c1.475,0.96 2.895,2.002 4.364,2.97c0.621,0.409 1.301,0.737 1.978,1.05c1.17,0.541 1.363,0.896 1.3,2.163c-0.036,0.722 0.02,1.46 0.133,2.174c0.203,1.282 0.471,2.554 0.73,3.826c0.108,0.53 0.06,0.966 -0.628,1.212c0.539,0.291 1.029,0.482 1.43,0.788c0.556,0.424 1.079,0.903 1.553,1.418c0.347,0.378 0.305,0.796 -0.137,1.15c-0.29,0.233 -0.532,0.525 -0.88,0.876c0.526,0.276 0.913,0.549 1.343,0.695c3.842,1.307 7.731,2.484 11.526,3.916c3.7,1.397 7.303,3.047 10.949,4.587c1.719,0.727 3.459,1.415 5.149,2.205c1.147,0.535 2.225,1.218 3.333,1.835l0.759,0.957c0.426,0.813 0.205,1.576 -0.182,2.326l-0.861,0.683c-2.326,0.918 -4.652,0.678 -6.881,-0.231c-3.101,-1.259 -6.164,-2.609 -9.186,-4.048c-4.865,-2.327 -9.676,-4.767 -14.513,-7.154c-1.197,-0.591 -2.382,-1.218 -3.616,-1.723c-1.446,-0.591 -2.903,-0.629 -4.204,0.416c-0.986,0.794 -2.002,0.861 -3.119,0.3c-1.267,-0.637 -2.566,-1.214 -3.829,-1.86c-0.396,-0.203 -0.653,-0.209 -1.014,0.078c-1.055,0.839 -2.207,1.537 -3.524,1.871c-0.601,0.152 -1.241,0.196 -1.863,0.197c-0.29,0 -0.577,-0.227 -0.872,-0.333c-0.454,-0.163 -0.905,-0.373 -1.375,-0.451c-0.876,-0.147 -1.637,-0.436 -2.182,-1.185c-0.149,-0.206 -0.371,-0.414 -0.603,-0.495c-1.037,-0.359 -1.585,-1.082 -1.676,-2.141c-1.409,-0.083 -1.612,-0.23 -1.657,-1.188c-0.794,0.147 -1.467,-0.162 -2.115,-0.572c-0.715,-0.455 -1.436,-0.901 -2.155,-1.351l-0.455,-0.574c-0.047,-0.377 -0.165,-0.761 -0.128,-1.129c0.325,-3.153 0.356,-6.384 2.271,-9.143l0.574,-0.455Z" style="fill:#231f20;fill-rule:nonzero;"/><path d="M29.846,31.893l0.004,0.001l-0.004,-0.001m-3.632,3.863c0.23,0.199 0.495,0.327 0.742,0.344c0.05,0.001 0.101,0.001 0.151,-0.004l-0.893,-0.34Zm6.345,0.739l0.226,0.1c-0.063,-0.068 -0.127,-0.135 -0.191,-0.202l-0.035,0.102Zm-9.072,1.159c0.045,0.072 0.072,0.153 0.079,0.238c0.013,0.146 0.014,0.154 0.316,0.257l0.009,0.003c0.087,-0.112 0.19,-0.196 0.297,-0.261l-0.701,-0.237Zm7.122,0.698c0.284,0.07 0.376,0.041 0.56,-0.211c-0.029,-0.039 -0.06,-0.076 -0.092,-0.113c-0.153,0.142 -0.31,0.248 -0.468,0.324m-5.953,0.483l0.219,0.116l-0.188,-0.19c-0.018,0.02 -0.029,0.047 -0.031,0.074m-16.632,-12.652l0.438,0.102c0.091,0.021 0.186,0.036 0.28,0.051c0.249,0.041 0.532,0.088 0.796,0.226c2.719,1.41 5.425,2.845 8.118,4.305c0.575,0.314 1.102,0.702 1.613,1.078c0.21,0.155 0.42,0.309 0.633,0.458c0.584,0.41 0.73,0.98 0.434,1.693c-0.882,2.138 -1.753,4.281 -2.612,6.428l-0.468,1.161c1.004,-0.266 1.926,-0.839 2.958,-1.48l0.098,-0.062l-1.182,-0.457l0.32,-0.512c0.749,-1.203 1.705,-1.835 2.921,-1.932l0.707,-0.546c0.225,-0.174 0.446,-0.258 0.624,-0.326c0.087,-0.033 0.187,-0.071 0.22,-0.099c0.06,-0.05 0.127,-0.173 0.192,-0.293c0.076,-0.141 0.162,-0.3 0.286,-0.446c0.118,-0.139 0.258,-0.236 0.392,-0.316l-1.009,-0.384l1.931,-0.27c0.906,-0.126 0.906,-0.126 1.023,-1.046c0.052,-0.403 0.468,-0.85 0.88,-0.835c0.51,0.031 0.685,-0.101 0.768,-0.565c0.059,-0.321 0.309,-0.498 0.509,-0.64c0.055,-0.039 0.111,-0.078 0.159,-0.12l0.515,-0.461l0.276,0.633c0.055,0.125 0.096,0.246 0.131,0.352c0.008,0.024 0.016,0.046 0.022,0.068l0.349,0.126c0.732,0.268 1.425,0.521 2.139,0.646c0.361,0.063 0.52,0.018 0.552,-0.015c0.037,-0.036 0.088,-0.211 0.022,-0.618c-0.043,-0.261 -0.093,-0.522 -0.142,-0.782c-0.085,-0.423 -0.157,-0.849 -0.215,-1.276l-0.019,-0.153c-0.147,-1.164 -0.298,-2.368 -0.372,-3.565c-0.049,-0.778 -0.049,-0.778 -0.773,-1.058c-0.706,-0.271 -1.382,-0.615 -2.017,-1.025c-0.871,-0.568 -1.735,-1.148 -2.592,-1.738c-0.581,-0.396 -1.161,-0.792 -1.746,-1.182c-0.066,-0.045 -0.14,-0.075 -0.219,-0.088c-0.685,0.21 -1.35,-0.054 -1.658,-0.679c-0.091,-0.185 -0.309,-0.312 -0.56,-0.46c-0.363,-0.213 -0.843,-0.495 -1.019,-1.084l-0.695,-0.324c-0.612,-0.283 -1.22,-0.575 -1.822,-0.878c-0.635,-0.324 -1.221,-0.319 -1.791,0.015c-0.975,0.57 -1.923,1.134 -2.795,1.759c-0.619,0.445 -1.232,0.9 -1.844,1.354c-1.913,1.42 -3.89,2.888 -6.08,4.019c-1.216,0.627 -1.861,1.594 -1.918,2.874c-0.018,0.41 -0.104,0.803 -0.188,1.182c-0.045,0.205 -0.091,0.409 -0.123,0.615l-0.108,0.672c-0.158,0.932 -0.294,1.867 -0.409,2.805c-0.102,0.892 0.246,1.227 0.518,1.402c0.718,0.462 1.399,0.901 2.093,1.261c0.269,0.14 0.594,0.21 0.781,0.174c0.437,-0.088 0.772,-0.034 1.034,0.162c0.341,0.255 0.425,0.662 0.459,1.031c0.989,-0.001 1.204,0.24 1.586,1.357l0.034,0.1c0.078,0.226 0.424,0.5 0.59,0.631c0.165,0.13 0.352,0.232 0.538,0.336c0.218,0.121 0.436,0.245 0.632,0.394c0.158,0.121 0.31,0.25 0.461,0.38c0.605,0.518 1.008,0.833 1.638,0.739c0.25,-0.04 0.447,0.084 0.564,0.156c0.247,0.127 0.457,0.231 0.568,0.27c0.073,-0.092 0.193,-0.287 0.293,-0.45c0.284,-0.46 0.475,-0.82 0.621,-1.166l0.289,-0.689c0.575,-1.372 1.171,-2.791 1.705,-4.201c0.7,-1.846 0.7,-1.846 -1.114,-2.779c-1.859,-0.957 -3.723,-1.904 -5.587,-2.851l-2.979,-1.515c-0.161,-0.083 -0.316,-0.175 -0.473,-0.268l-0.549,-0.322l0.368,-1.059Zm7.802,16.247l0.044,0.02l0.022,-0.054c-0.022,0.012 -0.044,0.023 -0.066,0.034m15.394,-2.07l0.13,0.002c1.462,0.044 2.719,0.62 3.934,1.177l0.627,0.284c0.923,0.408 1.811,0.904 2.67,1.384c0.696,0.388 1.413,0.79 2.135,1.134c6.308,3.013 12.625,6.009 18.949,8.988l1.01,0.476c1.185,0.56 2.558,0.813 4.175,0.762c0.663,-0.019 1.43,-0.202 2.279,-0.542c0.264,-0.106 0.596,-0.295 0.682,-0.597c0.074,-0.264 -0.038,-0.618 -0.319,-0.997c-0.632,-0.857 -1.506,-1.475 -2.924,-2.067c-0.521,-0.214 -1.045,-0.419 -1.572,-0.615c-0.947,-0.36 -1.927,-0.732 -2.855,-1.2c-4.49,-2.266 -9.306,-3.969 -13.963,-5.616c-2.124,-0.751 -4.32,-1.528 -6.462,-2.349c-0.649,-0.249 -1.341,-0.45 -2.01,-0.645c-0.626,-0.182 -1.252,-0.364 -1.862,-0.587c-0.65,-0.236 -1.035,-0.594 -1.144,-1.063c-0.111,-0.478 0.086,-0.981 0.584,-1.499c0.122,-0.125 0.405,-0.418 0.439,-0.518c-0.04,-0.009 -0.356,-0.277 -0.49,-0.391c-1.277,-1.081 -2.799,-1.58 -4.411,-2.109c-0.405,-0.13 -0.808,-0.266 -1.209,-0.407l-0.03,0.05l0.471,0.247c0.764,0.397 1.555,0.807 2.311,1.253c0.507,0.299 0.921,0.751 1.269,1.151c0.207,0.238 0.21,0.544 0.212,0.768c0,0.059 0,0.118 0.006,0.172l0.06,0.505l-0.505,0.052c-0.049,0.005 -0.101,0.017 -0.153,0.028c-0.194,0.04 -0.458,0.097 -0.72,-0.015c-0.291,-0.126 -0.581,-0.256 -0.869,-0.389c0.195,0.203 0.374,0.429 0.535,0.683l0.175,0.275l-0.181,0.271c-0.612,0.911 -0.972,1.147 -2.069,0.842c-0.617,-0.176 -1.215,-0.412 -1.786,-0.705c-0.241,-0.123 -0.48,-0.252 -0.718,-0.383c0.529,0.407 1.031,0.839 1.507,1.254c0.36,0.313 0.362,0.641 0.331,0.809c-0.056,0.305 -0.287,0.547 -0.65,0.68c-0.508,0.188 -1.356,0.5 -2.224,0.043c-0.373,-0.196 -0.747,-0.389 -1.123,-0.579c-0.752,-0.375 -1.495,-0.769 -2.227,-1.183c-0.858,-0.495 -1.079,-0.627 -1.606,-0.121l0.953,0.473c1.202,0.594 2.398,1.184 3.576,1.807c1.131,0.599 2.052,0.511 2.983,-0.281c0.558,-0.473 1.256,-0.712 2.079,-0.712m33.533,15.877c-1.303,0 -2.65,-0.282 -4.033,-0.846c-3.111,-1.262 -6.183,-2.616 -9.213,-4.06c-3.308,-1.583 -6.645,-3.244 -9.873,-4.851c-1.548,-0.77 -3.096,-1.541 -4.646,-2.306l-0.81,-0.404c-0.902,-0.452 -1.835,-0.92 -2.774,-1.304c-1.46,-0.597 -2.672,-0.485 -3.701,0.343c-1.114,0.897 -2.344,1.016 -3.657,0.357c-0.588,-0.293 -1.179,-0.579 -1.773,-0.859c-0.691,-0.324 -1.377,-0.659 -2.059,-1.003c-0.254,-0.13 -0.297,-0.119 -0.475,0.025c-1.289,1.024 -2.469,1.648 -3.712,1.964c-0.567,0.143 -1.198,0.21 -1.986,0.212l-0.002,0c-0.307,0 -0.562,-0.131 -0.788,-0.245c-0.083,-0.043 -0.167,-0.087 -0.252,-0.117l-0.361,-0.137c-0.322,-0.124 -0.628,-0.242 -0.927,-0.292c-0.794,-0.133 -1.796,-0.41 -2.504,-1.384c-0.11,-0.152 -0.256,-0.279 -0.363,-0.315c-1.065,-0.371 -1.732,-1.108 -1.948,-2.145c-0.967,-0.088 -1.487,-0.297 -1.659,-1.121c-0.761,-0.01 -1.403,-0.343 -1.944,-0.688c-0.508,-0.321 -1.016,-0.639 -1.526,-0.957l-0.754,-0.505l-0.541,-0.684l-0.018,-0.138c-0.013,-0.11 -0.034,-0.219 -0.053,-0.329c-0.051,-0.276 -0.109,-0.589 -0.076,-0.912c0.044,-0.426 0.083,-0.852 0.121,-1.279c0.249,-2.755 0.505,-5.605 2.236,-8.099l0.101,-0.106l0.642,-0.502c0.344,-0.19 0.692,-0.372 1.042,-0.554c0.774,-0.404 1.505,-0.785 2.183,-1.256c0.985,-0.684 1.965,-1.419 2.913,-2.13c0.985,-0.749 1.984,-1.478 2.997,-2.188c0.847,-0.586 1.853,-1.088 2.991,-1.49c0.689,-0.246 1.535,-0.005 1.981,0.158c1.012,0.373 2.085,0.801 3.066,1.407c0.67,0.413 1.167,1.033 1.702,1.741c0.129,0.172 0.205,0.213 0.451,0.247c0.484,0.066 1.016,0.139 1.453,0.424c0.772,0.508 1.536,1.027 2.293,1.558c0.687,0.477 1.374,0.954 2.073,1.414c0.599,0.395 1.274,0.718 1.913,1.013c1.336,0.618 1.662,1.161 1.589,2.642c-0.029,0.693 0.014,1.387 0.128,2.071c0.179,1.133 0.415,2.282 0.642,3.393l0.084,0.411c0.046,0.228 0.156,0.772 -0.167,1.233c0.275,0.139 0.537,0.283 0.781,0.469c0.576,0.439 1.119,0.936 1.618,1.477c0.33,0.359 0.378,0.708 0.361,0.939c-0.019,0.241 -0.129,0.601 -0.553,0.941c-0.136,0.113 -0.265,0.234 -0.385,0.364c0.253,0.144 0.477,0.268 0.697,0.342c1.302,0.444 2.611,0.872 3.919,1.301c2.51,0.822 5.106,1.672 7.623,2.622c2.592,0.979 5.176,2.098 7.675,3.18c1.096,0.474 2.191,0.949 3.29,1.414c0.481,0.202 0.962,0.402 1.443,0.602c1.227,0.51 2.497,1.036 3.724,1.61c0.812,0.379 1.594,0.832 2.35,1.271c0.337,0.195 0.675,0.391 1.015,0.58l0.148,0.126l0.759,0.957c0.612,1.151 0.25,2.132 -0.129,2.866l-0.134,0.164l-0.988,0.755c-1.025,0.407 -2.118,0.615 -3.22,0.613" style="fill:#231f20;fill-rule:nonzero;"/><path d="M68.074,54.476c0.46,-1.059 0.721,-2.136 0.216,-3.283l0.775,1.874l-0.991,1.409" style="fill:#fff;fill-rule:nonzero;"/><path d="M31.637,43.629c-0.089,0.418 -0.143,0.668 -0.195,0.918c0.339,-0.032 0.685,-0.034 1.009,-0.121c0.063,-0.017 0.118,-0.482 0.037,-0.537c-0.203,-0.138 -0.485,-0.16 -0.851,-0.26m-0.584,1.161c-0.295,-0.396 -0.166,-1.156 0.25,-1.474c0.512,-0.393 1.126,-0.268 1.58,0.321c0.421,0.548 0.372,1.062 -0.136,1.429c-0.489,0.353 -1.329,0.216 -1.694,-0.276m6.646,-12.525c-0.392,-0.824 -0.796,-1.129 -1.188,-0.896c-0.432,0.256 -0.589,0.819 -0.339,1.212c0.276,0.434 0.714,0.343 1.527,-0.316m0.858,0.567c-0.484,0.245 -0.886,0.479 -1.312,0.659c-0.827,0.349 -1.46,0.127 -1.786,-0.592c-0.316,-0.695 0.029,-1.686 0.715,-2.059c0.641,-0.349 1.444,-0.12 1.826,0.584c0.235,0.436 0.371,0.926 0.557,1.408m2.004,2.9c-0.298,-0.388 -0.638,-0.644 -1.075,-0.319c-0.108,0.079 -0.101,0.555 0.014,0.646c0.447,0.355 0.77,0.061 1.061,-0.327m0.189,-0.533c0.397,0.512 0.387,1.153 -0.022,1.462c-0.194,0.153 -0.434,0.237 -0.682,0.237c-0.343,0 -0.666,-0.16 -0.874,-0.433c-0.456,-0.568 -0.484,-1.354 -0.062,-1.71c0.41,-0.346 1.192,-0.134 1.64,0.444" style="fill:#231f20;fill-rule:nonzero;"/><path d="M28.883,33.612l0.514,-0.859c2.099,0.789 4.364,1.225 6.16,2.746c0.861,0.73 0.873,0.823 0.089,1.637c-0.726,0.753 -0.63,1.382 0.369,1.746c1.274,0.464 2.615,0.749 3.881,1.234c6.838,2.623 13.9,4.669 20.471,7.985c1.409,0.712 2.933,1.192 4.394,1.801c1.21,0.505 2.331,1.143 3.135,2.231c0.729,0.987 0.557,1.9 -0.579,2.355c-0.774,0.31 -1.626,0.554 -2.452,0.578c-1.505,0.044 -3.013,-0.153 -4.404,-0.809c-6.658,-3.145 -13.318,-6.287 -19.96,-9.465c-1.626,-0.778 -3.145,-1.784 -4.791,-2.513c-1.394,-0.617 -2.771,-1.37 -4.374,-1.418c-0.714,-0.021 -1.35,0.15 -1.87,0.591c-1.118,0.951 -2.258,1.02 -3.54,0.343c-1.682,-0.89 -3.397,-1.712 -5.117,-2.572c1.04,-1.187 1.383,-1.21 2.677,-0.463c1.086,0.626 2.222,1.168 3.334,1.753c0.622,0.328 1.223,0.149 1.817,-0.07c0.34,-0.125 0.467,-0.38 0.164,-0.643c-0.636,-0.554 -1.279,-1.103 -1.965,-1.592c-0.557,-0.399 -1.191,-0.69 -1.765,-1.069c-0.135,-0.089 -0.165,-0.34 -0.243,-0.518c0.194,-0.069 0.391,-0.202 0.579,-0.189c0.208,0.014 0.417,0.146 0.611,0.254c0.851,0.471 1.683,0.978 2.55,1.421c0.541,0.278 1.108,0.502 1.693,0.669c0.835,0.233 1,0.135 1.518,-0.639c-1.028,-1.621 -2.95,-1.977 -4.424,-3.027l0.408,-0.599c0.914,0.516 1.817,1.049 2.743,1.54c0.726,0.386 1.471,0.739 2.226,1.064c0.17,0.073 0.415,-0.029 0.625,-0.05c-0.028,-0.229 0.026,-0.528 -0.099,-0.671c-0.339,-0.39 -0.708,-0.791 -1.146,-1.05c-1.046,-0.616 -2.139,-1.154 -3.229,-1.732" style="fill:#231f20;fill-rule:nonzero;"/><path d="M27.904,36.971c0.346,-0.189 0.695,-0.527 0.876,-0.454c0.69,0.282 1.326,0.696 2.021,1.082c-0.678,0.69 -1.46,0.493 -2.897,-0.628m0.115,2.687c-0.833,0.242 -1.864,-0.126 -2.69,-0.96c0.82,-0.489 2.068,-0.043 2.69,0.96m1.792,-5.133c-0.513,0.467 -1.708,0 -2.131,-0.858c0.897,-0.06 1.41,0.628 2.131,0.858m2.306,1.72l-1.94,-0.769l0.093,-0.239c0.785,-0.115 1.334,0.388 1.926,0.779l-0.079,0.229m-0.48,7.384c0.366,0.1 0.648,0.122 0.851,0.26c0.081,0.055 0.026,0.52 -0.037,0.537c-0.324,0.087 -0.67,0.089 -1.009,0.121c0.052,-0.25 0.106,-0.5 0.195,-0.918m6.062,-11.364c-0.813,0.659 -1.251,0.75 -1.527,0.316c-0.25,-0.393 -0.093,-0.956 0.339,-1.212c0.392,-0.233 0.796,0.072 1.188,0.896m2.862,3.467c-0.291,0.388 -0.614,0.682 -1.061,0.327c-0.115,-0.091 -0.122,-0.567 -0.014,-0.646c0.437,-0.325 0.777,-0.069 1.075,0.319" style="fill:#fff;fill-rule:nonzero;"/><path d="M27.515,28.859c-0.175,0.713 -0.397,0.964 -1.09,0.75c-0.9,-0.28 -1.444,0.067 -1.98,0.737c-0.303,0.38 -0.762,0.645 -1.177,0.923c-0.359,0.237 -0.76,0.404 -1.182,0.492c0.163,-0.197 0.288,-0.494 0.496,-0.574c1.01,-0.389 1.734,-1.088 2.357,-1.942c0.099,-0.137 0.412,-0.178 0.62,-0.164c0.256,0.017 0.522,0.233 0.753,0.19c0.292,-0.053 0.771,-0.256 0.791,-0.435c0.118,-1.114 1.029,-1.432 1.788,-1.85c0.776,-0.426 1.627,-0.718 2.453,-1.047c0.164,-0.066 0.367,-0.033 0.552,-0.046l0.054,0.211" style="fill:none;stroke:#231f20;stroke-width:1px;"/></svg>