<?xml version="1.0" encoding="UTF-8" standalone="no"?><!DOCTYPE svg PUBLIC "-//W3C//DTD SVG 1.1//EN" "http://www.w3.org/Graphics/SVG/1.1/DTD/svg11.dtd"><svg width="100%" height="100%" viewBox="0 0 72 72" version="1.1" xmlns="http://www.w3.org/2000/svg" xmlns:xlink="http://www.w3.org/1999/xlink" xml:space="preserve" xmlns:serif="http://www.serif.com/" style="fill-rule:evenodd;clip-rule:evenodd;stroke-linejoin:round;stroke-miterlimit:1.41421;"><g><path d="M17.269,40.768l0,-3.6c0.085,-0.386 0.194,-0.769 0.252,-1.159c0.692,-4.655 2.601,-8.461 7.216,-10.386c0.095,-0.04 0.217,-0.015 0.344,-0.022l-0.194,0.46l4.891,2.565c-2.217,2.182 -2.815,4.547 -2.65,6.96c1.783,-0.424 3.497,-0.843 5.218,-1.236c0.585,-0.133 0.903,0.029 1.076,0.727c0.458,1.859 1.622,3.254 3.17,4.366c0.528,0.379 0.86,0.346 1.323,-0.106c1.564,-1.523 2.544,-3.335 2.445,-5.527c-0.046,-1.001 0.367,-1.304 1.142,-1.404c1.636,-0.21 3.279,-0.364 4.936,-0.543c-0.724,-2.119 -1.918,-4.082 -4.165,-5.226c1.546,-1.835 2.625,-2.1 4.642,-1.263c1.978,0.821 3.575,2.106 4.758,3.884c3.285,4.936 4.342,14.671 -2.008,20.546c-5.613,5.195 -12.209,6.798 -19.539,4.694c-6.05,-1.737 -10.411,-5.456 -12.287,-11.682c-0.204,-0.678 -0.381,-1.365 -0.57,-2.048" style="fill:#231f20;fill-rule:nonzero;"/><path d="M33.109,18.928l2.371,5.837c2.488,-2.336 5.189,-2.724 8.129,-0.963l-3.541,3.121c3.363,1.748 3.672,2.009 4.392,3.609l-5.508,1.216c0.512,3.107 0.016,4.901 -1.842,6.53c-1.906,-1.317 -2.754,-3.184 -2.813,-5.464l-5.931,0.918c0.271,-2.054 1.257,-3.649 3.188,-4.917l-4.248,-3.244c1.655,-1.715 3.764,-1.916 7.427,-0.5c-0.635,-1.683 -1.231,-3.18 -1.751,-4.703c-0.151,-0.441 -0.081,-0.958 -0.113,-1.44l0.24,0Z" style="fill:#231f20;fill-rule:nonzero;"/></g></svg>