<?xml version="1.0" encoding="UTF-8" standalone="no"?><!DOCTYPE svg PUBLIC "-//W3C//DTD SVG 1.1//EN" "http://www.w3.org/Graphics/SVG/1.1/DTD/svg11.dtd"><svg width="100%" height="100%" viewBox="0 0 72 72" version="1.1" xmlns="http://www.w3.org/2000/svg" xmlns:xlink="http://www.w3.org/1999/xlink" xml:space="preserve" xmlns:serif="http://www.serif.com/" style="fill-rule:evenodd;clip-rule:evenodd;stroke-linejoin:round;stroke-miterlimit:1.41421;"><g><path d="M8.28,39.973l0,-0.96c0.684,-0.725 1.386,-1.434 2.049,-2.177c1.632,-1.831 2.301,-1.945 4.15,-0.655c1.547,-1.282 2.384,-1.318 4.061,-0.156c1.274,-1.292 2.639,-1.26 3.712,-0.405l3.359,-0.852c0.194,-0.18 0.539,-0.754 0.885,-0.755c0.43,-0.002 0.861,0.471 1.429,0.825l1.41,0c0.503,-0.504 0.87,-1.17 1.277,-1.195c0.414,-0.026 0.867,0.579 1.443,1.014l1.535,0l0.85,-1.884l0.72,0l0.712,1.798l1.784,0l0.864,-1.798l0.72,0l0.693,1.909l1.915,0c0.267,-0.525 0.752,-1.133 1.055,-1.053c0.453,0.12 0.778,0.724 1.21,1.177l1.722,0.102c0.767,-1.271 1.069,-1.297 1.999,-0.198c0.104,0.122 0.296,0.196 0.46,0.237c0.888,0.225 1.781,0.433 2.896,0.7c1.396,-0.903 2.144,-0.871 3.704,0.348c1.676,-1.114 2.497,-1.082 4.047,0.161c1.542,-1.06 2.769,-1.048 3.732,-0.021c0.366,0.39 0.811,0.714 1.252,1.022c0.808,0.565 1.3,1.268 1.254,2.301c-0.045,1.009 -0.479,1.746 -1.386,2.203c-0.246,0.124 -0.527,0.225 -0.717,0.412c-1.718,1.687 -2.283,1.77 -4.176,0.56c-1.615,1.273 -2.251,1.295 -4.024,0.139c-1.448,1.14 -2.394,1.186 -3.779,0.33l-3.244,1.004c-0.634,1.059 -1.219,1.054 -1.991,-0.237l-1.684,0.09c-0.52,0.537 -0.935,1.24 -1.206,1.188c-0.486,-0.093 -0.886,-0.639 -1.46,-1.109l-1.743,0.096l0.244,0.25c-0.384,0.499 -0.71,1.355 -1.163,1.429c-1.283,0.211 -0.686,-1.115 -1.016,-1.63l-2.054,0l0.203,0.233c-0.401,0.491 -0.752,1.339 -1.212,1.404c-1.312,0.184 -0.664,-1.131 -1.031,-1.743l-2.007,0c-0.289,0.512 -0.769,1.107 -1.083,1.03c-0.457,-0.112 -0.796,-0.709 -1.262,-1.177l-1.801,0c-0.567,1.1 -1.091,1.168 -1.862,0.235c-0.137,-0.167 -0.32,-0.289 -0.527,-0.35c-0.92,-0.22 -1.849,-0.405 -3.019,-0.655c-1.25,0.801 -2.151,0.748 -3.709,-0.418c-1.568,1.169 -2.269,1.146 -4.074,-0.16c-0.918,0.92 -2.071,1.262 -3.113,0.45c-1.116,-0.871 -2.011,-2.027 -3.003,-3.059" style="fill:#231f20;fill-rule:nonzero;"/><path d="M38.52,32.773l-0.863,1.797l-1.784,0l-0.713,-1.797l3.36,0Z" style="fill:#fff;fill-rule:nonzero;"/></g></svg>