<svg viewBox="0 0 72 72" xmlns="http://www.w3.org/2000/svg" xmlns:serif="http://www.serif.com/" fill-rule="evenodd" clip-rule="evenodd" stroke-linejoin="round" stroke-miterlimit="1.414"><path serif:id="Plan de travail1" fill="none" d="M-144-144h382.774v392.88H-144z"/><g fill-rule="nonzero"><path d="M17.651 43.934l-.118.336c.35.17.717.514 1.049.484 2.59-.233 4.55-1.602 6.22-3.52-.493-.503-.843-.723-1.429-.151-1.586 1.551-3.46 2.6-5.722 2.851m36.672-16.526l.169-.411c-.346-.196-.749-.618-1.028-.548-1.574.397-3.251.672-4.636 1.447-1.793 1.004-3.344 2.44-5.025 3.709 1.105 1.285 1.789.179 2.355-.404 1.699-1.756 3.717-2.818 6.102-3.253.698-.127 1.376-.357 2.063-.54M14.99 38.986c.641 1.315 1.146 2.43 1.736 3.498.136.244.59.497.853.456 2-.31 3.801-1.049 5.186-2.793-2.599.082-4.843-1.901-7.775-1.161m32.663-4.543c1.627.349 2.982.773 4.332-.212.46-.335 1.118-.402 1.689-.583.761-.242 1.541-.432 2.283-.725.758-.299.761-.915.531-1.598-.216-.637-.556-.884-1.256-.668-.99.306-2.025.471-3.011.789-1.72.557-3.291 1.376-4.568 2.997M19.711 47.935c.322 1.702.887 2.425 1.787 2.139 1.313-.416 2.678-.843 3.822-1.577 1.801-1.155 3.436-2.569 5.11-3.849-.235-.089-.723-.175-1.091-.433-1.424-.999-2.489-.406-3.514.662-1.651 1.72-3.633 2.815-6.114 3.058m-1.39-19.39l-.419.137c.136.428.145.986.428 1.264 1.472 1.442 3.278 2.217 5.334 2.418 2.301.226 4.293 1.138 5.979 2.73 1.562 1.471 3.416 2.321 5.559 2.516 2.276.207 4.215 1.129 5.865 2.699 1.496 1.422 3.284 2.259 5.332 2.464 2.046.205 3.856.937 5.483 2.177.812.618 1.65 1.201 2.575 1.872l.44-1.209c-.975-.725-1.798-1.54-2.783-2.02-1.447-.705-2.971-1.393-4.536-1.684-2.309-.43-4.361-1.192-6.073-2.826-1.587-1.511-3.495-2.343-5.68-2.546-2.267-.212-4.229-1.103-5.861-2.695-1.452-1.416-3.2-2.305-5.19-2.504-2.476-.246-4.615-1.129-6.453-2.793m35.171-3.208c-.594-1.246-1.072-2.337-1.642-3.379-.114-.21-.602-.373-.868-.317-2.866.599-5.66 1.336-7.77 3.618-1.131 1.223-2.591 1.941-4.251 2.261-1.246.24-2.473.577-3.708.871l.014.48c.907.236 1.812.481 2.722.707 1.081.268 2.269.321 3.224.824 1.299.684 2.274.344 3.28-.418.38-.288.7-.658 1.089-.931 1.101-.773 2.152-1.671 3.357-2.228 1.392-.642 2.927-.974 4.553-1.488m-.558 24.577c-1.011-.743-1.898-1.61-2.958-2.126-1.554-.755-3.185-1.476-4.864-1.816-2.1-.426-3.987-1.097-5.541-2.591-1.615-1.552-3.553-2.428-5.768-2.647-2.189-.216-3.953-1.214-5.688-2.531-1.395-1.06-3.026-2.104-4.695-2.437-2.632-.526-5.113-1.112-7.106-3.174-.196.417-.316.706-.463.981-.509.95-.358 1.617.576 2.314 1.429 1.065 2.97 1.714 4.714 1.891 2.354.24 4.379 1.171 6.094 2.783 1.51 1.419 3.297 2.239 5.347 2.445 2.356.237 4.366 1.173 6.086 2.792 1.342 1.264 2.918 2.131 4.769 2.305 2.512.237 4.679 1.173 6.632 2.764 1.518 1.236 2.172.985 2.865-.953m4.235-9.082c-2.415-1.751-4.561-3.767-7.617-4.018-2.283-.188-4.212-1.089-5.878-2.648-1.626-1.521-3.577-2.382-5.793-2.601-2.149-.212-3.98-1.069-5.551-2.548-1.621-1.524-3.559-2.411-5.778-2.635-2.006-.203-3.785-.917-5.31-2.247-.229-.2-.492-.36-.815-.593l-1.778 3.918c1.589 1.667 3.458 2.638 5.694 2.854 2.437.235 4.542 1.181 6.314 2.857 1.506 1.425 3.287 2.231 5.336 2.439 2.434.246 4.515 1.217 6.291 2.9 1.467 1.392 3.225 2.186 5.246 2.364 2.046.181 3.861.921 5.487 2.166.744.57 1.52 1.099 2.35 1.695l1.802-3.903m1.561-9.289c-.138 3.271-2.641 3.687-5.29 4.163 1.399.999 2.643 1.873 3.87 2.77.448.328.906.666 1.271 1.078.554.63.761 1.342.368 2.189-1.484 3.188-2.926 6.395-4.401 9.587-1.12 2.423-3.11 3.023-5.24 1.402-1.996-1.518-4.106-2.506-6.632-2.759-2.175-.218-3.965-1.407-5.528-2.897-.854-.815-1.701-1.129-2.978-.9-2.582.462-4.884 1.257-6.761 3.212-1.413 1.472-3.275 2.239-5.289 2.609-1.925.354-2.893-.062-3.8-1.834-1.523-2.979-3-5.98-4.482-8.979-.325-.66-.892-1.394-.803-2.016.112-.795.776-1.512 1.276-2.393-1.234-1.015-.963-2.507-.287-4.007a746.83 746.83 0 0 1 4.394-9.589c.896-1.92 2.201-2.234 3.787-.841 1.409 1.238 2.983 1.925 4.843 2.106 2.119.205 3.982 1.098 5.716 2.308.294.205.792.314 1.132.224 1.418-.375 2.791-.936 4.219-1.254 1.574-.351 2.934-.997 4.054-2.158 2.532-2.628 5.893-3.388 9.28-4.017 1.16-.215 1.789.692 2.252 1.625 1.447 2.922 2.884 5.85 4.331 8.772.048.095.174.152.264.226l.434 1.373" fill="#231f20"/><path d="M57.169 40.832l-1.802 3.903c-.83-.596-1.605-1.125-2.349-1.695-1.626-1.245-3.442-1.985-5.488-2.166-2.02-.178-3.779-.972-5.246-2.364-1.775-1.683-3.856-2.654-6.291-2.9-2.049-.208-3.83-1.014-5.336-2.439-1.771-1.676-3.877-2.622-6.313-2.857-2.237-.216-4.106-1.187-5.695-2.854l1.779-3.918c.322.233.586.393.814.593 1.526 1.33 3.304 2.044 5.311 2.247 2.219.224 4.156 1.111 5.777 2.636 1.571 1.478 3.402 2.335 5.552 2.547 2.216.219 4.167 1.08 5.793 2.601 1.666 1.559 3.595 2.46 5.878 2.648 3.055.251 5.201 2.267 7.616 4.018M52.934 49.914c-.693 1.938-1.348 2.189-2.865.953-1.953-1.591-4.12-2.527-6.632-2.764-1.852-.174-3.427-1.041-4.77-2.305-1.719-1.619-3.729-2.555-6.086-2.792-2.049-.206-3.836-1.026-5.346-2.445-1.715-1.612-3.74-2.543-6.094-2.783-1.744-.177-3.285-.826-4.714-1.891-.934-.697-1.085-1.364-.576-2.314.146-.275.267-.564.463-.981 1.993 2.062 4.474 2.648 7.105 3.174 1.67.333 3.301 1.377 4.696 2.437 1.735 1.317 3.499 2.315 5.688 2.531 2.215.219 4.152 1.095 5.768 2.647 1.553 1.494 3.441 2.165 5.541 2.591 1.678.34 3.31 1.061 4.864 1.817 1.06.515 1.947 1.382 2.958 2.125M53.492 25.337c-1.626.515-3.161.846-4.553 1.488-1.205.557-2.256 1.455-3.357 2.228-.389.273-.709.643-1.089.931-1.006.763-1.98 1.102-3.279.418-.955-.503-2.144-.556-3.225-.824-.91-.225-1.814-.471-2.722-.707l-.014-.48c1.235-.294 2.463-.631 3.708-.871 1.66-.32 3.12-1.038 4.251-2.261 2.11-2.281 4.904-3.019 7.77-3.618.266-.056.754.108.868.317.57 1.042 1.048 2.133 1.642 3.379" fill="#fff"/><path d="M18.321 28.546c1.838 1.664 3.978 2.546 6.453 2.793 1.99.198 3.738 1.087 5.191 2.504 1.631 1.592 3.593 2.483 5.86 2.694 2.185.204 4.093 1.035 5.68 2.547 1.712 1.633 3.764 2.396 6.073 2.825 1.565.291 3.089.98 4.536 1.685.985.48 1.808 1.295 2.783 2.02l-.44 1.209c-.925-.671-1.763-1.255-2.574-1.873-1.627-1.239-3.438-1.971-5.484-2.176-2.048-.206-3.836-1.042-5.332-2.464-1.65-1.57-3.589-2.493-5.865-2.699-2.143-.195-3.997-1.045-5.559-2.517-1.686-1.591-3.677-2.504-5.979-2.729-2.056-.201-3.862-.976-5.334-2.419-.283-.277-.292-.836-.428-1.264l.419-.136zM19.711 47.936c2.481-.243 4.464-1.339 6.114-3.058 1.026-1.068 2.09-1.662 3.514-.663.368.259.856.344 1.092.434-1.674 1.28-3.31 2.694-5.111 3.849-1.143.733-2.508 1.16-3.822 1.577-.899.285-1.465-.437-1.787-2.139M47.653 34.444c1.277-1.621 2.848-2.44 4.568-2.997.986-.318 2.021-.483 3.011-.789.7-.216 1.04.031 1.256.667.23.683.228 1.3-.531 1.599-.742.292-1.522.483-2.283.725-.571.181-1.229.248-1.689.583-1.35.984-2.705.561-4.332.212M14.99 38.987c2.932-.741 5.176 1.243 7.775 1.161-1.384 1.743-3.186 2.483-5.186 2.793-.263.041-.717-.212-.853-.456-.59-1.068-1.094-2.183-1.736-3.498M54.323 27.409c-.687.183-1.365.413-2.063.54-2.385.435-4.403 1.497-6.102 3.252-.565.584-1.25 1.69-2.355.405 1.681-1.269 3.232-2.705 5.025-3.709 1.385-.776 3.062-1.05 4.636-1.447.279-.07.682.352 1.028.547l-.169.412M17.651 43.934c2.262-.251 4.136-1.3 5.722-2.851.586-.572.936-.352 1.429.151-1.67 1.918-3.63 3.287-6.22 3.52-.332.03-.699-.314-1.049-.484l.118-.336" fill="#fff"/></g></svg>