<svg viewBox="0 0 72 72" xmlns="http://www.w3.org/2000/svg" xmlns:serif="http://www.serif.com/" fill-rule="evenodd" clip-rule="evenodd" stroke-linejoin="round" stroke-miterlimit="1.414"><path serif:id="Plan de travail1" fill="none" d="M0-216h382.774v392.88H0z"/><path d="M33.696 18.727h4.32c.142.063.281.173.427.184 9.231.692 15.832 8.258 15.32 16.718-.205 3.395-2.469 6.765-5.65 7.702-3.139.926-5.697-.768-5.618-3.718.04-1.517.972-2.606 2.156-2.519 1.436.107 2.483 1.496 2.247 2.996-.059.378-.153.75-.26 1.261 1.383-.459 1.808-1.426 1.935-2.597.437-4.05-3.612-6.654-7.955-6.32.212 2.406.39 4.817.643 7.221.355 3.364.935 6.717 1.076 10.088.059 1.418-.578 2.959-1.226 4.283-.575 1.174-1.738 1.537-3.171 1.302-1.338-.221-2.765-.205-4.108.001-1.314.201-2.45-.048-3.035-1.114-.669-1.219-1.186-2.623-1.352-3.997-.409-3.373.395-6.669 1.013-9.966.484-2.585.736-5.187.483-7.889-1.851-.032-3.499.305-5 1.216-1.854 1.125-2.844 2.777-2.777 4.965.046 1.503.8 2.44 2.041 2.667-.107-.358-.23-.685-.301-1.024-.304-1.432.679-2.856 2.129-3.105 1.033-.177 2.041.744 2.287 2.143.068.384.064.803-.009 1.187-.435 2.306-2.712 3.57-5.273 2.951-3.165-.764-5.603-3.772-5.945-7.33-.657-6.839 3.607-13.623 10.097-15.891 1.782-.623 3.668-.951 5.506-1.415" fill="#231f20" fill-rule="nonzero"/></svg>