<svg viewBox="0 0 72 72" xmlns="http://www.w3.org/2000/svg" xmlns:serif="http://www.serif.com/" fill-rule="evenodd" clip-rule="evenodd" stroke-linejoin="round" stroke-miterlimit="1.414"><path serif:id="Plan de travail1" fill="none" d="M-144-72h382.774v392.88H-144z"/><g fill-rule="nonzero"><path d="M60.765 47.735v7.679H11.331v-34.48h49.434v26.527c-.541-.389-1.002-.917-1.729-.979-.048-.004-.096-.058-.137-.097-.422-.398-.941-.59-1.496-.706-.244-.051-.518-.051-.728-.165-.875-.476-1.814-.74-2.779-.934-.603-.121-1.208-.224-1.7-.315-.28-1.473-.552-2.882-.814-4.292-.074-.402-.125-.81-.166-1.217-.024-.246.045-.428.351-.476.206-.032.409-.144.592-.257.557-.345.808-.952.57-1.462-.283-.611-.657-1.149-1.376-1.332-.268-.069-.522-.196-.8-.304.492-.929.748-1.878.865-2.855.118-.982.157-1.974.223-2.877.816-.246 1.639-.466 2.442-.74a117.87 117.87 0 0 0 4.057-1.455c.408-.157.783-.421 1.14-.682.262-.192.414-.478.3-.863-.143.014-.29-.006-.407.044-.617.261-1.249.498-1.833.819-1.671.919-3.381 1.72-5.302 1.933-.627.069-1.029.389-1.196.96-.127.433-.182.894-.212 1.346-.049.775-.031 1.554-.082 2.328-.037.557-.156 1.102-.583 1.512-.044-.018-.07-.022-.086-.036-.752-.695-1.654-1.119-2.596-1.488-.998-.39-2.021.079-3.019-.135-.04-.008-.088.019-.132.029-.823.185-1.335.725-1.513 1.511-.142.632-.141 1.296-.21 2.006-.172-.276-.364-.537-.506-.822-.224-.448-.559-.719-1.061-.75-.615-.038-1.23-.063-1.847-.089-.198-.009-.397-.002-.596-.002l-.042-.114c.563-.46 1.118-.931 1.69-1.379.81-.634 1.644-1.238 2.279-2.066.05-.066.167-.102.257-.114.689-.092 1.382-.157 2.068-.267 1.075-.171 2.135-.516 3.232-.063.362.15 1.018-.286 1.161-.688-.456-.175-.764.468-1.334.2.22-.227.408-.41.582-.603.485-.538 1.01-1.047 1.433-1.629.627-.863 1.272-1.691 2.18-2.279.132-.086.301-.166.367-.293.067-.131.063-.327.018-.473-.018-.06-.228-.1-.342-.086-.459.058-.713.401-.996.724-.363.418-.769.799-1.156 1.197-.386.399-.791.782-1.151 1.204-.311.363-.554.783-.856 1.154-.284.349-.653.506-1.128.541-1.067.078-2.147.151-3.189.378-1.223.266-2.266 1.002-3.354 1.592-1.242.672-2.116 1.701-2.502 3.082-.097.345-.285.534-.597.625-.217.064-.445.137-.667.129-.568-.019-1.136-.098-1.705-.117-.336-.011-.454-.167-.415-.467.117-.904.238-1.806.37-2.708.137-.935.356-1.864.41-2.804.041-.723-.051-1.505-.829-1.896-1.417-.713-2.873-1.297-4.515-1.144-.317.029-.648.058-.956-.002-.335-.065-.73-.152-.955-.375a7.335 7.335 0 0 1-1.163-1.506 3.382 3.382 0 0 0-.754-.921c-.734-.632-1.411-1.331-2.114-2-.152-.145-.314-.281-.516-.462-.045.545.103.968.493 1.201.457.271.696.701 1.013 1.082.877 1.054 1.799 2.07 2.655 3.14.375.468.808.741 1.387.756 1.186.029 2.295.296 3.327.904.274.161.626.221.95.25.303.027.539.16.62.405.103.31.16.665.121.987-.047.378-.202.747-.337 1.11a4.012 4.012 0 0 0-.193 2.121c.085.509.157 1.039-.354 1.368l.102.399-.918-.17c-.024.043-.046.087-.069.13.127.181.237.377.385.54.191.21.425.382.619.59.176.188.328.402.182.741-.096-.103-.193-.163-.223-.247-.118-.332-.375-.472-.691-.525-.348-.058-.548-.233-.628-.593-.042-.19-.175-.377-.31-.526-.559-.618-.928-1.349-1.307-2.081-.796-1.528-1.742-2.956-3.055-4.095a2.668 2.668 0 0 0-1.009-.54c-1.108-.308-2.248-.242-3.37-.105-.937.115-1.861.336-2.787.527-.656.136-1.22-.025-1.715-.46-.283-.249-.554-.514-.846-.751-.465-.376-.47-.37-.899-.107-.33-.258-.619-.576-.978-.743-.563-.264-1.173-.43-1.765-.632a141.28 141.28 0 0 0-1.901-.638c-.086-.028-.182-.024-.323-.041.19.519.508.835.942 1.012.357.145.732.277 1.11.332 1.066.155 2.016.573 2.88 1.195.582.419 1.147.864 1.699 1.323.584.485 1.227.687 1.974.522.255-.056.51-.119.762-.19 1.713-.475 3.461-.595 5.228-.521.11.005.259.096.318.191.302.484.608.969.861 1.479.613 1.233 1.334 2.39 2.237 3.436.267.31.511.645.735.987.217.329.341.693.236 1.143l-1.447-.327c-.261-.646-.553-1.252-.753-1.889-.182-.583-.596-.89-1.084-1.157-1.094-.6-2.281-.859-3.512-.923-1.637-.085-3.242.044-4.737.811-.375.192-.779.329-1.15.529-1.556.836-2.908 1.909-3.846 3.435-.243.395-.425.83-.617 1.254-.117.26-.056.49.132.722.986 1.229 2.2 2.193 3.53 3.009.844.517 1.693 1.064 2.611 1.412 1.542.584 3.174.607 4.802.398a9.982 9.982 0 0 0 1.173-.236c1.878-.479 3.012-1.675 3.413-3.571.028-.133.086-.292.185-.372.192-.156.416-.282.641-.386.182-.083.387-.115.609-.178l-.119 1.693c-.575.356-1.03.952-1.323 1.662-.273.664-.5 1.347-.748 2.02-.287.78-.553 1.568-.869 2.337-.186.454-.575.603-1.068.55-.499-.055-1.005-.105-1.504-.079-1.11.056-2.211.069-3.31-.15-.724-.144-1.412-.057-1.956.532a.976.976 0 0 1-.397.258c-1.348.434-2.557 1.15-3.79 1.819-.591.321-1.196.616-1.802.907-.3.144-.608.172-.915-.023-.092-.058-.226-.05-.34-.072l-.074.081c.095.17.183.344.286.508.185.292.417.383.778.279.846-.245 1.689-.477 2.424-.995.181-.127.42-.168.631-.252.326-.131.669-.233.974-.402.586-.325 1.145-.697 1.724-1.035.712-.415 1.495-.551 2.308-.523.73.025 1.461.061 2.19.111 1.216.083 2.377-.259 3.563-.415.475-.063.756-.299 1.028-.629.809-.983 1.315-2.131 1.821-3.282.535-1.211 1.096-2.409 1.637-3.615.091-.203.133-.425.214-.632.05-.127.119-.336.199-.346.398-.05.62-.314.852-.585.184-.216.404-.357.722-.315-.03.384-.28.594-.527.818-.225.203-.463.413-.623.665-.184.29-.079.416.263.399.111-.005.222-.012.294-.016.147.299.249.582.412.823a2.02 2.02 0 0 1 .315 1.569c-.147.789-.021 1.5.385 2.204.214.37.272.833.387 1.257.08.301.137.607.218.975-.501.178-1.082.418-1.681.591-1.589.459-3.185.892-4.78 1.326-.318.086-.48.211-.254.518-.597.627-1.209 1.211-1.746 1.857-.307.37-.49.841-.731 1.266-.049.086-.089.198-.166.245-.675.416-1.12 1.03-1.51 1.698a.488.488 0 0 1-.264.207c-.301.08-.61.129-.861.179v.916c1.397-.662 2.561-1.52 3.2-2.95a.566.566 0 0 1 .157-.205c.226-.177.51-.304.682-.521.498-.625.945-1.29 1.432-1.923.1-.13.279-.244.439-.275 2.167-.42 4.212-1.174 6.175-2.179.432-.222.647-.523.696-.967.039-.362.044-.728.052-1.093.024-1.046-.576-1.968-.586-3.024-.004-.5-.337-.988-.454-1.497-.1-.436-.124-.893-.147-1.342-.012-.235.132-.411.384-.449.686-.103 1.372-.213 2.061-.288.142-.015.334.075.441.18.333.328.638.683.95 1.033.636.716 1.223 1.485 1.918 2.14.849.802 1.8 1.501 3.006 1.676.676.098 1.363.134 2.046.172.986.055 1.889.27 2.602 1.03.236.252.561.431.865.607 1.221.7 2.433 1.407 3.322 2.576l.247-.392c.042-.068.086-.136.121-.207.151-.313.076-.44-.265-.459-.075-.005-.149-.019-.255-.033l.138-.175c-.521-.406-1.019-.801-1.523-1.186-.126-.096-.269-.171-.409-.249-.865-.481-1.737-.95-2.594-1.447-.17-.1-.284-.3-.466-.501.555-.071.873.512 1.468.168-.247-.159-.419-.327-.625-.387-.256-.076-.54-.086-.812-.086-1.073-.004-2.147.008-3.22.013-.538.003-.943-.25-1.323-.618-.399-.386-.816-.783-1.295-1.052-.866-.489-1.477-1.243-2.174-1.907-.144-.138-.221-.346-.381-.605.861.185 1.596.498 2.387.303.807-.199 1.188-.951 1.785-1.437.183.402.189.49.097 1.277-.114.983.275 1.602 1.227 1.887.502.15 1.028.221 1.528.377.473.147.933.145 1.368-.062.873-.415 1.758-.818 2.589-1.311 1.069-.634 1.26-.596 1.481.662.124.705.118 1.432.188 2.148.056.579.135 1.155.209 1.732.024.196.137.275.344.298a16.95 16.95 0 0 1 4.466 1.131A17.672 17.672 0 0 1 59.6 47.75c.514.352.766.334 1.165-.015" fill="#fff"/><path d="M60.765 47.735c-.399.349-.651.367-1.165.015a17.672 17.672 0 0 0-3.473-1.837 16.95 16.95 0 0 0-4.466-1.131c-.207-.023-.32-.102-.344-.298-.074-.577-.153-1.153-.209-1.732-.07-.716-.064-1.443-.188-2.148-.221-1.258-.412-1.296-1.481-.662-.831.493-1.716.896-2.589 1.311-.435.207-.895.209-1.368.062-.5-.156-1.026-.227-1.528-.377-.952-.285-1.341-.904-1.227-1.887.092-.787.086-.875-.097-1.277-.597.486-.978 1.238-1.785 1.437-.791.195-1.526-.118-2.387-.303.16.259.237.467.381.605.697.664 1.308 1.418 2.174 1.907.479.269.896.666 1.295 1.052.38.368.785.621 1.323.618 1.073-.005 2.147-.017 3.22-.013.272 0 .556.01.812.086.206.06.378.228.625.387-.595.344-.913-.239-1.468-.168.182.201.296.401.466.501.857.497 1.729.966 2.594 1.447.14.078.283.153.409.249.504.385 1.002.78 1.523 1.186l-.138.175c.106.014.18.028.255.033.341.019.416.146.265.459-.035.071-.079.139-.121.207l-.247.392c-.889-1.169-2.101-1.876-3.322-2.576-.304-.176-.629-.355-.865-.607-.713-.76-1.616-.975-2.602-1.03-.683-.038-1.37-.074-2.046-.172-1.206-.175-2.157-.874-3.006-1.676-.695-.655-1.282-1.424-1.918-2.14-.312-.35-.617-.705-.95-1.033-.107-.105-.299-.195-.441-.18-.689.075-1.375.185-2.061.288-.252.038-.396.214-.384.449.023.449.047.906.147 1.342.117.509.45.997.454 1.497.01 1.056.61 1.978.586 3.024-.008.365-.013.731-.052 1.093-.049.444-.264.745-.696.967-1.963 1.005-4.008 1.759-6.175 2.179a.794.794 0 0 0-.439.275c-.487.633-.934 1.298-1.432 1.923-.172.217-.456.344-.682.521a.566.566 0 0 0-.157.205c-.639 1.43-1.803 2.288-3.2 2.95v-.916c.251-.05.56-.099.861-.179a.488.488 0 0 0 .264-.207c.39-.668.835-1.282 1.51-1.698.077-.047.117-.159.166-.245.241-.425.424-.896.731-1.266.537-.646 1.149-1.23 1.746-1.857-.226-.307-.064-.432.254-.518 1.595-.434 3.191-.867 4.78-1.326.599-.173 1.18-.413 1.681-.591-.081-.368-.138-.674-.218-.975-.115-.424-.173-.887-.387-1.257-.406-.704-.532-1.415-.385-2.204a2.02 2.02 0 0 0-.315-1.569c-.163-.241-.265-.524-.412-.823-.072.004-.183.011-.294.016-.342.017-.447-.109-.263-.399.16-.252.398-.462.623-.665.247-.224.497-.434.527-.818-.318-.042-.538.099-.722.315-.232.271-.454.535-.852.585-.08.01-.149.219-.199.346-.081.207-.123.429-.214.632-.541 1.206-1.102 2.404-1.637 3.615-.506 1.151-1.012 2.299-1.821 3.282-.272.33-.553.566-1.028.629-1.186.156-2.347.498-3.563.415a64.07 64.07 0 0 0-2.19-.111c-.813-.028-1.596.108-2.308.523-.579.338-1.138.71-1.724 1.035-.305.169-.648.271-.974.402-.211.084-.45.125-.631.252-.735.518-1.578.75-2.424.995-.361.104-.593.013-.778-.279-.103-.164-.191-.338-.286-.508l.074-.081c.114.022.248.014.34.072.307.195.615.167.915.023a40.453 40.453 0 0 0 1.802-.907c1.233-.669 2.442-1.385 3.79-1.819a.976.976 0 0 0 .397-.258c.544-.589 1.232-.676 1.956-.532 1.099.219 2.2.206 3.31.15.499-.026 1.005.024 1.504.079.493.053.882-.096 1.068-.55.316-.769.582-1.557.869-2.337.248-.673.475-1.356.748-2.02.293-.71.748-1.306 1.323-1.662l.119-1.693c-.222.063-.427.095-.609.178-.225.104-.449.23-.641.386-.099.08-.157.239-.185.372-.401 1.896-1.535 3.092-3.413 3.571a9.982 9.982 0 0 1-1.173.236c-1.628.209-3.26.186-4.802-.398-.918-.348-1.767-.895-2.611-1.412-1.33-.816-2.544-1.78-3.53-3.009-.188-.232-.249-.462-.132-.722.192-.424.374-.859.617-1.254.938-1.526 2.29-2.599 3.846-3.435.371-.2.775-.337 1.15-.529 1.495-.767 3.1-.896 4.737-.811 1.231.064 2.418.323 3.512.923.488.267.902.574 1.084 1.157.2.637.492 1.243.753 1.889l1.447.327c.105-.45-.019-.814-.236-1.143a9.428 9.428 0 0 0-.735-.987c-.903-1.046-1.624-2.203-2.237-3.436-.253-.51-.559-.995-.861-1.479a.463.463 0 0 0-.318-.191c-1.767-.074-3.515.046-5.228.521-.252.071-.507.134-.762.19-.747.165-1.39-.037-1.974-.522a30.927 30.927 0 0 0-1.699-1.323c-.864-.622-1.814-1.04-2.88-1.195-.378-.055-.753-.187-1.11-.332-.434-.177-.752-.493-.942-1.012.141.017.237.013.323.041.635.208 1.269.421 1.901.638.592.202 1.202.368 1.765.632.359.167.648.485.978.743.429-.263.434-.269.899.107.292.237.563.502.846.751.495.435 1.059.596 1.715.46.926-.191 1.85-.412 2.787-.527 1.122-.137 2.262-.203 3.37.105.36.099.727.295 1.009.54 1.313 1.139 2.259 2.567 3.055 4.095.379.732.748 1.463 1.307 2.081.135.149.268.336.31.526.08.36.28.535.628.593.316.053.573.193.691.525.03.084.127.144.223.247.146-.339-.006-.553-.182-.741-.194-.208-.428-.38-.619-.59-.148-.163-.258-.359-.385-.54.023-.043.045-.087.069-.13l.918.17-.102-.399c.511-.329.439-.859.354-1.368a4.012 4.012 0 0 1 .193-2.121c.135-.363.29-.732.337-1.11a2.341 2.341 0 0 0-.121-.987c-.081-.245-.317-.378-.62-.405-.324-.029-.676-.089-.95-.25-1.032-.608-2.141-.875-3.327-.904-.579-.015-1.012-.288-1.387-.756-.856-1.07-1.778-2.086-2.655-3.14-.317-.381-.556-.811-1.013-1.082-.39-.233-.538-.656-.493-1.201.202.181.364.317.516.462.703.669 1.38 1.368 2.114 2 .318.273.545.559.754.921a7.335 7.335 0 0 0 1.163 1.506c.225.223.62.31.955.375.308.06.639.031.956.002 1.642-.153 3.098.431 4.515 1.144.778.391.87 1.173.829 1.896-.054.94-.273 1.869-.41 2.804-.132.902-.253 1.804-.37 2.708-.039.3.079.456.415.467.569.019 1.137.098 1.705.117.222.008.45-.065.667-.129.312-.091.5-.28.597-.625.386-1.381 1.26-2.41 2.502-3.082 1.088-.59 2.131-1.326 3.354-1.592 1.042-.227 2.122-.3 3.189-.378.475-.035.844-.192 1.128-.541.302-.371.545-.791.856-1.154.36-.422.765-.805 1.151-1.204.387-.398.793-.779 1.156-1.197.283-.323.537-.666.996-.724.114-.014.324.026.342.086.045.146.049.342-.018.473-.066.127-.235.207-.367.293-.908.588-1.553 1.416-2.18 2.279-.423.582-.948 1.091-1.433 1.629-.174.193-.362.376-.582.603.57.268.878-.375 1.334-.2-.143.402-.799.838-1.161.688-1.097-.453-2.157-.108-3.232.063-.686.11-1.379.175-2.068.267-.09.012-.207.048-.257.114-.635.828-1.469 1.432-2.279 2.066-.572.448-1.127.919-1.69 1.379l.042.114c.199 0 .398-.007.596.002.617.026 1.232.051 1.847.089.502.031.837.302 1.061.75.142.285.334.546.506.822.069-.71.068-1.374.21-2.006.178-.786.69-1.326 1.513-1.511.044-.01.092-.037.132-.029.998.214 2.021-.255 3.019.135.942.369 1.844.793 2.596 1.488.016.014.042.018.086.036.427-.41.546-.955.583-1.512.051-.774.033-1.553.082-2.328.03-.452.085-.913.212-1.346.167-.571.569-.891 1.196-.96 1.921-.213 3.631-1.014 5.302-1.933.584-.321 1.216-.558 1.833-.819.117-.05.264-.03.407-.044.114.385-.038.671-.3.863-.357.261-.732.525-1.14.682a117.87 117.87 0 0 1-4.057 1.455c-.803.274-1.626.494-2.442.74-.066.903-.105 1.895-.223 2.877-.117.977-.373 1.926-.865 2.855.278.108.532.235.8.304.719.183 1.093.721 1.376 1.332.238.51-.013 1.117-.57 1.462-.183.113-.386.225-.592.257-.306.048-.375.23-.351.476.041.407.092.815.166 1.217.262 1.41.534 2.819.814 4.292.492.091 1.097.194 1.7.315.965.194 1.904.458 2.779.934.21.114.484.114.728.165.555.116 1.074.308 1.496.706.041.039.089.093.137.097.727.062 1.188.59 1.729.979v.274z" fill="#231f20"/></g></svg>