<svg viewBox="0 0 72 72" xmlns="http://www.w3.org/2000/svg" xmlns:serif="http://www.serif.com/" fill-rule="evenodd" clip-rule="evenodd" stroke-linejoin="round" stroke-miterlimit="1.414"><path serif:id="Plan de travail1" fill="none" d="M-144-216h382.774v392.88H-144z"/><g fill-rule="nonzero"><path d="M18.304 18.208l-.063.229c4.235 1.932 8.465 3.872 12.714 5.772.245.109.673-.03.948-.179 2.357-1.283 4.746-.249 5.407 2.329.096.375.339.865.648 1.008a191.524 191.524 0 0 0 6.805 2.96c.262.108.731.04.955-.136 3.156-2.479 6.118-5.165 8.28-8.591.625-.99 1.008-2.133 1.587-3.392H18.304zm37.659 3.409c-2.494 3.694-5.564 6.708-8.926 9.441-.653.53-.92 1.055-.916 1.902.035 7.514.02 15.028.023 22.542 0 .342.03.683.056 1.228 3.269-1.822 6.209-3.747 8.32-6.714 1.027-1.444 1.471-3.053 1.444-4.84-.047-3.192-.003-6.386-.002-9.579.003-4.66.001-9.321.001-13.98M44.726 57.215v-2.564c.002-7.155.001-14.31.01-21.465.001-.621-.014-1.108-.752-1.418-2.022-.852-4.005-1.795-5.985-2.741-.654-.312-1.049-.329-1.596.311-1.351 1.576-3.53 1.608-4.996.201-1.115-1.069-1.326-2.386-.929-3.848-2.268-1.044-4.474-2.065-6.684-3.076-2.226-1.018-4.458-2.026-6.852-3.114 0 1.488.011 2.749-.004 4.011-.017 1.378-.288 2.739 1.428 3.556.71.338 1.233 1.359 1.551 2.182 1.072 2.768-.044 5.308-3.017 7.042 0 1.008.022 2.068-.007 3.127-.022.784.221 1.31.95 1.745 4.185 2.492 8.32 5.065 12.501 7.563 4.688 2.802 9.405 5.554 14.382 8.488" fill="#fff"/><path d="M41.352 44.231c.009-2.01-1.53-3.547-3.545-3.542a3.503 3.503 0 0 0-3.483 3.499c-.007 1.945 1.514 3.516 3.436 3.546 2.01.032 3.583-1.502 3.592-3.503m-15.058-2.966c1.927.08 3.586-1.395 3.711-3.3.127-1.927-1.455-3.657-3.406-3.724a3.57 3.57 0 0 0-3.715 3.425c-.079 1.857 1.495 3.519 3.41 3.599m18.432 15.95c-4.977-2.934-9.694-5.686-14.382-8.488-4.18-2.498-8.316-5.071-12.501-7.563-.729-.434-.971-.961-.95-1.745.029-1.059.007-2.119.007-3.127 2.973-1.734 4.089-4.274 3.017-7.042-.318-.823-.84-1.844-1.551-2.182-1.716-.816-1.445-2.178-1.428-3.556.016-1.261.004-2.523.004-4.01 2.394 1.087 4.626 2.095 6.852 3.113 2.21 1.011 4.416 2.032 6.684 3.076-.397 1.462-.186 2.779.929 3.848 1.466 1.407 3.645 1.375 4.996-.201.548-.64.942-.623 1.596-.311 1.98.946 3.963 1.89 5.985 2.741.738.31.753.797.752 1.418-.009 7.155-.008 14.31-.01 21.465v2.564zM55.963 21.617c0 4.66.002 9.32-.001 13.98-.001 3.193-.045 6.387.002 9.58.026 1.787-.417 3.395-1.444 4.839-2.111 2.967-5.051 4.892-8.32 6.715-.026-.546-.056-.887-.056-1.228-.003-7.514.011-15.029-.023-22.543-.004-.846.263-1.372.916-1.902 3.362-2.733 6.432-5.747 8.926-9.441M18.304 18.208h37.281c-.579 1.259-.962 2.402-1.587 3.392-2.162 3.426-5.124 6.112-8.28 8.591-.224.176-.693.244-.955.136a191.524 191.524 0 0 1-6.805-2.96c-.309-.143-.552-.633-.648-1.008-.661-2.578-3.05-3.612-5.407-2.329-.275.149-.703.288-.948.179-4.249-1.9-8.479-3.84-12.714-5.772l.063-.229" fill="#231f20"/><path d="M26.294 41.265c-1.915-.08-3.489-1.741-3.41-3.599a3.57 3.57 0 0 1 3.715-3.425c1.951.067 3.533 1.797 3.406 3.725-.125 1.904-1.784 3.379-3.711 3.299M41.352 44.231c-.009 2.001-1.582 3.535-3.592 3.503-1.922-.03-3.443-1.601-3.436-3.546a3.503 3.503 0 0 1 3.483-3.499c2.015-.005 3.554 1.532 3.545 3.542" fill="#fff"/></g></svg>