<svg viewBox="0 0 72 72" xmlns="http://www.w3.org/2000/svg" xmlns:serif="http://www.serif.com/" fill-rule="evenodd" clip-rule="evenodd" stroke-linejoin="round" stroke-miterlimit="1.414"><path serif:id="Plan de travail1" fill="none" d="M-216-288h382.774v392.88H-216z"/><g fill-rule="nonzero"><path d="M44.415 61.148h-18.24l-1.92-2.159V30.188c.997-2.469 2.829-3.411 5.47-3.332 4.029.12 8.065.077 12.096.016 2.587-.04 4.591 2.263 4.56 4.505-.117 8.624-.089 17.25-.013 25.874.016 1.742-.466 3.015-1.953 3.897" fill="#231f20"/><path d="M38.489 19.743c-.387-2.39-.849-5.14-1.268-7.896-.164-1.076-.632-1.59-1.808-1.601-1.173-.011-1.797.364-1.969 1.552-.305 2.094-.68 4.177-1.004 6.269-.316 2.038-.305 2.04-2.299 2.13-1.442.065-2.408.733-2.538 1.889-.093.815-.018 1.649-.018 2.504H43.44c-.309-1.288-.228-2.812-.938-3.439-.922-.814-2.473-.916-4.013-1.408m5.927 41.405c1.487-.882 1.969-2.155 1.953-3.897-.076-8.624-.105-17.25.013-25.873.031-2.242-1.973-4.546-4.56-4.506-4.031.061-8.067.104-12.097-.016-2.64-.079-4.472.864-5.469 3.332V10.029h22.32v51.119h-2.16zM24.255 58.989l1.92 2.159h-1.92v-2.159z" fill="#fff"/><path d="M38.489 19.743c1.54.492 3.091.594 4.013 1.408.71.627.629 2.151.938 3.439H27.585c0-.855-.075-1.689.018-2.504.13-1.156 1.096-1.824 2.538-1.889 1.994-.09 1.983-.092 2.299-2.13.324-2.092.699-4.175 1.004-6.269.172-1.188.796-1.563 1.969-1.552 1.176.011 1.644.525 1.808 1.601.419 2.756.881 5.506 1.268 7.896" fill="#231f20"/></g></svg>