<svg viewBox="0 0 72 72" xmlns="http://www.w3.org/2000/svg" xmlns:serif="http://www.serif.com/" fill-rule="evenodd" clip-rule="evenodd" stroke-linejoin="round" stroke-miterlimit="1.414"><path serif:id="Plan de travail1" fill="none" d="M-144-288h382.774v392.88H-144z"/><path d="M22.837 17.411l.44.03c-.877.766-1.202 1.659-.919 2.802.116.47.057 1.079-.15 1.517-1.334 2.807-2.351 5.709-2.383 8.841-.057 5.595-.087 11.193.009 16.787.062 3.627 1.198 6.991 3.195 10.029 1.136 1.726 2.743 2.544 4.861 2.52 5.076-.055 10.153-.072 15.227.006 2.377.037 4.072-.931 5.257-2.901 1.824-3.03 2.876-6.307 2.899-9.861.03-4.997-.064-9.994.031-14.988.072-3.768-.781-7.267-2.476-10.601-.149-.294-.299-.73-.189-.992.535-1.279.177-2.32-.525-3.01.088-.94.2-1.633.209-2.327.022-1.635-.148-1.791-1.759-1.791-5.715-.002-11.431-.002-17.147-.002-1.759 0-3.52-.061-5.273.043-.452.026-1.178.516-1.246.891-.178.974-.061 2.001-.061 3.007m28.855 42.808h-32.16v-47.04h32.16v47.04z" fill="#fff" fill-rule="nonzero"/><path d="M35.547 19.942c3.52 0 7.039.012 10.558-.02.327-.002.651-.278.976-.426-.325-.207-.65-.592-.976-.594-6.999-.035-13.998-.035-20.997-.004-.34.002-.679.352-1.019.539.34.169.679.48 1.02.484 3.479.036 6.959.022 10.438.021m-.013 1.104c-3.239 0-6.478-.031-9.716.034-.499.009-1.195.329-1.447.728-1.47 2.323-2.54 4.884-2.603 7.624-.146 6.275-.135 12.556-.029 18.83.048 2.839 1.152 5.448 2.611 7.875.777 1.293 1.851 1.913 3.462 1.888 5.237-.083 10.477-.065 15.715-.008 1.404.015 2.395-.502 3.104-1.637 1.568-2.512 2.718-5.224 2.789-8.192.137-5.635.057-11.275.091-16.913.02-3.332-1.003-6.357-2.549-9.256-.385-.721-.872-1.004-1.71-.991-3.238.048-6.477.019-9.718.018m-12.697-3.635c0-1.006-.117-2.033.061-3.007.068-.375.795-.865 1.246-.892 1.753-.103 3.514-.043 5.273-.043 5.716 0 11.432 0 17.147.002 1.611 0 1.781.157 1.759 1.791-.009.695-.121 1.388-.209 2.327.702.691 1.06 1.732.525 3.011-.11.262.04.697.189.991 1.695 3.334 2.548 6.833 2.476 10.602-.095 4.994-.001 9.991-.031 14.987-.023 3.555-1.075 6.831-2.899 9.862-1.185 1.969-2.88 2.938-5.257 2.901-5.074-.078-10.151-.062-15.227-.006-2.118.024-3.725-.794-4.861-2.52-1.997-3.038-3.133-6.403-3.195-10.03-.096-5.593-.066-11.191-.009-16.786.032-3.133 1.049-6.034 2.383-8.842a2.443 2.443 0 0 0 .15-1.516c-.283-1.143.043-2.036.919-2.802l-.44-.03" fill="#231f20" fill-rule="nonzero"/><path d="M47.768 31.686H23.401v14.835h24.367V31.686zM35.534 21.048c3.24 0 6.48.029 9.718-.019.838-.013 1.325.27 1.71.991 1.546 2.898 2.569 5.924 2.549 9.256-.035 5.638.045 11.278-.091 16.913-.072 2.968-1.221 5.68-2.789 8.191-.709 1.136-1.7 1.653-3.104 1.638-5.238-.058-10.478-.075-15.716.008-1.61.025-2.684-.595-3.462-1.888-1.459-2.428-2.562-5.036-2.61-7.875-.106-6.274-.117-12.556.028-18.83.064-2.74 1.133-5.301 2.604-7.624.252-.399.948-.719 1.446-.728 3.239-.065 6.478-.034 9.717-.033M35.547 19.942c-3.479.001-6.959.015-10.438-.021-.341-.004-.68-.315-1.02-.484.34-.187.679-.537 1.019-.539 6.999-.031 13.998-.031 20.997.004.326.002.651.387.976.594-.325.148-.649.424-.976.426-3.519.032-7.038.02-10.558.02" fill="#fff" fill-rule="nonzero"/><path fill="#231f20" d="M23.401 31.686h24.367v14.835H23.401z"/></svg>