<svg viewBox="0 0 72 72" xmlns="http://www.w3.org/2000/svg" xmlns:serif="http://www.serif.com/" fill-rule="evenodd" clip-rule="evenodd" stroke-linejoin="round" stroke-miterlimit="1.414"><path serif:id="Plan de travail1" fill="none" d="M0 0h382.774v392.88H0z"/><path d="M30.211 49.585c1.031-3.23-.189-6.687-2.951-8.744-2.753-2.051-5.919-2.414-9.553-2.125.864-1.342 1.494-2.525 2.315-3.556 2.925-3.675 1.708-3.504 6.917-3.135 4.103.291 7.667 1.92 10.209 5.287.8 1.059 1.325 2.327 1.957 3.466 1.101-2.808-.35-6.757-3.33-8.753-3.106-2.079-6.545-2.368-10.128-1.721-.505.091-1.005.209-1.507.315l-.204-.298c2.067-1.664 4.222-3.232 6.181-5.016 2.534-2.309 5.317-2.28 8.349-1.409 4.683 1.344 6.735 3.126 9.406 8.367 2.132-5.155-2.769-10.318-10.459-11.2 2.035-.596 4.047-1.305 6.114-1.759 2.472-.542 4.99-.606 7.453.16 4.05 1.26 6.041 4.876 5.304 9.506-.776 4.87-3.223 8.911-6.35 12.561-5.358 6.253-11.812 10.937-19.805 13.28-3.139.92-6.324 1.366-9.526.316-4.225-1.385-5.697-4.694-5.426-8.405.126-1.718.805-3.391 1.193-5.095.23-1.01.897-1.198 1.772-1.066 5.546.837 10.058 3.089 12.069 9.024" fill="#231f20" fill-rule="nonzero" serif:id="Pain Classique"/></svg>