<svg viewBox="0 0 72 72" xmlns="http://www.w3.org/2000/svg" xmlns:serif="http://www.serif.com/" fill-rule="evenodd" clip-rule="evenodd" stroke-miterlimit="10"><path serif:id="Plan de travail1" fill="none" d="M-72 0h382.774v392.88H-72z"/><path serif:id="Pain Pavot" d="M56.609 25.422v3.6c-.605 1.806-.998 3.719-1.851 5.399-4.648 9.157-12.006 15.401-21.389 19.325-3.595 1.504-7.335 2.394-11.299 1.681-3.595-.647-5.877-2.921-6.564-6.503-.374-1.957-.035-3.831.559-5.65 1.089-3.335.554-3.089 3.853-2.454 4.912.945 8.74 3.414 10.409 8.45.013.04.13.045.491.157-.095-1.463.029-2.879-.313-4.171-.99-3.742-3.814-5.584-7.377-6.352-1.595-.344-3.277-.286-5.089-.423.707-1.092 1.32-2.111 2.003-3.082 2.595-3.692 3.407-4.032 7.857-3.376.355.052.71.118 1.06.199 4.754 1.103 8.451 3.495 10.127 8.337.052.151.047.321.069.483l.512-.294c-.093-1.331.028-2.721-.316-3.984-1.096-4.032-4.108-6.017-8.015-6.533-2.288-.302-4.654-.014-7.132.009 2.12-1.697 4.319-3.393 6.444-5.177 1.905-1.6 3.968-2.108 6.424-1.581 4.963 1.065 8.948 3.297 10.781 8.358.052.144.165.267.287.457 1.309-4.341-1.446-10.66-10.64-11.006.524-.238.856-.445 1.217-.544 2.183-.598 4.342-1.418 6.568-1.701 4.561-.579 9.854.26 11.324 6.376" fill="#231f20" fill-rule="nonzero"/><clipPath id="a"><path d="M56.609 25.422v3.6c-.605 1.806-.998 3.719-1.851 5.399-4.648 9.157-12.006 15.401-21.389 19.325-3.595 1.504-7.335 2.394-11.299 1.681-3.595-.647-5.877-2.921-6.564-6.503-.374-1.957-.035-3.831.559-5.65 1.089-3.335.554-3.089 3.853-2.454 4.912.945 8.74 3.414 10.409 8.45.013.04.13.045.491.157-.095-1.463.029-2.879-.313-4.171-.99-3.742-3.814-5.584-7.377-6.352-1.595-.344-3.277-.286-5.089-.423.707-1.092 1.32-2.111 2.003-3.082 2.595-3.692 3.407-4.032 7.857-3.376.355.052.71.118 1.06.199 4.754 1.103 8.451 3.495 10.127 8.337.052.151.047.321.069.483l.512-.294c-.093-1.331.028-2.721-.316-3.984-1.096-4.032-4.108-6.017-8.015-6.533-2.288-.302-4.654-.014-7.132.009 2.12-1.697 4.319-3.393 6.444-5.177 1.905-1.6 3.968-2.108 6.424-1.581 4.963 1.065 8.948 3.297 10.781 8.358.052.144.165.267.287.457 1.309-4.341-1.446-10.66-10.64-11.006.524-.238.856-.445 1.217-.544 2.183-.598 4.342-1.418 6.568-1.701 4.561-.579 9.854.26 11.324 6.376" clip-rule="nonzero"/></clipPath><g clip-path="url(#a)"><path d="M32.932 37.007c0 .641-.498 1.161-1.112 1.161-.615 0-1.112-.52-1.112-1.161s.497-1.161 1.112-1.161c.614 0 1.112.52 1.112 1.161" fill="#fff" fill-rule="nonzero"/><path d="M32.932 37.007c0-.64-.499-1.161-1.112-1.161-.614 0-1.112.521-1.112 1.161 0 .641.498 1.161 1.112 1.161.613 0 1.112-.52 1.112-1.161z" fill="none" stroke="#231f20" stroke-width=".5"/><path d="M25.375 36.16c0 .641-.498 1.161-1.112 1.161-.614 0-1.112-.52-1.112-1.161s.498-1.161 1.112-1.161c.614 0 1.112.52 1.112 1.161" fill="#fff" fill-rule="nonzero"/><path d="M25.375 36.16c0-.641-.498-1.161-1.112-1.161-.613 0-1.112.52-1.112 1.161s.499 1.161 1.112 1.161c.614 0 1.112-.52 1.112-1.161z" fill="none" stroke="#231f20" stroke-width=".5"/><path d="M43.946 35.194c0 .641-.498 1.161-1.112 1.161-.615 0-1.112-.52-1.112-1.161s.497-1.161 1.112-1.161c.614 0 1.112.52 1.112 1.161" fill="#fff" fill-rule="nonzero"/><path d="M43.946 35.194c0-.641-.499-1.161-1.112-1.161-.614 0-1.112.52-1.112 1.161 0 .64.498 1.161 1.112 1.161.613 0 1.112-.521 1.112-1.161z" fill="none" stroke="#231f20" stroke-width=".5"/><path d="M42.392 28.731c0 .641-.498 1.161-1.112 1.161-.615 0-1.113-.52-1.113-1.161s.498-1.161 1.113-1.161c.614 0 1.112.52 1.112 1.161" fill="#fff" fill-rule="nonzero"/><path d="M42.392 28.731c0-.641-.499-1.161-1.113-1.161s-1.112.52-1.112 1.161c0 .64.498 1.161 1.112 1.161.614 0 1.113-.521 1.113-1.161z" fill="none" stroke="#231f20" stroke-width=".5"/><path d="M36.174 27.325c0 .641-.498 1.161-1.112 1.161-.615 0-1.113-.52-1.113-1.161s.498-1.161 1.113-1.161c.614 0 1.112.52 1.112 1.161" fill="#fff" fill-rule="nonzero"/><path d="M36.174 27.325c0-.641-.498-1.161-1.112-1.161-.614 0-1.113.52-1.113 1.161s.499 1.161 1.113 1.161 1.112-.52 1.112-1.161z" fill="none" stroke="#231f20" stroke-width=".5"/><path d="M34.783 46.565c0 .641-.498 1.161-1.112 1.161-.614 0-1.112-.52-1.112-1.161s.498-1.161 1.112-1.161c.614 0 1.112.52 1.112 1.161" fill="#fff" fill-rule="nonzero"/><path d="M34.783 46.565c0-.641-.498-1.161-1.112-1.161-.614 0-1.112.52-1.112 1.161 0 .64.498 1.161 1.112 1.161.614 0 1.112-.521 1.112-1.161z" fill="none" stroke="#231f20" stroke-width=".5"/><path d="M51.963 24.477c0 .641-.498 1.161-1.112 1.161-.615 0-1.112-.52-1.112-1.161s.497-1.161 1.112-1.161c.614 0 1.112.52 1.112 1.161" fill="#fff" fill-rule="nonzero"/><path d="M51.963 24.477c0-.641-.498-1.161-1.112-1.161-.614 0-1.112.52-1.112 1.161s.498 1.161 1.112 1.161c.614 0 1.112-.52 1.112-1.161z" fill="none" stroke="#231f20" stroke-width=".5"/><path d="M22.594 47.628c0 .641-.498 1.161-1.112 1.161-.615 0-1.112-.52-1.112-1.161s.497-1.161 1.112-1.161c.614 0 1.112.52 1.112 1.161" fill="#fff" fill-rule="nonzero"/><path d="M22.594 47.628c0-.641-.498-1.161-1.112-1.161-.614 0-1.112.52-1.112 1.161s.498 1.161 1.112 1.161c.614 0 1.112-.52 1.112-1.161z" fill="none" stroke="#231f20" stroke-width=".5"/><path d="M19.322 44.111c0 .641-.498 1.16-1.112 1.16-.614 0-1.112-.519-1.112-1.16 0-.641.498-1.161 1.112-1.161.614 0 1.112.52 1.112 1.161" fill="#fff" fill-rule="nonzero"/><path d="M19.322 44.11c0-.64-.499-1.16-1.112-1.16-.614 0-1.112.52-1.112 1.16 0 .641.498 1.161 1.112 1.161.613 0 1.112-.52 1.112-1.161z" fill="none" stroke="#231f20" stroke-width=".5"/><path d="M47.218 21.532c0 .641-.498 1.16-1.112 1.16-.615 0-1.113-.519-1.113-1.16 0-.641.498-1.161 1.113-1.161.614 0 1.112.52 1.112 1.161" fill="#fff" fill-rule="nonzero"/><path d="M47.218 21.531c0-.64-.498-1.16-1.112-1.16-.614 0-1.113.52-1.113 1.16 0 .641.499 1.161 1.113 1.161s1.112-.52 1.112-1.161z" fill="none" stroke="#231f20" stroke-width=".5"/><path d="M37.646 40.838c0 .641-.498 1.161-1.112 1.161-.614 0-1.112-.52-1.112-1.161s.498-1.161 1.112-1.161c.614 0 1.112.52 1.112 1.161" fill="#fff" fill-rule="nonzero"/><path d="M37.646 40.838c0-.641-.498-1.161-1.112-1.161-.613 0-1.112.52-1.112 1.161s.499 1.161 1.112 1.161c.614 0 1.112-.52 1.112-1.161z" fill="none" stroke="#231f20" stroke-width=".5"/><path d="M27.502 46.401c0 .641-.498 1.161-1.112 1.161-.614 0-1.112-.52-1.112-1.161s.498-1.161 1.112-1.161c.614 0 1.112.52 1.112 1.161" fill="#fff" fill-rule="nonzero"/><path d="M27.502 46.401c0-.641-.498-1.161-1.112-1.161-.613 0-1.112.52-1.112 1.161s.499 1.161 1.112 1.161c.614 0 1.112-.52 1.112-1.161z" fill="none" stroke="#231f20" stroke-width=".5"/><path d="M52.372 31.348c0 .641-.498 1.161-1.112 1.161-.615 0-1.113-.52-1.113-1.161s.498-1.16 1.113-1.16c.614 0 1.112.519 1.112 1.16" fill="#fff" fill-rule="nonzero"/><path d="M52.372 31.349c0-.641-.499-1.161-1.113-1.161s-1.112.52-1.112 1.161c0 .64.498 1.16 1.112 1.16.614 0 1.113-.52 1.113-1.16z" fill="none" stroke="#231f20" stroke-width=".5"/></g></svg>