<svg viewBox="0 0 72 72" xmlns="http://www.w3.org/2000/svg" xmlns:serif="http://www.serif.com/" fill-rule="evenodd" clip-rule="evenodd" stroke-miterlimit="10"><path serif:id="Plan de travail1" fill="none" d="M-144 0h382.774v392.88H-144z"/><path serif:id="Pain Céréales" d="M57.165 25.422v3.6c-.605 1.806-.998 3.719-1.851 5.399-4.648 9.157-12.005 15.401-21.388 19.325-3.596 1.504-7.336 2.394-11.299 1.681-3.596-.647-5.878-2.921-6.565-6.503-.374-1.957-.035-3.831.559-5.65 1.09-3.335.554-3.089 3.853-2.454 4.912.945 8.741 3.414 10.409 8.45.013.04.13.045.492.157-.096-1.463.028-2.879-.314-4.171-.99-3.742-3.814-5.584-7.376-6.352-1.596-.344-3.278-.286-5.09-.423.707-1.092 1.32-2.111 2.003-3.082 2.595-3.692 3.407-4.032 7.857-3.376.356.052.71.118 1.06.199 4.754 1.103 8.451 3.495 10.127 8.337.052.151.047.321.069.483l.512-.294c-.092-1.331.028-2.721-.316-3.984-1.096-4.032-4.107-6.017-8.014-6.533-2.289-.302-4.655-.014-7.133.009 2.121-1.697 4.319-3.393 6.444-5.177 1.905-1.6 3.968-2.108 6.424-1.581 4.964 1.065 8.948 3.297 10.781 8.358.053.144.165.267.287.457 1.309-4.341-1.445-10.66-10.639-11.006.523-.238.855-.445 1.216-.544 2.183-.598 4.342-1.418 6.568-1.701 4.561-.579 9.854.26 11.324 6.376" fill="#231f20" fill-rule="nonzero"/><clipPath id="a"><path d="M57.165 25.422v3.6c-.605 1.806-.998 3.719-1.851 5.399-4.648 9.157-12.005 15.401-21.388 19.325-3.596 1.504-7.336 2.394-11.299 1.681-3.596-.647-5.878-2.921-6.565-6.503-.374-1.957-.035-3.831.559-5.65 1.09-3.335.554-3.089 3.853-2.454 4.912.945 8.741 3.414 10.409 8.45.013.04.13.045.492.157-.096-1.463.028-2.879-.314-4.171-.99-3.742-3.814-5.584-7.376-6.352-1.596-.344-3.278-.286-5.09-.423.707-1.092 1.32-2.111 2.003-3.082 2.595-3.692 3.407-4.032 7.857-3.376.356.052.71.118 1.06.199 4.754 1.103 8.451 3.495 10.127 8.337.052.151.047.321.069.483l.512-.294c-.092-1.331.028-2.721-.316-3.984-1.096-4.032-4.107-6.017-8.014-6.533-2.289-.302-4.655-.014-7.133.009 2.121-1.697 4.319-3.393 6.444-5.177 1.905-1.6 3.968-2.108 6.424-1.581 4.964 1.065 8.948 3.297 10.781 8.358.053.144.165.267.287.457 1.309-4.341-1.445-10.66-10.639-11.006.523-.238.855-.445 1.216-.544 2.183-.598 4.342-1.418 6.568-1.701 4.561-.579 9.854.26 11.324 6.376" clip-rule="nonzero"/></clipPath><g clip-path="url(#a)" stroke="#fff"><path d="M22.974 35.137l3.857.084" fill="#231f20" fill-rule="nonzero"/><path d="M32.367 37.15v4.612M34.211 43.859h5.703M43.688 29.015v4.025M33.624 25.745l2.517 1.509M50.649 23.9v4.948M46.204 21.216h4.612M47.546 35.557l-4.361.419M23.393 47.297l1.594 2.097M20.626 43.272l-1.091 5.535M35.805 29.351h4.193" fill="none"/></g></svg>