<svg viewBox="0 0 72 72" xmlns="http://www.w3.org/2000/svg" xmlns:serif="http://www.serif.com/" fill-rule="evenodd" clip-rule="evenodd" stroke-miterlimit="10"><path serif:id="Plan de travail1" fill="none" d="M-72-288h382.774v392.88H-72z"/><g fill-rule="nonzero"><path d="M21.96 54.938l.004-.547c-.451-.319-.865-.813-1.362-.919-.806-.171-1.285.427-1.291 1.18-.006.76.494 1.348 1.279 1.208.495-.09.916-.601 1.37-.922m5.256-1.543l-.01-.554c-.503-.306-1.029-.88-1.503-.841-.421.036-1.035.708-1.118 1.177-.137.772.52 1.315 1.258 1.195.497-.082.918-.635 1.373-.977m-13.12 4.631l-.549.008c-.325.501-.935 1.026-.893 1.494.039.45.829 1.23 1.153 1.168.515-.101 1.202-.737 1.279-1.231.065-.419-.631-.955-.99-1.439m10.416-7.719c-.85-.555-1.361-1.149-1.842-1.126-.423.021-1.192.805-1.131 1.122.098.515.713 1.238 1.177 1.29.438.05.961-.65 1.796-1.286m-3.855-1.962l-.008-.535c-.505-.326-1.036-.936-1.51-.894-.43.038-1.055.743-1.133 1.228-.118.741.491 1.348 1.272 1.191.505-.1.922-.644 1.379-.99m-5.194 7.478c.647-.799 1.349-1.29 1.319-1.732-.031-.463-.702-1.132-1.205-1.255-.746-.182-1.325.478-1.249 1.208.052.502.584.955 1.135 1.779m7.01 2.882c-.82-.588-1.36-1.271-1.805-1.214-.489.062-.89.807-1.328 1.256.45.434.871 1.17 1.358 1.216.452.042.972-.653 1.775-1.258m10.655-9.626L23.056 39.86l-3.374 3.696 10.072 9.212 3.374-3.689m-.506-1.875c.145 0 .193.014.221-.002 8.253-4.957 16.506-9.913 24.745-14.892.305-.184.57-.565.685-.91a108.78 108.78 0 0 0 1.657-5.371c.09-.328-.053-.889-.299-1.115-4.905-4.53-9.848-9.019-14.759-13.54-.499-.459-.891-.476-1.478-.213-1.528.683-3.114 1.242-4.622 1.964-.554.266-1.124.767-1.395 1.307-1.97 3.925-3.863 7.888-5.784 11.838-2.095 4.309-4.207 8.608-6.266 12.935-.174.367-.193 1.1.041 1.323 2.399 2.283 4.864 4.496 7.254 6.676" fill="#fff"/><path d="M32.985 44.495c.486-.277.903-.506 1.31-.75 6.259-3.765 12.461-7.63 18.804-11.246 2.279-1.3 3.809-2.829 4.25-5.444.118-.706.11-1.152-.451-1.658-3.56-3.211-7.232-6.318-10.567-9.751-1.867-1.921-3.507-2.39-5.682-.903-.533.363-1.242.68-1.5 1.201-3.769 7.614-7.468 15.263-11.209 22.89-.283.576-.207.91.256 1.32 1.585 1.401 3.137 2.838 4.789 4.341m-.363 2.708c-2.389-2.18-4.855-4.393-7.254-6.676-.234-.222-.215-.956-.041-1.323 2.059-4.326 4.171-8.626 6.266-12.935 1.921-3.95 3.814-7.913 5.784-11.837.271-.541.841-1.041 1.395-1.307 1.508-.723 3.094-1.281 4.622-1.965.587-.263.979-.246 1.478.213 4.911 4.521 9.854 9.011 14.759 13.54.246.227.389.787.299 1.115a108.45 108.45 0 0 1-1.657 5.371c-.115.345-.38.726-.685.91-8.239 4.979-16.492 9.935-24.745 14.892-.028.017-.076.002-.221.002M33.129 49.078l-3.375 3.689-10.072-9.211 3.375-3.697 10.072 9.219" fill="#231f20"/><path d="M22.473 58.704c-.803.605-1.323 1.301-1.775 1.259-.487-.046-.909-.782-1.358-1.217.438-.448.839-1.193 1.327-1.256.446-.057.986.626 1.806 1.214zM15.464 55.822c-.552-.824-1.083-1.276-1.136-1.778-.076-.731.503-1.391 1.25-1.208.502.123 1.173.792 1.204 1.255.03.441-.671.932-1.318 1.731zM20.657 48.345c-.457.346-.874.89-1.378.99-.782.156-1.391-.45-1.273-1.191.078-.486.703-1.191 1.133-1.229.474-.042 1.005.569 1.511.895l.007.535zM24.512 50.307c-.834.636-1.358 1.336-1.796 1.286-.463-.053-1.079-.775-1.177-1.29-.061-.317.708-1.101 1.131-1.122.481-.023.992.571 1.842 1.126zM14.096 58.026c.359.484 1.055 1.021.99 1.439-.076.494-.763 1.13-1.279 1.231-.323.062-1.113-.718-1.153-1.168-.041-.468.568-.993.893-1.494l.549-.008zM27.216 53.395c-.455.342-.875.895-1.373.977-.738.12-1.395-.423-1.258-1.195.084-.469.697-1.141 1.118-1.177.474-.039 1 .535 1.503.841l.01.554zM21.96 54.938c-.454.321-.875.832-1.37.922-.785.14-1.285-.448-1.279-1.208.006-.753.485-1.351 1.291-1.18.497.106.911.6 1.362.919l-.004.547z" stroke="#231f20"/><path d="M33.213 41.489c.176-.047.262-.051.327-.09 6.708-4.032 13.424-8.049 20.1-12.135.518-.317.741-1.117 1.102-1.693-4.207.59-7.97.115-11.619-1.481-1.61-.705-3.329-.99-5.017-.39-.672.238-1.403.802-1.736 1.418-1.232 2.279-2.311 4.642-3.444 6.974-.796 1.64-1.586 3.285-2.385 4.939l2.672 2.458m-.228 3.006c-1.652-1.503-3.204-2.941-4.789-4.341-.463-.41-.539-.744-.256-1.32 3.741-7.627 7.44-15.276 11.209-22.89.258-.521.967-.838 1.5-1.201 2.175-1.487 3.815-1.018 5.682.903 3.335 3.433 7.007 6.54 10.567 9.751.561.506.569.952.451 1.657-.441 2.616-1.971 4.145-4.25 5.445-6.343 3.616-12.545 7.481-18.804 11.246-.407.244-.824.473-1.31.75" fill="#fff"/><path d="M33.213 41.489l-2.672-2.458c.799-1.654 1.589-3.299 2.385-4.939 1.133-2.332 2.212-4.695 3.444-6.974.333-.616 1.064-1.18 1.736-1.418 1.688-.6 3.407-.315 5.017.39 3.649 1.596 7.412 2.071 11.619 1.481-.361.576-.584 1.376-1.102 1.693-6.676 4.086-13.392 8.103-20.1 12.135-.065.039-.151.043-.327.09" fill="#231f20"/></g></svg>