<svg viewBox="0 0 72 72" xmlns="http://www.w3.org/2000/svg" xmlns:serif="http://www.serif.com/" fill-rule="evenodd" clip-rule="evenodd" stroke-linejoin="round" stroke-miterlimit="1.414"><path serif:id="Plan de travail1" fill="none" d="M-72-144h382.774v392.88H-72z"/><g fill-rule="nonzero"><path d="M13.974 35.713c.1-.717.239-1.399.264-2.085.008-.218-.258-.591-.456-.635-.252-.056-.746.078-.815.255a9.588 9.588 0 0 0-.534 2.08c-.027.18.28.536.491.591.257.066.574-.1 1.05-.206m6.92-2.989c.846-.764 1.516-1.61 1.685-2.753.219-1.475-.582-2.373-2.084-2.349-2.302.037-5.12 2.271-5.662 4.488-.389 1.59.633 2.743 2.264 2.548 1.512-.18 2.797-.809 3.797-1.934m36.282 1.406c.172-.172.417-.364.595-.606.482-.654.6-1.387.188-2.097-.433-.747-1.181-1.017-2-.901-.778.11-1.402.463-1.505 1.393-.022.207-.302.47-.522.556-.559.219-1.146.369-1.729.517-1.965.5-3.933.987-5.944 1.491l.171 2.06c.256-.023.453-.045.649-.057l6.091-.347c1.172-.066 2.14.208 2.533 1.484.039.126.173.225.271.33.852.91 2.012 1.069 2.747.378.81-.762.838-2.177-.003-3.004-.454-.447-1.01-.79-1.542-1.197m-42.343-5.082c1.13-.602 2.216-1.312 3.398-1.784 2.386-.954 4.856-.77 7.289-.162a27.61 27.61 0 0 1 9.266 4.226c1.653 1.161 3.45 2.107 5.561 2.056 1.03-.025 2.054-.22 3.084-.285.884-.056 1.781-.103 2.51.587.114.107.375.133.542.093a704.149 704.149 0 0 0 7.013-1.754c.145-.037.322-.147.385-.273.94-1.87 1.874-2.234 3.831-1.475.024.01.057-.005.085-.008l.733.732c.392 1.359.371 1.568-.249 2.925.466.549.992 1.015 1.325 1.592.689 1.192.328 2.624-.768 3.458-.891.679-2.19.467-3.171-.523-.202-.204-.472-.394-.564-.645-.376-1.022-1.198-1.125-2.09-1.071-2.118.127-4.235.277-6.351.425-.165.012-.399.036-.475.143-.703.998-1.837 1.038-2.846 1.174-3.077.411-5.773 1.604-7.858 3.889-3.996 4.38-9.225 5.482-14.757 5.512-3.944.021-7.968-3.467-9.232-7.434-1.123-3.525-.275-6.665 1.779-9.592.129-.184.227-.39.34-.585l1.22-1.221" fill="#231f20"/><path d="M57.176 34.129c.532.407 1.088.751 1.542 1.198.841.826.812 2.241.002 3.003-.734.692-1.895.533-2.747-.378-.097-.104-.232-.203-.27-.33-.393-1.275-1.361-1.55-2.533-1.483-2.031.115-4.06.23-6.091.347-.196.011-.393.034-.65.056l-.17-2.06c2.011-.503 3.979-.991 5.944-1.49.583-.149 1.17-.299 1.728-.517.221-.087.5-.349.523-.557.103-.929.727-1.283 1.505-1.393.819-.115 1.567.155 2 .901.412.711.294 1.444-.188 2.098-.178.241-.424.434-.595.605M20.894 32.724c-1 1.125-2.285 1.753-3.797 1.934-1.631.194-2.653-.958-2.264-2.548.542-2.217 3.36-4.451 5.663-4.489 1.502-.023 2.302.874 2.084 2.35-.17 1.143-.84 1.989-1.686 2.753M13.974 35.713c-.476.106-.793.272-1.05.206-.211-.055-.518-.411-.491-.591a9.588 9.588 0 0 1 .534-2.08c.069-.177.563-.311.815-.255.198.044.464.417.456.635-.025.686-.164 1.368-.264 2.085" fill="#fff"/></g></svg>