<svg viewBox="0 0 72 72" xmlns="http://www.w3.org/2000/svg" xmlns:serif="http://www.serif.com/" fill-rule="evenodd" clip-rule="evenodd" stroke-linejoin="round" stroke-miterlimit="1.414"><path serif:id="Plan de travail1" fill="none" d="M-72-72h382.774v392.88H-72z"/><path d="M9.464 27.438l-3.878-5.064c1.071 2.063 2.378 3.954 4.036 5.592.926 1.257 1.866 2.505 2.769 3.78.163.23.302.604.234.852-.484 1.762-.242 3.537.248 5.188.309 1.043 1.259 1.922 2.014 2.795.406.468 1.007.768 1.491 1.123-.784.487-1.76.776-2.194 1.426-1.081 1.62-1.892 3.418-2.862 5.115-.337.589-.772 1.092-1.647.838-.909-.264-1.842.245-2.381 1.297l2.022-.689c.355.27.856.518 1.137.364.616-.339 1.278-.783 1.638-1.361.772-1.24 1.356-2.597 2.038-3.896.146-.279.323-.627.578-.75 1.078-.518 2.19-.965 3.292-1.433.274-.116.557-.21 1.082-.406l-2.219 4.509c-.864-.83-1.015-.827-1.899.219l1.033-.293c.221.369.332.798.6.951.619.353.982-.123 1.197-.622.514-1.193.935-2.428 1.484-3.603.416-.89 1.035-.93 1.713-.259.203.2.475.35.742.459 3.134 1.287 6.265 2.585 9.419 3.819.652.255.922.551.859 1.253a5.401 5.401 0 0 0 .102 1.644c.121.535.393 1.037.638 1.653l1.26-.185c.013-1.311-1.495-2.175-.986-3.429 1.316.239 2.6.529 3.899.695 2.369.304 4.742.612 7.123.772 1.844.124 3.704.024 5.583.024.127.834.805 1.647 1.684 1.663 1.378.024 2.758-.072 4.138-.118l-.132-.364c.109-.164.2-.452.33-.47.437-.062.888-.045 1.333-.028.459.018.916.071 1.373.108l.086-.358-1.179-.472c.378-.12.664-.315.898-.264.634.136.919-.053 1.311-.611.484-.69 1.176-1.203 2.266-1.075 1.144.133 2.341-.059 3.499-.223.822-.116 1.45-.634 1.642-1.49.26-1.16-.813-3.086-1.966-3.36-2.473-.588-4.967-1.093-7.458-1.603-2.389-.488-4.786-.94-7.175-1.407l-.165-1.692 1.332.195c-.882-.589-1.767-.911-1.288-1.98l.729-.141c-1.033-.813-1.125-1.628-.316-2.114-.669-.678-.7-1.286-.221-1.687-.107-.506-.26-.922-.267-1.341-.009-.517.199-1.048.141-1.553-.106-.916-.114-1.965-.584-2.681-.463-.706-1.448-1.07-2.208-1.578-.714-.478-1.282-.316-1.723.401-.53.86-.947 1.823-1.615 2.557-2.46 2.703-4.991 5.34-7.535 7.963-.227.234-.772.33-1.116.253-2.247-.508-4.48-1.081-6.692-1.627l.308-.369c-.822-.301-1.581-.583-2.343-.856-.981-.353-2.077-.529-2.926-1.084-1.749-1.142-3.573-1.555-5.606-1.213-.238.04-.541.099-.724-.007-1.555-.897-3.011-.665-4.422.399l-3.574-4.638v.487z" fill="#fff" fill-rule="nonzero"/><clipPath id="a"><path d="M9.464 27.438l-3.878-5.064c1.071 2.063 2.378 3.954 4.036 5.592.926 1.257 1.866 2.505 2.769 3.78.163.23.302.604.234.852-.484 1.762-.242 3.537.248 5.188.309 1.043 1.259 1.922 2.014 2.795.406.468 1.007.768 1.491 1.123-.784.487-1.76.776-2.194 1.426-1.081 1.62-1.892 3.418-2.862 5.115-.337.589-.772 1.092-1.647.838-.909-.264-1.842.245-2.381 1.297l2.022-.689c.355.27.856.518 1.137.364.616-.339 1.278-.783 1.638-1.361.772-1.24 1.356-2.597 2.038-3.896.146-.279.323-.627.578-.75 1.078-.518 2.19-.965 3.292-1.433.274-.116.557-.21 1.082-.406l-2.219 4.509c-.864-.83-1.015-.827-1.899.219l1.033-.293c.221.369.332.798.6.951.619.353.982-.123 1.197-.622.514-1.193.935-2.428 1.484-3.603.416-.89 1.035-.93 1.713-.259.203.2.475.35.742.459 3.134 1.287 6.265 2.585 9.419 3.819.652.255.922.551.859 1.253a5.401 5.401 0 0 0 .102 1.644c.121.535.393 1.037.638 1.653l1.26-.185c.013-1.311-1.495-2.175-.986-3.429 1.316.239 2.6.529 3.899.695 2.369.304 4.742.612 7.123.772 1.844.124 3.704.024 5.583.024.127.834.805 1.647 1.684 1.663 1.378.024 2.758-.072 4.138-.118l-.132-.364c.109-.164.2-.452.33-.47.437-.062.888-.045 1.333-.028.459.018.916.071 1.373.108l.086-.358-1.179-.472c.378-.12.664-.315.898-.264.634.136.919-.053 1.311-.611.484-.69 1.176-1.203 2.266-1.075 1.144.133 2.341-.059 3.499-.223.822-.116 1.45-.634 1.642-1.49.26-1.16-.813-3.086-1.966-3.36-2.473-.588-4.967-1.093-7.458-1.603-2.389-.488-4.786-.94-7.175-1.407l-.165-1.692 1.332.195c-.882-.589-1.767-.911-1.288-1.98l.729-.141c-1.033-.813-1.125-1.628-.316-2.114-.669-.678-.7-1.286-.221-1.687-.107-.506-.26-.922-.267-1.341-.009-.517.199-1.048.141-1.553-.106-.916-.114-1.965-.584-2.681-.463-.706-1.448-1.07-2.208-1.578-.714-.478-1.282-.316-1.723.401-.53.86-.947 1.823-1.615 2.557-2.46 2.703-4.991 5.34-7.535 7.963-.227.234-.772.33-1.116.253-2.247-.508-4.48-1.081-6.692-1.627l.308-.369c-.822-.301-1.581-.583-2.343-.856-.981-.353-2.077-.529-2.926-1.084-1.749-1.142-3.573-1.555-5.606-1.213-.238.04-.541.099-.724-.007-1.555-.897-3.011-.665-4.422.399l-3.574-4.638v.487z" clip-rule="nonzero"/></clipPath><g clip-path="url(#a)" fill-rule="nonzero"><path d="M51.502 49.908l.003.26h3.537l-.003-.26h-3.537zm-34.764-8.869l-.167.09c.082.176.214.513.239.506.364-.113.965-.211 1.019-.432.143-.586.048-1.231.048-1.852l-.234-.002-.455 2.091-.45-.401m32.339-12.765c-.955.687-1.805 1.169-2.488 1.827-.638.615-1.12 1.4-1.631 2.138-.462.667-.87 1.371-1.373 2.171-.56-.009-1.296 1.208-1.016 2.087-1.228-.633-.731 1.005-1.445 1.185l7.953 1.847V28.274zm-39.613-.836v-.487l3.574 4.638c1.412-1.064 2.868-1.296 4.422-.399.184.106.486.047.724.007 2.033-.343 3.857.07 5.606 1.213.849.555 1.945.73 2.927 1.083.762.274 1.521.556 2.343.856l-.309.37c2.212.545 4.445 1.119 6.693 1.626.343.078.889-.018 1.115-.252 2.545-2.623 5.076-5.261 7.535-7.963.668-.734 1.086-1.697 1.615-2.557.441-.717 1.01-.879 1.724-.401.759.508 1.744.872 2.208 1.577.47.717.477 1.766.583 2.682.058.505-.15 1.036-.141 1.553.007.419.16.835.268 1.341-.479.401-.448 1.009.221 1.687-.81.486-.717 1.301.315 2.114l-.729.14c-.479 1.07.406 1.392 1.288 1.98l-1.331-.194.165 1.692c2.388.467 4.785.918 7.175 1.407 2.491.51 4.984 1.015 7.457 1.603 1.153.274 2.226 2.2 1.966 3.36-.192.856-.82 1.374-1.641 1.49-1.158.164-2.356.356-3.5.222-1.09-.127-1.781.386-2.266 1.076-.391.558-.677.747-1.311.61-.233-.05-.519.145-.897.265l1.178.471-.085.359c-.458-.037-.915-.091-1.374-.108-.444-.017-.896-.034-1.333.028-.129.018-.221.305-.33.47l.132.364c-1.379.046-2.76.142-4.138.118-.878-.016-1.557-.829-1.684-1.663-1.879 0-3.738.1-5.583-.024-2.381-.16-4.754-.468-7.123-.772-1.299-.167-2.582-.456-3.899-.695-.508 1.254.999 2.118.987 3.429l-1.261.185c-.245-.616-.517-1.118-.637-1.653a5.404 5.404 0 0 1-.103-1.644c.063-.702-.207-.999-.858-1.253-3.155-1.234-6.285-2.532-9.42-3.819-.266-.109-.539-.26-.741-.459-.678-.671-1.298-.631-1.714.259-.548 1.175-.969 2.41-1.483 3.602-.216.5-.579.976-1.197.623-.269-.153-.379-.582-.601-.951l-1.033.293c.885-1.047 1.036-1.05 1.899-.219l2.22-4.51c-.525.197-.809.291-1.083.407-1.102.467-2.214.915-3.291 1.433-.256.123-.433.47-.579.75-.681 1.298-1.266 2.655-2.038 3.896-.36.578-1.022 1.022-1.638 1.361-.28.154-.782-.094-1.137-.364l-2.022.689c.539-1.052 1.473-1.561 2.381-1.297.875.254 1.31-.249 1.647-.838.971-1.697 1.781-3.495 2.863-5.115.434-.651 1.41-.939 2.193-1.426-.484-.355-1.084-.655-1.49-1.124-.755-.872-1.705-1.752-2.015-2.795-.489-1.65-.732-3.425-.247-5.188.067-.247-.072-.621-.235-.852-.902-1.274-1.842-2.522-2.769-3.779l-.158-.528" fill="#231f20"/><path d="M9.464 27.438l.158.528c-1.658-1.638-2.965-3.529-4.036-5.592l3.878 5.064" fill="#231f20"/><path d="M16.737 41.04l.45.401.455-2.091.235.002c0 .621.094 1.266-.049 1.852-.054.221-.655.318-1.019.431-.025.008-.157-.329-.239-.505l.167-.09M51.502 49.908h3.537l.003.26h-3.537l-.003-.26" fill="#fff"/></g></svg>