<svg viewBox="0 0 72 72" xmlns="http://www.w3.org/2000/svg" xmlns:serif="http://www.serif.com/" fill-rule="evenodd" clip-rule="evenodd" stroke-miterlimit="10"><path serif:id="Plan de travail1" fill="none" d="M0-288h382.774v392.88H0z"/><path d="M21.292 54.937l.004-.546c-.451-.319-.865-.813-1.362-.919-.806-.171-1.285.426-1.291 1.18-.006.76.494 1.348 1.279 1.207.495-.089.916-.6 1.37-.922m5.256-1.542l-.01-.554c-.503-.306-1.029-.881-1.503-.841-.421.036-1.035.708-1.118 1.177-.137.772.52 1.315 1.258 1.194.497-.081.918-.634 1.373-.976m-13.12 4.631l-.549.008c-.325.5-.935 1.026-.893 1.494.04.449.829 1.23 1.153 1.167.515-.101 1.202-.737 1.279-1.231.065-.418-.631-.954-.99-1.438m10.416-7.719c-.85-.556-1.361-1.149-1.842-1.126-.423.021-1.192.804-1.131 1.121.098.516.713 1.238 1.177 1.29.438.05.961-.649 1.796-1.285m-3.855-1.963l-.008-.535c-.505-.326-1.036-.935-1.51-.894-.43.038-1.055.744-1.133 1.229-.118.741.491 1.347 1.272 1.191.505-.1.922-.645 1.379-.991m-5.194 7.478c.647-.799 1.349-1.289 1.319-1.731-.031-.463-.702-1.133-1.205-1.255-.746-.182-1.325.478-1.249 1.208.052.502.584.954 1.135 1.778m7.01 2.882c-.82-.587-1.36-1.271-1.805-1.214-.488.062-.89.808-1.328 1.257.45.434.871 1.17 1.358 1.215.452.043.972-.652 1.775-1.258m10.655-9.625L22.388 39.86l-3.374 3.696 10.072 9.212 3.374-3.689m-.506-1.875c.145 0 .193.014.221-.002 8.253-4.958 16.506-9.913 24.745-14.893.305-.184.57-.564.685-.91a108.45 108.45 0 0 0 1.657-5.371c.09-.327-.053-.889-.299-1.115-4.905-4.53-9.848-9.018-14.759-13.54-.499-.459-.891-.475-1.478-.213-1.528.683-3.114 1.242-4.622 1.965-.554.265-1.124.766-1.395 1.307-1.97 3.925-3.863 7.888-5.784 11.837-2.095 4.309-4.207 8.609-6.266 12.936-.174.366-.193 1.1.041 1.323 2.399 2.283 4.864 4.496 7.254 6.676" fill="#fff" fill-rule="nonzero"/><path d="M32.317 44.496c.486-.278.903-.506 1.31-.75 6.259-3.766 12.461-7.63 18.804-11.247 2.279-1.299 3.809-2.828 4.25-5.443.118-.706.11-1.152-.451-1.659-3.56-3.21-7.232-6.317-10.567-9.75-1.867-1.921-3.507-2.39-5.682-.903-.533.363-1.242.68-1.5 1.201-3.769 7.614-7.468 15.262-11.209 22.89-.283.576-.207.91.256 1.32 1.585 1.401 3.137 2.838 4.789 4.341m-.363 2.708c-2.389-2.18-4.855-4.393-7.254-6.676-.234-.222-.215-.957-.041-1.323 2.059-4.326 4.171-8.627 6.266-12.936 1.921-3.949 3.814-7.912 5.784-11.836.271-.541.841-1.042 1.395-1.307 1.508-.724 3.094-1.282 4.622-1.966.587-.262.979-.246 1.478.213 4.911 4.522 9.854 9.011 14.759 13.54.246.227.389.788.299 1.115a108.122 108.122 0 0 1-1.657 5.371c-.115.346-.38.727-.685.91-8.239 4.98-16.492 9.935-24.745 14.893-.028.017-.076.002-.221.002M32.461 49.079l-3.375 3.689-10.072-9.211 3.375-3.697 10.072 9.219" fill="#231f20" fill-rule="nonzero"/><path d="M21.806 58.704c-.803.606-1.323 1.302-1.775 1.259-.487-.045-.909-.781-1.358-1.216.438-.448.84-1.194 1.327-1.257.446-.057.986.627 1.806 1.214zM14.796 55.822c-.552-.824-1.083-1.275-1.136-1.777-.076-.731.503-1.391 1.25-1.208.502.122 1.173.792 1.204 1.255.03.441-.671.931-1.318 1.73zM19.989 48.345c-.457.346-.874.891-1.378.991-.782.155-1.391-.45-1.273-1.191.078-.486.703-1.192 1.133-1.23.474-.041 1.005.569 1.511.895l.007.535zM23.844 50.307c-.834.636-1.358 1.335-1.796 1.285-.463-.053-1.079-.774-1.177-1.29-.061-.317.708-1.1 1.131-1.121.481-.023.992.57 1.842 1.126zM13.428 58.026c.359.484 1.055 1.021.99 1.438-.076.495-.763 1.13-1.279 1.231-.323.063-1.113-.718-1.153-1.167-.041-.468.568-.994.893-1.494l.549-.008zM26.548 53.395c-.455.342-.875.895-1.373.976-.738.121-1.395-.422-1.258-1.194.084-.469.697-1.141 1.118-1.177.474-.04 1 .535 1.503.841l.01.554zM21.292 54.937c-.454.322-.875.833-1.37.922-.785.141-1.285-.447-1.279-1.207.006-.754.485-1.351 1.291-1.18.497.106.911.6 1.362.919l-.004.546z" fill="none" stroke="#231f20"/><path d="M32.545 41.49c.176-.047.262-.051.327-.09 6.708-4.032 13.424-8.05 20.1-12.136.518-.317.741-1.117 1.102-1.692-4.207.589-7.97.115-11.619-1.481-1.609-.705-3.329-.991-5.017-.391-.672.239-1.403.803-1.736 1.419-1.232 2.279-2.311 4.641-3.444 6.974-.796 1.64-1.586 3.284-2.385 4.939l2.672 2.458m-.228 3.006c-1.652-1.503-3.204-2.941-4.789-4.341-.463-.41-.539-.744-.256-1.32 3.741-7.628 7.44-15.277 11.209-22.89.258-.521.967-.838 1.5-1.201 2.175-1.487 3.815-1.018 5.682.903 3.335 3.433 7.007 6.54 10.567 9.75.561.507.569.953.451 1.658-.441 2.616-1.971 4.145-4.25 5.444-6.343 3.617-12.545 7.481-18.804 11.247-.407.244-.824.472-1.31.75" fill="#fff" fill-rule="nonzero"/><path d="M32.545 41.49l-2.672-2.458c.799-1.655 1.589-3.299 2.385-4.939 1.133-2.333 2.212-4.695 3.444-6.974.333-.616 1.064-1.18 1.736-1.419 1.688-.6 3.408-.314 5.017.391 3.649 1.596 7.412 2.07 11.619 1.481-.361.575-.584 1.375-1.102 1.692-6.676 4.086-13.392 8.104-20.1 12.136-.065.039-.151.043-.327.09" fill="#fff" fill-rule="nonzero"/><path d="M32.545 41.49l-2.672-2.458c.799-1.655 1.589-3.299 2.385-4.939 1.133-2.333 2.212-4.695 3.444-6.974.333-.616 1.064-1.18 1.736-1.419 1.688-.6 3.408-.314 5.017.391 3.649 1.596 7.412 2.07 11.619 1.481-.361.575-.584 1.375-1.102 1.692-6.676 4.086-13.392 8.104-20.1 12.136-.065.039-.151.043-.327.09z" fill="none" stroke="#231f20"/></svg>