<svg viewBox="0 0 72 72" xmlns="http://www.w3.org/2000/svg" xmlns:serif="http://www.serif.com/" fill-rule="evenodd" clip-rule="evenodd" stroke-linejoin="round" stroke-miterlimit="1.414"><path serif:id="Plan de travail1" fill="none" d="M0-144h382.774v392.88H0z"/><g fill-rule="nonzero"><path d="M36.62 21.558c-2.957.403-5.953.627-8.861 1.254-3.906.843-7.334 2.711-9.946 5.832-1.319 1.577-2.064 3.367-1.227 5.429.84 2.069 2.621 2.638 4.659 2.721.438.018.875.111 1.311.107 2.64-.022 4.917.901 6.882 2.631 1.38 1.214 2.723 2.471 4.122 3.662 5.213 4.437 11.283 5.111 16.974 1.912 4.382-2.464 6.717-6.961 5.826-11.361-.596-2.948-2.342-5.207-4.554-7.141-4.351-3.802-9.587-4.825-15.186-5.046m-21.756 9.869c2.344-5.997 7.336-8.656 13.13-9.988 5.966-1.371 12.047-1.571 17.931.422 5.542 1.877 9.978 5.253 11.505 11.201.872 3.398.823 7.017-.047 10.445-1.148 4.523-4.506 7.166-8.663 8.758-6.026 2.307-11.248.458-15.956-3.489-.704-.59-1.402-1.197-2.035-1.86-2.623-2.749-5.705-4.454-9.614-4.337-3.201.095-5.329-1.317-6.251-4.433v-6.719z" fill="#231f20"/><path d="M43.807 45.08c2.478-.102 4.858-.938 6.963-2.502 4.875-3.622 5.394-8.936 1.304-13.43-2.706-2.974-6.099-4.706-10.053-5.339-4.289-.687-8.579-.567-12.825.268-3.756.738-7.141 2.309-9.757 5.201-.956 1.056-1.967 2.225-1.21 3.84.742 1.583 2.254 1.417 3.635 1.458 3.025.09 5.846.785 8.219 2.772a108.077 108.077 0 0 1 3.769 3.328c2.782 2.56 5.903 4.341 9.955 4.404M36.62 21.558c5.599.221 10.835 1.244 15.186 5.046 2.213 1.934 3.958 4.192 4.555 7.14.891 4.401-1.445 8.898-5.827 11.362-5.691 3.199-11.761 2.525-16.973-1.912-1.4-1.191-2.743-2.448-4.123-3.663-1.965-1.729-4.241-2.652-6.882-2.63-.436.003-.873-.09-1.31-.108-2.038-.083-3.819-.651-4.659-2.721-.837-2.062-.092-3.852 1.227-5.428 2.612-3.121 6.039-4.99 9.945-5.832 2.909-.628 5.904-.851 8.861-1.254" fill="#fff"/><path d="M44.322 33.795l-.1.239c-.357.022-.73-.013-1.068.078-1.165.314-2.178.9-2.514 2.134-.275 1.01.309 1.76 1.096 2.33 1.437 1.039 4.038.949 5.383-.166 1.189-.986 1.256-2.594-.017-3.465-.81-.553-1.845-.778-2.78-1.15m-.515 11.286c-4.052-.063-7.173-1.845-9.955-4.405a109.125 109.125 0 0 0-3.769-3.328c-2.373-1.987-5.194-2.681-8.219-2.772-1.381-.041-2.893.125-3.635-1.457-.757-1.616.254-2.784 1.21-3.841 2.616-2.892 6.001-4.462 9.757-5.2 4.246-.835 8.536-.955 12.825-.269 3.954.633 7.347 2.366 10.053 5.34 4.09 4.494 3.571 9.808-1.304 13.43-2.105 1.563-4.485 2.4-6.963 2.502" fill="#231f20"/><path d="M44.322 33.795c.935.372 1.97.597 2.78 1.15 1.273.871 1.206 2.479.017 3.465-1.345 1.115-3.946 1.205-5.383.166-.787-.57-1.371-1.32-1.096-2.33.336-1.234 1.349-1.82 2.514-2.134.338-.091.711-.056 1.068-.078l.1-.239z" fill="#fff"/><path d="M14.864 31.426v-16.08h43.44v42.96h-43.44v-20.16c.922 3.115 3.05 4.528 6.251 4.432 3.909-.117 6.991 1.589 9.615 4.338.633.663 1.331 1.269 2.034 1.859 4.708 3.947 9.93 5.797 15.956 3.489 4.158-1.591 7.515-4.235 8.663-8.757.87-3.429.919-7.048.047-10.446-1.527-5.947-5.963-9.324-11.504-11.201-5.884-1.993-11.966-1.793-17.932-.421-5.794 1.332-10.786 3.99-13.13 9.987" fill="#fff"/></g></svg>