<svg viewBox="0 0 72 72" xmlns="http://www.w3.org/2000/svg" xmlns:serif="http://www.serif.com/" fill-rule="evenodd" clip-rule="evenodd" stroke-miterlimit="10"><path serif:id="Plan de travail1" fill="none" d="M-216-144h382.774v392.88H-216z"/><path d="M32.117 36.245l.079-.229c-.592-.391-1.141-.894-1.926-.779l-.093.239 1.94.769m-2.306-1.72c-.72-.231-1.234-.919-2.131-.859.423.859 1.619 1.326 2.131.859m-1.792 5.133c-.622-1.003-1.87-1.449-2.69-.96.826.834 1.857 1.202 2.69.96m-.115-2.687c1.438 1.121 2.219 1.318 2.898.628-.696-.386-1.331-.8-2.022-1.082-.181-.073-.53.265-.876.454m.979-3.358c1.089.578 2.182 1.115 3.228 1.732.439.259.808.659 1.147 1.049.125.144.071.443.098.671-.21.022-.455.124-.625.051-.755-.326-1.5-.678-2.225-1.064-.926-.492-1.829-1.024-2.743-1.54-.166.241-.274.4-.409.599 1.475 1.05 3.397 1.406 4.425 3.027-.518.774-.683.872-1.518.638a9.169 9.169 0 0 1-1.694-.669c-.866-.442-1.698-.949-2.55-1.421-.193-.107-.402-.239-.61-.254-.188-.013-.386.121-.579.19.078.177.107.428.243.518.573.379 1.207.67 1.765 1.068.685.49 1.329 1.039 1.965 1.593.302.263.175.517-.164.643-.594.218-1.196.398-1.818.07-1.111-.585-2.247-1.127-3.334-1.753-1.294-.747-1.637-.724-2.677.463 1.72.86 3.436 1.682 5.118 2.571 1.282.678 2.421.608 3.54-.342.519-.441 1.156-.613 1.87-.591 1.602.048 2.979.801 4.374 1.418 1.645.728 3.165 1.735 4.791 2.512 6.641 3.179 13.302 6.321 19.96 9.465 1.39.657 2.898.854 4.404.81.825-.024 1.678-.268 2.451-.578 1.137-.455 1.309-1.368.579-2.355-.803-1.088-1.924-1.726-3.134-2.231-1.461-.61-2.986-1.09-4.394-1.801-6.571-3.316-13.634-5.362-20.472-7.985-1.265-.485-2.606-.77-3.881-1.234-.999-.365-1.094-.993-.369-1.746.784-.814.773-.908-.089-1.638-1.795-1.521-4.06-1.956-6.16-2.746l-.513.86M8.394 37.634c1.231-.061 1.197-.049 1.593 1.105.115.336.455.626.752.861.36.285.811.457 1.178.736.747.57 1.363 1.377 2.473 1.215.101-.014.221.091.331.145.911.451.92.458 1.449-.401a9.06 9.06 0 0 0 .655-1.235c.682-1.628 1.375-3.255 2.001-4.906.853-2.252.835-2.274-1.353-3.401-2.849-1.467-5.711-2.91-8.567-4.366-.22-.113-.429-.246-.643-.371l.086-.245c.322.075.675.087.958.235a490.725 490.725 0 0 1 8.11 4.3c.775.423 1.47.997 2.198 1.507.405.284.46.609.26 1.092-1.16 2.797-2.281 5.611-3.416 8.423 1.823-.143 3.274-1.281 4.98-2.286l-1.564-.604c.597-.96 1.394-1.613 2.557-1.699.216-.016.628.109.636.197.066.714.699.591 1.086.886.092-.796.911-.494 1.276-1.039l-2.045-.692c.311-.241.649-.262.858-.436.236-.197.33-.555.538-.799.142-.168.373-.259.57-.389.544 1.009 1.916 1.703 2.799.49l-2.366-.899c1.295-.181 1.285-.183 1.453-1.51.018-.142.238-.373.355-.367.722.036 1.151-.225 1.286-.977.032-.176.319-.306.509-.476.135.311.171.593.292.635.895.319 1.791.687 2.72.849.995.175 1.313-.231 1.154-1.205-.112-.681-.268-1.356-.354-2.04-.154-1.226-.312-2.454-.389-3.686-.06-.975-.17-1.139-1.091-1.494a10.57 10.57 0 0 1-1.926-.979c-1.461-.946-2.884-1.951-4.332-2.916-.167-.111-.43-.209-.602-.158-.5.15-.913-.025-1.103-.413-.363-.736-1.48-.711-1.589-1.658-.002-.022-.067-.039-.103-.056-.877-.418-1.762-.818-2.628-1.258-.772-.394-1.538-.398-2.269.03-.964.563-1.928 1.135-2.833 1.784-2.575 1.847-5.023 3.868-7.864 5.334-1.283.663-2.118 1.742-2.187 3.296-.025.584-.213 1.159-.306 1.741-.184 1.165-.384 2.328-.519 3.499-.085.731.057 1.438.744 1.879.698.45 1.398.903 2.133 1.285.326.169.763.289 1.109.22.705-.14.851.219.9.767.012.141.032.281.05.45M5.668 23.988c1.094-.607 2.246-1.128 3.267-1.838 2.004-1.39 3.905-2.93 5.91-4.317.874-.605 1.87-1.075 2.874-1.43.473-.169 1.133-.03 1.64.156 1.024.376 2.054.793 2.977 1.363.622.384 1.114 1.019 1.565 1.617.231.306.441.394.783.441.427.059.902.122 1.247.348 1.475.96 2.895 2.002 4.364 2.97.621.409 1.301.737 1.978 1.05 1.17.541 1.363.896 1.3 2.163-.036.722.02 1.46.133 2.174.203 1.282.471 2.554.73 3.826.108.53.06.966-.628 1.212.539.291 1.029.482 1.43.788.556.424 1.079.903 1.553 1.418.347.378.305.796-.137 1.15-.29.233-.532.525-.88.876.526.276.913.549 1.343.695 3.842 1.307 7.731 2.484 11.526 3.916 3.7 1.397 7.303 3.047 10.949 4.587 1.719.727 3.459 1.415 5.149 2.205 1.147.535 2.225 1.218 3.333 1.835l.759.957c.426.813.205 1.576-.182 2.326l-.861.683c-2.326.918-4.652.678-6.881-.231a170.563 170.563 0 0 1-9.186-4.048c-4.865-2.327-9.676-4.767-14.513-7.154-1.197-.591-2.382-1.218-3.616-1.723-1.446-.591-2.903-.629-4.204.416-.986.794-2.002.861-3.119.3-1.267-.637-2.566-1.214-3.829-1.86-.396-.203-.653-.209-1.014.078-1.055.839-2.207 1.537-3.524 1.871-.601.152-1.241.196-1.863.197-.29 0-.577-.227-.872-.333-.454-.163-.905-.373-1.375-.451-.876-.147-1.637-.436-2.182-1.185-.149-.206-.371-.414-.603-.495-1.037-.359-1.585-1.082-1.676-2.141-1.409-.083-1.612-.23-1.657-1.188-.794.147-1.467-.162-2.115-.572-.715-.455-1.436-.901-2.155-1.351l-.455-.574c-.047-.377-.165-.761-.128-1.129.325-3.153.356-6.384 2.271-9.143l.574-.455z" fill="#231f20" fill-rule="nonzero"/><path d="M29.846 31.893l.004.001-.004-.001m-3.632 3.863c.23.199.495.327.742.344.05.001.101.001.151-.004l-.893-.34zm6.345.739l.226.1a15.98 15.98 0 0 0-.191-.202l-.035.102zm-9.072 1.159a.525.525 0 0 1 .079.238c.013.146.014.154.316.257l.009.003c.087-.112.19-.196.297-.261l-.701-.237zm7.122.698c.284.07.376.041.56-.211a1.973 1.973 0 0 0-.092-.113c-.153.142-.31.248-.468.324m-5.953.483l.219.116-.188-.19a.122.122 0 0 0-.031.074M8.024 26.183l.438.102c.091.021.186.036.28.051.249.041.532.088.796.226a492.05 492.05 0 0 1 8.118 4.305c.575.314 1.102.702 1.613 1.078.21.155.42.309.633.458.584.41.73.98.434 1.693a630.57 630.57 0 0 0-2.612 6.428l-.468 1.161c1.004-.266 1.926-.839 2.958-1.48l.098-.062-1.182-.457.32-.512c.749-1.203 1.705-1.835 2.921-1.932l.707-.546c.225-.174.446-.258.624-.326.087-.033.187-.071.22-.099.06-.05.127-.173.192-.293.076-.141.162-.3.286-.446.118-.139.258-.236.392-.316l-1.009-.384 1.931-.27c.906-.126.906-.126 1.023-1.046.052-.403.468-.85.88-.835.51.031.685-.101.768-.565.059-.321.309-.498.509-.64.055-.039.111-.078.159-.12l.515-.461.276.633c.055.125.096.246.131.352.008.024.016.046.022.068l.349.126c.732.268 1.425.521 2.139.646.361.063.52.018.552-.015.037-.036.088-.211.022-.618-.043-.261-.093-.522-.142-.782a20.71 20.71 0 0 1-.215-1.276l-.019-.153c-.147-1.164-.298-2.368-.372-3.565-.049-.778-.049-.778-.773-1.058a10.981 10.981 0 0 1-2.017-1.025 124.533 124.533 0 0 1-2.592-1.738c-.581-.396-1.161-.792-1.746-1.182a.545.545 0 0 0-.219-.088c-.685.21-1.35-.054-1.658-.679-.091-.185-.309-.312-.56-.46-.363-.213-.843-.495-1.019-1.084l-.695-.324a60.99 60.99 0 0 1-1.822-.878c-.635-.324-1.221-.319-1.791.015-.975.57-1.923 1.134-2.795 1.759-.619.445-1.232.9-1.844 1.354-1.913 1.42-3.89 2.888-6.08 4.019-1.216.627-1.861 1.594-1.918 2.874-.018.41-.104.803-.188 1.182-.045.205-.091.409-.123.615l-.108.672a61.7 61.7 0 0 0-.409 2.805c-.102.892.246 1.227.518 1.402.718.462 1.399.901 2.093 1.261.269.14.594.21.781.174.437-.088.772-.034 1.034.162.341.255.425.662.459 1.031.989-.001 1.204.24 1.586 1.357l.034.1c.078.226.424.5.59.631.165.13.352.232.538.336.218.121.436.245.632.394.158.121.31.25.461.38.605.518 1.008.833 1.638.739.25-.04.447.084.564.156.247.127.457.231.568.27.073-.092.193-.287.293-.45.284-.46.475-.82.621-1.166l.289-.689c.575-1.372 1.171-2.791 1.705-4.201.7-1.846.7-1.846-1.114-2.779-1.859-.957-3.723-1.904-5.587-2.851l-2.979-1.515c-.161-.083-.316-.175-.473-.268l-.549-.322.368-1.059zm7.802 16.247l.044.02.022-.054a1.364 1.364 0 0 1-.066.034m15.394-2.07l.13.002c1.462.044 2.719.62 3.934 1.177l.627.284c.923.408 1.811.904 2.67 1.384.696.388 1.413.79 2.135 1.134a3997.952 3997.952 0 0 0 18.949 8.988l1.01.476c1.185.56 2.558.813 4.175.762.663-.019 1.43-.202 2.279-.542.264-.106.596-.295.682-.597.074-.264-.038-.618-.319-.997-.632-.857-1.506-1.475-2.924-2.067a50.67 50.67 0 0 0-1.572-.615c-.947-.36-1.927-.732-2.855-1.2-4.49-2.266-9.306-3.969-13.963-5.616-2.124-.751-4.32-1.528-6.462-2.349-.649-.249-1.341-.45-2.01-.645-.626-.182-1.252-.364-1.862-.587-.65-.236-1.035-.594-1.144-1.063-.111-.478.086-.981.584-1.499.122-.125.405-.418.439-.518-.04-.009-.356-.277-.49-.391-1.277-1.081-2.799-1.58-4.411-2.109a48.992 48.992 0 0 1-1.209-.407l-.03.05.471.247c.764.397 1.555.807 2.311 1.253.507.299.921.751 1.269 1.151.207.238.21.544.212.768 0 .059 0 .118.006.172l.06.505-.505.052c-.049.005-.101.017-.153.028-.194.04-.458.097-.72-.015a41.778 41.778 0 0 1-.869-.389c.195.203.374.429.535.683l.175.275-.181.271c-.612.911-.972 1.147-2.069.842a9.748 9.748 0 0 1-1.786-.705c-.241-.123-.48-.252-.718-.383.529.407 1.031.839 1.507 1.254.36.313.362.641.331.809-.056.305-.287.547-.65.68-.508.188-1.356.5-2.224.043a91.449 91.449 0 0 0-1.123-.579 48.315 48.315 0 0 1-2.227-1.183c-.858-.495-1.079-.627-1.606-.121l.953.473c1.202.594 2.398 1.184 3.576 1.807 1.131.599 2.052.511 2.983-.281.558-.473 1.256-.712 2.079-.712m33.533 15.877c-1.303 0-2.65-.282-4.033-.846a169.445 169.445 0 0 1-9.213-4.06c-3.308-1.583-6.645-3.244-9.873-4.851-1.548-.77-3.096-1.541-4.646-2.306l-.81-.404c-.902-.452-1.835-.92-2.774-1.304-1.46-.597-2.672-.485-3.701.343-1.114.897-2.344 1.016-3.657.357a87.71 87.71 0 0 0-1.773-.859 79.85 79.85 0 0 1-2.059-1.003c-.254-.13-.297-.119-.475.025-1.289 1.024-2.469 1.648-3.712 1.964-.567.143-1.198.21-1.986.212h-.002c-.307 0-.562-.131-.788-.245-.083-.043-.167-.087-.252-.117l-.361-.137c-.322-.124-.628-.242-.927-.292-.794-.133-1.796-.41-2.504-1.384-.11-.152-.256-.279-.363-.315-1.065-.371-1.732-1.108-1.948-2.145-.967-.088-1.487-.297-1.659-1.121-.761-.01-1.403-.343-1.944-.688-.508-.321-1.016-.639-1.526-.957l-.754-.505-.541-.684-.018-.138c-.013-.11-.034-.219-.053-.329-.051-.276-.109-.589-.076-.912.044-.426.083-.852.121-1.279.249-2.755.505-5.605 2.236-8.099l.101-.106.642-.502c.344-.19.692-.372 1.042-.554.774-.404 1.505-.785 2.183-1.256.985-.684 1.965-1.419 2.913-2.13a95.08 95.08 0 0 1 2.997-2.188c.847-.586 1.853-1.088 2.991-1.49.689-.246 1.535-.005 1.981.158 1.012.373 2.085.801 3.066 1.407.67.413 1.167 1.033 1.702 1.741.129.172.205.213.451.247.484.066 1.016.139 1.453.424a94.225 94.225 0 0 1 2.293 1.558c.687.477 1.374.954 2.073 1.414.599.395 1.274.718 1.913 1.013 1.336.618 1.662 1.161 1.589 2.642a9.99 9.99 0 0 0 .128 2.071c.179 1.133.415 2.282.642 3.393l.084.411c.046.228.156.772-.167 1.233.275.139.537.283.781.469.576.439 1.119.936 1.618 1.477.33.359.378.708.361.939-.019.241-.129.601-.553.941a4.054 4.054 0 0 0-.385.364c.253.144.477.268.697.342 1.302.444 2.611.872 3.919 1.301 2.51.822 5.106 1.672 7.623 2.622 2.592.979 5.176 2.098 7.675 3.18 1.096.474 2.191.949 3.29 1.414.481.202.962.402 1.443.602 1.227.51 2.497 1.036 3.724 1.61.812.379 1.594.832 2.35 1.271.337.195.675.391 1.015.58l.148.126.759.957c.612 1.151.25 2.132-.129 2.866l-.134.164-.988.755a8.699 8.699 0 0 1-3.22.613" fill="#231f20" fill-rule="nonzero"/><path d="M68.651 54.476c.387-.75.607-1.513.182-2.326l1.062 1.34-1.244.986" fill="#fff" fill-rule="nonzero"/><path d="M31.637 43.629c-.089.418-.143.668-.195.918.339-.032.685-.034 1.009-.121.063-.017.118-.482.037-.537-.203-.138-.485-.16-.851-.26m-.584 1.161c-.295-.396-.166-1.156.25-1.474.512-.393 1.126-.268 1.58.321.421.548.372 1.062-.136 1.429-.489.353-1.329.216-1.694-.276M37.699 32.265c-.392-.824-.796-1.129-1.188-.896-.432.256-.589.819-.339 1.212.276.434.714.343 1.527-.316m.858.567c-.484.245-.886.479-1.312.659-.827.349-1.46.127-1.786-.592-.316-.695.029-1.686.715-2.059.641-.349 1.444-.12 1.826.584.235.436.371.926.557 1.408M40.561 35.732c-.298-.388-.638-.644-1.075-.319-.108.079-.101.555.014.646.447.355.77.061 1.061-.327m.189-.533c.397.512.387 1.153-.022 1.462a1.099 1.099 0 0 1-1.556-.196c-.456-.568-.484-1.354-.062-1.71.41-.346 1.192-.134 1.64.444" fill="#231f20" fill-rule="nonzero"/><path d="M31.95 26.104l-.054-.21c-.184.012-.387-.02-.551.045-.827.329-1.677.622-2.454 1.048-.758.417-1.67.736-1.788 1.849-.019.179-.499.382-.791.435-.23.043-.497-.173-.753-.19-.208-.014-.52.027-.62.165-.623.854-1.346 1.552-2.356 1.941-.208.081-.333.377-.496.575a3.427 3.427 0 0 0 1.181-.493c.415-.278.874-.543 1.177-.923.536-.67 1.08-1.017 1.981-.737.692.215.915-.037 1.089-.75.08-.322.257-.743.517-.879 1-.525 2.053-.949 3.082-1.422.287-.132.558-.302.836-.454" fill="#fff" fill-rule="nonzero"/><path d="M28.883 33.612l.514-.859c2.099.789 4.364 1.225 6.16 2.746.861.73.873.823.089 1.637-.726.753-.63 1.382.369 1.746 1.274.464 2.615.749 3.881 1.234 6.838 2.623 13.9 4.669 20.471 7.985 1.409.712 2.933 1.192 4.394 1.801 1.21.505 2.331 1.143 3.135 2.231.729.987.557 1.9-.579 2.355-.774.31-1.626.554-2.452.578-1.505.044-3.013-.153-4.404-.809-6.658-3.145-13.318-6.287-19.96-9.465-1.626-.778-3.145-1.784-4.791-2.513-1.394-.617-2.771-1.37-4.374-1.418-.714-.021-1.35.15-1.87.591-1.118.951-2.258 1.02-3.54.343-1.682-.89-3.397-1.712-5.117-2.572 1.04-1.187 1.383-1.21 2.677-.463 1.086.626 2.222 1.168 3.334 1.753.622.328 1.223.149 1.817-.07.34-.125.467-.38.164-.643-.636-.554-1.279-1.103-1.965-1.592-.557-.399-1.191-.69-1.765-1.069-.135-.089-.165-.34-.243-.518.194-.069.391-.202.579-.189.208.014.417.146.611.254.851.471 1.683.978 2.55 1.421a9.23 9.23 0 0 0 1.693.669c.835.233 1 .135 1.518-.639-1.028-1.621-2.95-1.977-4.424-3.027l.408-.599c.914.516 1.817 1.049 2.743 1.54.726.386 1.471.739 2.226 1.064.17.073.415-.029.625-.05-.028-.229.026-.528-.099-.671-.339-.39-.708-.791-1.146-1.05-1.046-.616-2.139-1.154-3.229-1.732" fill="#231f20" fill-rule="nonzero"/><path d="M27.904 36.971c.346-.189.695-.527.876-.454.69.282 1.326.696 2.021 1.082-.678.69-1.46.493-2.897-.628M28.019 39.658c-.833.242-1.864-.126-2.69-.96.82-.489 2.068-.043 2.69.96M29.811 34.525c-.513.467-1.708 0-2.131-.858.897-.06 1.41.628 2.131.858M32.117 36.245l-1.94-.769.093-.239c.785-.115 1.334.388 1.926.779l-.079.229M31.637 43.629c.366.1.648.122.851.26.081.055.026.52-.037.537-.324.087-.67.089-1.009.121.052-.25.106-.5.195-.918M37.699 32.265c-.813.659-1.251.75-1.527.316-.25-.393-.093-.956.339-1.212.392-.233.796.072 1.188.896M40.561 35.732c-.291.388-.614.682-1.061.327-.115-.091-.122-.567-.014-.646.437-.325.777-.069 1.075.319" fill="#fff" fill-rule="nonzero"/><path d="M27.515 28.859c-.175.713-.397.964-1.09.75-.9-.28-1.444.067-1.98.737-.303.38-.762.645-1.177.923a3.404 3.404 0 0 1-1.182.492c.163-.197.288-.494.496-.574 1.01-.389 1.734-1.088 2.357-1.942.099-.137.412-.178.62-.164.256.017.522.233.753.19.292-.053.771-.256.791-.435.118-1.114 1.029-1.432 1.788-1.85.776-.426 1.627-.718 2.453-1.047.164-.066.367-.033.552-.046l.054.211" fill="none" stroke="#231f20"/></svg>