<svg viewBox="0 0 72 72" xmlns="http://www.w3.org/2000/svg" xmlns:serif="http://www.serif.com/" fill-rule="evenodd" clip-rule="evenodd" stroke-linejoin="round" stroke-miterlimit="1.414"><path serif:id="Plan de travail1" fill="none" d="M-72-216h382.774v392.88H-72z"/><g fill="#231f20" fill-rule="nonzero"><path d="M17.269 40.768v-3.6c.085-.386.194-.769.252-1.159.692-4.655 2.601-8.461 7.216-10.386.095-.04.217-.015.344-.022l-.194.46 4.891 2.565c-2.217 2.182-2.815 4.547-2.65 6.96 1.783-.424 3.497-.843 5.218-1.236.585-.133.903.029 1.076.727.458 1.859 1.622 3.254 3.17 4.366.528.379.86.346 1.323-.106 1.564-1.523 2.544-3.335 2.445-5.527-.046-1.001.367-1.304 1.142-1.404 1.636-.21 3.279-.364 4.936-.543-.724-2.119-1.918-4.082-4.165-5.226 1.546-1.835 2.625-2.1 4.642-1.263 1.978.821 3.575 2.106 4.758 3.884 3.285 4.936 4.342 14.671-2.008 20.546-5.613 5.195-12.209 6.798-19.539 4.694-6.05-1.737-10.411-5.456-12.287-11.682-.204-.678-.381-1.365-.57-2.048"/><path d="M33.109 18.928l2.371 5.837c2.488-2.336 5.189-2.724 8.129-.963l-3.541 3.121c3.363 1.748 3.672 2.009 4.392 3.609l-5.508 1.216c.512 3.107.016 4.901-1.842 6.53-1.906-1.317-2.754-3.184-2.813-5.464l-5.931.918c.271-2.054 1.257-3.649 3.188-4.917l-4.248-3.244c1.655-1.715 3.764-1.916 7.427-.5-.635-1.683-1.231-3.18-1.751-4.703-.151-.441-.081-.958-.113-1.44h.24z"/></g></svg>