<svg viewBox="0 0 72 72" xmlns="http://www.w3.org/2000/svg" xmlns:serif="http://www.serif.com/" fill-rule="evenodd" clip-rule="evenodd" stroke-linejoin="round" stroke-miterlimit="1.414"><path serif:id="Plan de travail1" fill="none" d="M0-72h382.774v392.88H0z"/><g fill-rule="nonzero"><path d="M8.28 39.973v-.96c.684-.725 1.386-1.434 2.049-2.177 1.632-1.831 2.301-1.945 4.15-.655 1.547-1.282 2.384-1.318 4.061-.156 1.274-1.292 2.639-1.26 3.712-.405l3.359-.852c.194-.18.539-.754.885-.755.43-.002.861.471 1.429.825h1.41c.503-.504.87-1.17 1.277-1.195.414-.026.867.579 1.443 1.014h1.535l.85-1.884h.72l.712 1.798h1.784l.864-1.798h.72l.693 1.909h1.915c.267-.525.752-1.133 1.055-1.053.453.12.778.724 1.21 1.177l1.722.102c.767-1.271 1.069-1.297 1.999-.198.104.122.296.196.46.237.888.225 1.781.433 2.896.7 1.396-.903 2.144-.871 3.704.348 1.676-1.114 2.497-1.082 4.047.161 1.542-1.06 2.769-1.048 3.732-.021.366.39.811.714 1.252 1.022.808.565 1.3 1.268 1.254 2.301-.045 1.009-.479 1.746-1.386 2.203-.246.124-.527.225-.717.412-1.718 1.687-2.283 1.77-4.176.56-1.615 1.273-2.251 1.295-4.024.139-1.448 1.14-2.394 1.186-3.779.33l-3.244 1.004c-.634 1.059-1.219 1.054-1.991-.237l-1.684.09c-.52.537-.935 1.24-1.206 1.188-.486-.093-.886-.639-1.46-1.109l-1.743.096.244.25c-.384.499-.71 1.355-1.163 1.429-1.283.211-.686-1.115-1.016-1.63H35.78l.203.233c-.401.491-.752 1.339-1.212 1.404-1.312.184-.664-1.131-1.031-1.743h-2.007c-.289.512-.769 1.107-1.083 1.03-.457-.112-.796-.709-1.262-1.177h-1.801c-.567 1.1-1.091 1.168-1.862.235a1.074 1.074 0 0 0-.527-.35c-.92-.22-1.849-.405-3.019-.655-1.25.801-2.151.748-3.709-.418-1.568 1.169-2.269 1.146-4.074-.16-.918.92-2.071 1.262-3.113.45-1.116-.871-2.011-2.027-3.003-3.059" fill="#231f20"/><path d="M38.52 32.773l-.863 1.797h-1.784l-.713-1.797h3.36z" fill="#fff"/></g></svg>